CommonSerif-BoldItalic.ufo
<glyph name="percent" format="2">
  <advance width="637"/>
  <unicode hex="0025"/>
  <outline>
    <contour>
      <point x="143" y="372" type="curve" smooth="yes"/>
      <point x="143" y="331"/>
      <point x="163" y="297"/>
      <point x="220" y="297" type="curve" smooth="yes"/>
      <point x="306" y="297"/>
      <point x="387" y="388"/>
      <point x="387" y="475" type="curve" smooth="yes"/>
      <point x="387" y="481"/>
      <point x="387" y="487"/>
      <point x="386" y="493" type="curve"/>
      <point x="402" y="483"/>
      <point x="428" y="474"/>
      <point x="448" y="474" type="curve" smooth="yes"/>
      <point x="476" y="474"/>
      <point x="514" y="481"/>
      <point x="554" y="497" type="curve"/>
      <point x="104" y="-4" type="line"/>
      <point x="152" y="-16" type="line"/>
      <point x="658" y="548" type="line"/>
      <point x="618" y="569" type="line"/>
      <point x="570" y="525"/>
      <point x="506" y="519"/>
      <point x="467" y="519" type="curve" smooth="yes"/>
      <point x="438" y="519"/>
      <point x="394" y="531"/>
      <point x="372" y="546" type="curve"/>
      <point x="358" y="562"/>
      <point x="337" y="566"/>
      <point x="316" y="566" type="curve" smooth="yes"/>
      <point x="219" y="566"/>
      <point x="143" y="464"/>
    </contour>
    <contour>
      <point x="380" y="65" type="curve" smooth="yes"/>
      <point x="380" y="15"/>
      <point x="400" y="-20"/>
      <point x="448" y="-20" type="curve" smooth="yes"/>
      <point x="549" y="-20"/>
      <point x="623" y="105"/>
      <point x="623" y="196" type="curve" smooth="yes"/>
      <point x="623" y="235"/>
      <point x="596" y="249"/>
      <point x="562" y="249" type="curve" smooth="yes"/>
      <point x="461" y="249"/>
      <point x="380" y="165"/>
    </contour>
    <contour>
      <point x="462" y="48" type="curve" smooth="yes"/>
      <point x="462" y="91"/>
      <point x="502" y="215"/>
      <point x="556" y="215" type="curve" smooth="yes"/>
      <point x="574" y="215"/>
      <point x="581" y="193"/>
      <point x="581" y="174" type="curve" smooth="yes"/>
      <point x="581" y="136"/>
      <point x="527" y="20"/>
      <point x="482" y="20" type="curve" smooth="yes"/>
      <point x="470" y="20"/>
      <point x="462" y="30"/>
    </contour>
    <contour>
      <point x="227" y="364" type="curve" smooth="yes"/>
      <point x="227" y="407"/>
      <point x="267" y="531"/>
      <point x="321" y="531" type="curve" smooth="yes"/>
      <point x="339" y="531"/>
      <point x="346" y="509"/>
      <point x="346" y="490" type="curve" smooth="yes"/>
      <point x="346" y="450"/>
      <point x="292" y="336"/>
      <point x="247" y="336" type="curve" smooth="yes"/>
      <point x="235" y="336"/>
      <point x="227" y="346"/>
    </contour>
  </outline>
</glyph>
<glyph name="quotesingle" format="2">
  <advance width="215"/>
  <unicode hex="0027"/>
  <outline>
    <contour>
      <point x="152" y="417" type="line"/>
      <point x="228" y="608" type="line"/>
      <point x="228" y="629"/>
      <point x="217" y="645"/>
      <point x="193" y="645" type="curve" smooth="yes"/>
      <point x="153" y="645"/>
      <point x="126" y="614"/>
      <point x="121" y="591" type="curve"/>
      <point x="113" y="415" type="line"/>
    </contour>
  </outline>
</glyph>
<glyph name="comma" format="2">
  <advance width="244"/>
  <unicode hex="002C"/>
  <outline>
    <contour>
      <point x="138" y="127" type="curve" smooth="yes"/>
      <point x="96" y="127"/>
      <point x="69" y="96"/>
      <point x="69" y="58" type="curve" smooth="yes"/>
      <point x="69" y="-6"/>
      <point x="123" y="10"/>
      <point x="123" y="-22" type="curve" smooth="yes"/>
      <point x="123" y="-58"/>
      <point x="38" y="-128"/>
      <point x="6" y="-136" type="curve"/>
      <point x="-2" y="-149"/>
      <point x="-4" y="-159"/>
      <point x="6" y="-167" type="curve"/>
      <point x="105" y="-151"/>
      <point x="207" y="-50"/>
      <point x="207" y="53" type="curve" smooth="yes"/>
      <point x="207" y="102"/>
      <point x="178" y="127"/>
    </contour>
  </outline>
</glyph>
<glyph name="zero" format="2">
  <advance width="514"/>
  <unicode hex="0030"/>
  <outline>
    <contour>
      <point x="253" y="-10" type="curve" smooth="yes"/>
      <point x="449.343" y="-10"/>
      <point x="549" y="259.967"/>
      <point x="549" y="420" type="curve" smooth="yes"/>
      <point x="549" y="565"/>
      <point x="467" y="610"/>
      <point x="390" y="610" type="curve" smooth="yes"/>
      <point x="196.12" y="610"/>
      <point x="96" y="355.483"/>
      <point x="96" y="195" type="curve" smooth="yes"/>
      <point x="96" y="78"/>
      <point x="146" y="-10"/>
    </contour>
    <contour>
      <point x="263" y="33" type="curve" smooth="yes"/>
      <point x="226" y="33"/>
      <point x="215" y="70"/>
      <point x="215" y="118" type="curve" smooth="yes"/>
      <point x="215" y="200.23"/>
      <point x="272.007" y="565"/>
      <point x="380" y="565" type="curve" smooth="yes"/>
      <point x="421.206" y="565"/>
      <point x="425" y="496.485"/>
      <point x="425" y="469" type="curve" smooth="yes"/>
      <point x="425" y="399.054"/>
      <point x="364.437" y="33"/>
    </contour>
  </outline>
</glyph>
<glyph name="C" format="2">
  <advance width="675"/>
  <unicode hex="0043"/>
  <anchor x="363" y="-110" name="b.uni0316_3"/>
  <anchor x="356" y="-7" name="b.uni0327_6"/>
  <anchor x="346" y="315" name="b.uni0334_7"/>
  <anchor x="489" y="740" name="t.uni0302"/>
  <outline>
    <contour>
      <point x="378" y="-10" type="curve" smooth="yes"/>
      <point x="471" y="-10"/>
      <point x="566" y="36"/>
      <point x="649" y="125" type="curve"/>
      <point x="646" y="134"/>
      <point x="632" y="146"/>
      <point x="621" y="146" type="curve"/>
      <point x="538" y="68"/>
      <point x="455" y="42"/>
      <point x="388" y="42" type="curve" smooth="yes"/>
      <point x="295" y="42"/>
      <point x="237" y="136"/>
      <point x="237" y="250" type="curve" smooth="yes"/>
      <point x="237" y="395"/>
      <point x="332" y="616"/>
      <point x="491" y="616" type="curve" smooth="yes"/>
      <point x="623" y="616"/>
      <point x="651" y="539"/>
      <point x="659" y="453" type="curve"/>
      <point x="670" y="449"/>
      <point x="690" y="452"/>
      <point x="702" y="458" type="curve"/>
      <point x="707" y="510"/>
      <point x="709" y="558"/>
      <point x="711" y="613" type="curve"/>
      <point x="663" y="618"/>
      <point x="627" y="658"/>
      <point x="516" y="658" type="curve" smooth="yes"/>
      <point x="279" y="658"/>
      <point x="89" y="474"/>
      <point x="89" y="240" type="curve" smooth="yes"/>
      <point x="89" y="57"/>
      <point x="205" y="-10"/>
    </contour>
  </outline>
</glyph>
<glyph name="E" format="2">
  <advance width="578"/>
  <unicode hex="0045"/>
  <anchor x="409" y="740" name="t.uni0302"/>
  <anchor x="255" y="-60" name="b.minus-60"/>
  <anchor x="299" y="10" name="b.cedilla"/>
  <anchor x="351" y="10" name="b.ogonek"/>
  <outline>
    <contour>
      <point x="145" y="0" type="line"/>
      <point x="384" y="0" type="line" smooth="yes"/>
      <point x="430" y="0"/>
      <point x="507" y="-2"/>
      <point x="516" y="-2" type="curve"/>
      <point x="530" y="50"/>
      <point x="551" y="108"/>
      <point x="574" y="165" type="curve"/>
      <point x="565" y="171"/>
      <point x="545" y="173"/>
      <point x="532" y="170" type="curve"/>
      <point x="502" y="104"/>
      <point x="453" y="42"/>
      <point x="389" y="42" type="curve" smooth="yes"/>
      <point x="275" y="42" type="line" smooth="yes"/>
      <point x="254" y="42"/>
      <point x="244" y="61"/>
      <point x="244" y="79" type="curve" smooth="yes"/>
      <point x="244" y="83"/>
      <point x="244" y="86"/>
      <point x="245" y="90" type="curve"/>
    </contour>
    <contour>
      <point x="331" y="536" type="line"/>
      <point x="335" y="554" type="line" smooth="yes"/>
      <point x="342" y="587"/>
      <point x="358" y="603"/>
      <point x="384" y="603" type="curve" smooth="yes"/>
      <point x="466" y="603" type="line" smooth="yes"/>
      <point x="538" y="603"/>
      <point x="550" y="565"/>
      <point x="558" y="496" type="curve"/>
      <point x="570" y="494"/>
      <point x="590" y="496"/>
      <point x="600" y="501" type="curve"/>
      <point x="603" y="542"/>
      <point x="614" y="633"/>
      <point x="617" y="645" type="curve"/>
      <point x="617" y="647"/>
      <point x="616" y="649"/>
      <point x="613" y="649" type="curve"/>
      <point x="596" y="646"/>
      <point x="589" y="645"/>
      <point x="566" y="645" type="curve" smooth="yes"/>
      <point x="277" y="645" type="line"/>
      <point x="277" y="536" type="line"/>
    </contour>
    <contour>
      <point x="228" y="0" type="line"/>
      <point x="331" y="536" type="line"/>
      <point x="277" y="645" type="line"/>
      <point x="217" y="645"/>
      <point x="170" y="646"/>
      <point x="135" y="647" type="curve"/>
      <point x="130" y="642"/>
      <point x="127" y="624"/>
      <point x="129" y="613" type="curve"/>
      <point x="182" y="609"/>
      <point x="199" y="598"/>
      <point x="199" y="566" type="curve" smooth="yes"/>
      <point x="199" y="555"/>
      <point x="197" y="540"/>
      <point x="194" y="522" type="curve" smooth="yes"/>
      <point x="117" y="122" type="line" smooth="yes"/>
      <point x="104" y="55"/>
      <point x="86" y="40"/>
      <point x="16" y="32" type="curve"/>
      <point x="10" y="26"/>
      <point x="4" y="5"/>
      <point x="9" y="-2" type="curve"/>
      <point x="46" y="-1"/>
      <point x="115" y="0"/>
      <point x="145" y="0" type="curve" smooth="yes"/>
    </contour>
    <contour>
      <point x="377" y="367" type="curve" smooth="yes"/>
      <point x="284" y="367" type="line"/>
      <point x="274" y="317" type="line"/>
      <point x="367" y="317" type="line" smooth="yes"/>
      <point x="425" y="317"/>
      <point x="443" y="302"/>
      <point x="443" y="273" type="curve" smooth="yes"/>
      <point x="443" y="255" type="line"/>
      <point x="449" y="249"/>
      <point x="477" y="249"/>
      <point x="483" y="255" type="curve"/>
      <point x="493" y="313"/>
      <point x="504" y="371"/>
      <point x="517" y="429" type="curve"/>
      <point x="513" y="435"/>
      <point x="482" y="435"/>
      <point x="476" y="429" type="curve"/>
      <point x="459" y="370"/>
      <point x="437" y="367"/>
    </contour>
  </outline>
  <guideline angle="79.0229" x="245" y="90"/>
  <guideline angle="259.104" x="194" y="522"/>
  <guideline angle="259.077" x="367" y="521"/>
</glyph>
<glyph name="F" format="2">
  <advance width="518"/>
  <unicode hex="0046"/>
  <anchor x="410" y="740" name="top"/>
  <anchor x="255" y="-60" name="b.minus-60"/>
  <outline>
    <contour>
      <point x="175" y="120" type="line"/>
      <point x="251" y="120" type="line"/>
      <point x="335" y="554" type="line" smooth="yes"/>
      <point x="339" y="573"/>
      <point x="353" y="593"/>
      <point x="371" y="600" type="curve"/>
      <point x="488" y="602" type="line"/>
      <point x="544" y="595"/>
      <point x="555" y="554"/>
      <point x="562" y="491" type="curve"/>
      <point x="574" y="489"/>
      <point x="594" y="491"/>
      <point x="604" y="496" type="curve"/>
      <point x="607" y="537"/>
      <point x="622" y="638"/>
      <point x="622" y="646" type="curve" smooth="yes"/>
      <point x="622" y="648"/>
      <point x="622" y="649"/>
      <point x="619" y="649" type="curve"/>
      <point x="602" y="646"/>
      <point x="594" y="645"/>
      <point x="571" y="645" type="curve" smooth="yes"/>
      <point x="277" y="645" type="line"/>
    </contour>
    <contour>
      <point x="228" y="0" type="line"/>
      <point x="331" y="536" type="line"/>
      <point x="277" y="645" type="line"/>
      <point x="217" y="645"/>
      <point x="170" y="646"/>
      <point x="135" y="647" type="curve"/>
      <point x="130" y="642"/>
      <point x="127" y="624"/>
      <point x="129" y="613" type="curve"/>
      <point x="182" y="609"/>
      <point x="199" y="598"/>
      <point x="199" y="566" type="curve" smooth="yes"/>
      <point x="199" y="555"/>
      <point x="197" y="540"/>
      <point x="194" y="522" type="curve" smooth="yes"/>
      <point x="117" y="122" type="line" smooth="yes"/>
      <point x="104" y="55"/>
      <point x="86" y="40"/>
      <point x="16" y="32" type="curve"/>
      <point x="10" y="26"/>
      <point x="4" y="5"/>
      <point x="9" y="-2" type="curve"/>
      <point x="46" y="-1"/>
      <point x="115" y="0"/>
      <point x="145" y="0" type="curve" smooth="yes"/>
    </contour>
    <contour>
      <point x="152" y="0" type="line"/>
      <point x="161" y="0" type="line" smooth="yes"/>
      <point x="199" y="0"/>
      <point x="278" y="-1"/>
      <point x="316" y="-2" type="curve"/>
      <point x="326" y="3"/>
      <point x="331" y="26"/>
      <point x="323" y="32" type="curve"/>
      <point x="272" y="32"/>
      <point x="247" y="49"/>
      <point x="247" y="90" type="curve" smooth="yes"/>
      <point x="247" y="99"/>
      <point x="249" y="108"/>
      <point x="251" y="120" type="curve"/>
      <point x="175" y="120" type="line"/>
    </contour>
    <contour>
      <point x="377" y="367" type="curve" smooth="yes"/>
      <point x="284" y="367" type="line"/>
      <point x="274" y="317" type="line"/>
      <point x="367" y="317" type="line" smooth="yes"/>
      <point x="425" y="317"/>
      <point x="443" y="302"/>
      <point x="443" y="273" type="curve" smooth="yes"/>
      <point x="443" y="255" type="line"/>
      <point x="449" y="249"/>
      <point x="477" y="249"/>
      <point x="483" y="255" type="curve"/>
      <point x="493" y="313"/>
      <point x="504" y="371"/>
      <point x="517" y="429" type="curve"/>
      <point x="513" y="435"/>
      <point x="482" y="435"/>
      <point x="476" y="429" type="curve"/>
      <point x="459" y="370"/>
      <point x="437" y="367"/>
    </contour>
  </outline>
  <guideline angle="0" x="0" y="120"/>
  <guideline angle="0" x="0" y="740"/>
  <guideline angle="79.0632" x="277" y="645"/>
  <guideline angle="259.077" x="367" y="521"/>
</glyph>
<glyph name="I" format="2">
  <advance width="323"/>
  <unicode hex="0049"/>
  <anchor x="294" y="740" name="t.uni0302"/>
  <anchor x="222" y="10" name="b.ogonek"/>
  <anchor x="150" y="-60" name="b.minus-60"/>
  <outline>
    <contour>
      <point x="161" y="0" type="line"/>
      <point x="199" y="0"/>
      <point x="269" y="-1"/>
      <point x="307" y="-2" type="curve"/>
      <point x="318" y="4"/>
      <point x="321" y="26"/>
      <point x="313" y="32" type="curve"/>
      <point x="247" y="37"/>
      <point x="238" y="52"/>
      <point x="251" y="122" type="curve" smooth="yes"/>
      <point x="329" y="523" type="line" smooth="yes"/>
      <point x="342" y="589"/>
      <point x="355" y="607"/>
      <point x="426" y="613" type="curve"/>
      <point x="437" y="619"/>
      <point x="441" y="641"/>
      <point x="433" y="647" type="curve"/>
      <point x="399" y="646"/>
      <point x="342" y="645"/>
      <point x="303" y="645" type="curve" smooth="yes"/>
      <point x="277" y="645" type="line"/>
    </contour>
    <contour>
      <point x="228" y="0" type="line"/>
      <point x="331" y="536" type="line"/>
      <point x="277" y="645" type="line"/>
      <point x="217" y="645"/>
      <point x="170" y="646"/>
      <point x="135" y="647" type="curve"/>
      <point x="130" y="642"/>
      <point x="127" y="624"/>
      <point x="129" y="613" type="curve"/>
      <point x="182" y="609"/>
      <point x="199" y="598"/>
      <point x="199" y="566" type="curve" smooth="yes"/>
      <point x="199" y="555"/>
      <point x="197" y="540"/>
      <point x="194" y="522" type="curve" smooth="yes"/>
      <point x="117" y="122" type="line" smooth="yes"/>
      <point x="104" y="55"/>
      <point x="86" y="40"/>
      <point x="16" y="32" type="curve"/>
      <point x="10" y="26"/>
      <point x="4" y="5"/>
      <point x="9" y="-2" type="curve"/>
      <point x="46" y="-1"/>
      <point x="115" y="0"/>
      <point x="145" y="0" type="curve" smooth="yes"/>
    </contour>
  </outline>
  <guideline angle="259.805" x="277" y="645"/>
</glyph>
<glyph name="L" format="2">
  <advance width="552"/>
  <unicode hex="004C"/>
  <anchor x="310" y="740" name="top"/>
  <anchor x="256" y="-60" name="b.minus-60"/>
  <anchor x="509.725" y="646" name="apostrophe"/>
  <outline>
    <contour>
      <point x="327" y="42" type="curve" smooth="yes"/>
      <point x="298" y="42" type="line" smooth="yes"/>
      <point x="265" y="42"/>
      <point x="241" y="69"/>
      <point x="251" y="121" type="curve" smooth="yes"/>
      <point x="329" y="523" type="line" smooth="yes"/>
      <point x="343" y="593"/>
      <point x="358" y="608"/>
      <point x="426" y="613" type="curve"/>
      <point x="437" y="619"/>
      <point x="441" y="641"/>
      <point x="433" y="647" type="curve"/>
      <point x="354" y="646"/>
      <point x="325" y="645"/>
      <point x="287" y="645" type="curve" smooth="yes"/>
      <point x="270" y="645" type="line"/>
      <point x="144" y="0" type="line"/>
      <point x="151" y="0"/>
      <point x="156" y="0"/>
      <point x="161" y="0" type="curve" smooth="yes"/>
      <point x="356" y="0" type="line" smooth="yes"/>
      <point x="401" y="0"/>
      <point x="445" y="-1"/>
      <point x="490" y="-2" type="curve"/>
      <point x="506" y="54"/>
      <point x="525" y="113"/>
      <point x="547" y="165" type="curve"/>
      <point x="539" y="170"/>
      <point x="519" y="172"/>
      <point x="507" y="170" type="curve"/>
      <point x="474" y="98"/>
      <point x="428" y="42"/>
    </contour>
    <contour>
      <point x="228" y="0" type="line"/>
      <point x="331" y="536" type="line"/>
      <point x="277" y="645" type="line"/>
      <point x="217" y="645"/>
      <point x="170" y="646"/>
      <point x="135" y="647" type="curve"/>
      <point x="130" y="642"/>
      <point x="127" y="624"/>
      <point x="129" y="613" type="curve"/>
      <point x="182" y="609"/>
      <point x="199" y="598"/>
      <point x="199" y="566" type="curve" smooth="yes"/>
      <point x="199" y="555"/>
      <point x="197" y="540"/>
      <point x="194" y="522" type="curve" smooth="yes"/>
      <point x="117" y="122" type="line" smooth="yes"/>
      <point x="104" y="55"/>
      <point x="86" y="40"/>
      <point x="16" y="32" type="curve"/>
      <point x="10" y="26"/>
      <point x="4" y="5"/>
      <point x="9" y="-2" type="curve"/>
      <point x="46" y="-1"/>
      <point x="115" y="0"/>
      <point x="145" y="0" type="curve" smooth="yes"/>
    </contour>
  </outline>
  <guideline angle="0" x="0" y="700"/>
</glyph>
<glyph name="O" format="2">
  <advance width="699"/>
  <unicode hex="004F"/>
  <anchor x="486" y="740" name="top"/>
  <anchor x="394" y="10" name="b.ogonek"/>
  <anchor x="356" y="-60" name="b.minus-60"/>
  <anchor x="641" y="603" name="t.horn"/>
  <outline>
    <contour>
      <point x="88" y="249" type="curve" smooth="yes"/>
      <point x="88" y="84"/>
      <point x="204" y="-10"/>
      <point x="356" y="-10" type="curve" smooth="yes"/>
      <point x="570" y="-10"/>
      <point x="737" y="175"/>
      <point x="737" y="404" type="curve" smooth="yes"/>
      <point x="737" y="560"/>
      <point x="629" y="658"/>
      <point x="479" y="658" type="curve" smooth="yes"/>
      <point x="260" y="658"/>
      <point x="88" y="449"/>
    </contour>
    <contour>
      <point x="233" y="220" type="curve" smooth="yes"/>
      <point x="233" y="346"/>
      <point x="297" y="616"/>
      <point x="458" y="616" type="curve" smooth="yes"/>
      <point x="537" y="616"/>
      <point x="592" y="550"/>
      <point x="592" y="423" type="curve" smooth="yes"/>
      <point x="592" y="216"/>
      <point x="494" y="32"/>
      <point x="367" y="32" type="curve" smooth="yes"/>
      <point x="289" y="32"/>
      <point x="233" y="102"/>
    </contour>
  </outline>
  <guideline angle="0" x="0" y="32"/>
</glyph>
<glyph name="R" format="2">
  <advance width="669"/>
  <unicode hex="0052"/>
  <anchor x="424" y="740" name="t.uni0302"/>
  <anchor x="333" y="-60" name="b.minus-60"/>
  <outline>
    <contour>
      <point x="442" y="654" type="curve" smooth="yes"/>
      <point x="424" y="654"/>
      <point x="363" y="645"/>
      <point x="299" y="645" type="curve" smooth="yes"/>
      <point x="277" y="645" type="line"/>
      <point x="154" y="0" type="line"/>
      <point x="193" y="0"/>
      <point x="268" y="-1"/>
      <point x="308" y="-2" type="curve"/>
      <point x="312" y="5"/>
      <point x="316" y="22"/>
      <point x="312" y="32" type="curve" name=".hr01"/>
      <point x="273" y="32"/>
      <point x="246" y="51"/>
      <point x="246" y="75" type="curve" smooth="yes"/>
      <point x="246" y="84"/>
      <point x="246" y="88"/>
      <point x="250" y="110" type="curve" smooth="yes"/>
      <point x="281" y="283" type="line"/>
      <point x="342" y="283"/>
      <point x="365" y="270"/>
      <point x="379" y="240" type="curve" smooth="yes"/>
      <point x="452" y="79" type="line" smooth="yes"/>
      <point x="493" y="-11"/>
      <point x="526" y="-13"/>
      <point x="613" y="-8" type="curve" smooth="yes"/>
      <point x="636" y="-7"/>
      <point x="655" y="-5"/>
      <point x="661" y="-2" type="curve" name=".hr02"/>
      <point x="668" y="9"/>
      <point x="667" y="20"/>
      <point x="667" y="32" type="curve" name=".hr03"/>
      <point x="624" y="32"/>
      <point x="605" y="56"/>
      <point x="587" y="98" type="curve" smooth="yes"/>
      <point x="497" y="308" type="line"/>
      <point x="584" y="342"/>
      <point x="646" y="416"/>
      <point x="646" y="511" type="curve"/>
      <point x="646" y="630"/>
      <point x="543" y="654"/>
    </contour>
    <contour>
      <point x="505" y="513" type="curve" smooth="yes"/>
      <point x="505" y="398"/>
      <point x="452" y="325"/>
      <point x="331" y="325" type="curve" smooth="yes"/>
      <point x="290" y="325" type="line"/>
      <point x="335" y="556" type="line" smooth="yes"/>
      <point x="344" y="601"/>
      <point x="361" y="615"/>
      <point x="403" y="615" type="curve" smooth="yes"/>
      <point x="451" y="615"/>
      <point x="505" y="595"/>
    </contour>
    <contour>
      <point x="228" y="0" type="line"/>
      <point x="331" y="536" type="line"/>
      <point x="277" y="645" type="line"/>
      <point x="217" y="645"/>
      <point x="170" y="646"/>
      <point x="135" y="647" type="curve"/>
      <point x="130" y="642"/>
      <point x="127" y="624"/>
      <point x="129" y="613" type="curve"/>
      <point x="182" y="609"/>
      <point x="199" y="598"/>
      <point x="199" y="566" type="curve" smooth="yes"/>
      <point x="199" y="555"/>
      <point x="197" y="540"/>
      <point x="194" y="522" type="curve" smooth="yes"/>
      <point x="117" y="122" type="line" smooth="yes"/>
      <point x="104" y="55"/>
      <point x="86" y="40"/>
      <point x="16" y="32" type="curve"/>
      <point x="10" y="26"/>
      <point x="4" y="5"/>
      <point x="9" y="-2" type="curve"/>
      <point x="46" y="-1"/>
      <point x="115" y="0" name=".hr04"/>
      <point x="145" y="0" type="curve" smooth="yes"/>
    </contour>
  </outline>
  <guideline angle="79.895" x="262" y="81"/>
</glyph>
<glyph name="S" format="2">
  <advance width="482"/>
  <unicode hex="0053"/>
  <outline>
    <contour>
      <point x="526" y="630" type="curve"/>
      <point x="467" y="640"/>
      <point x="437" y="658"/>
      <point x="374" y="658" type="curve" smooth="yes"/>
      <point x="239" y="658"/>
      <point x="129" y="580"/>
      <point x="129" y="445" type="curve" smooth="yes"/>
      <point x="129" y="366"/>
      <point x="176" y="317"/>
      <point x="246" y="270" type="curve" smooth="yes"/>
      <point x="276" y="249" type="line" smooth="yes"/>
      <point x="319" y="218"/>
      <point x="349" y="186"/>
      <point x="349" y="136" type="curve" smooth="yes"/>
      <point x="349" y="69"/>
      <point x="291" y="32"/>
      <point x="229" y="32" type="curve" smooth="yes"/>
      <point x="165" y="32"/>
      <point x="108" y="87"/>
      <point x="108" y="178" type="curve"/>
      <point x="103" y="180"/>
      <point x="98" y="181"/>
      <point x="92" y="181" type="curve" smooth="yes"/>
      <point x="81" y="181"/>
      <point x="70" y="179"/>
      <point x="59" y="175" type="curve"/>
      <point x="49" y="125"/>
      <point x="46" y="58"/>
      <point x="46" y="10" type="curve"/>
      <point x="101" y="10"/>
      <point x="99" y="-10"/>
      <point x="232" y="-10" type="curve" smooth="yes"/>
      <point x="354" y="-10"/>
      <point x="483" y="76"/>
      <point x="483" y="204" type="curve" smooth="yes"/>
      <point x="483" y="285"/>
      <point x="453" y="333"/>
      <point x="376" y="377" type="curve" smooth="yes"/>
      <point x="337" y="399" type="line" smooth="yes"/>
      <point x="299" y="420"/>
      <point x="260" y="459"/>
      <point x="260" y="510" type="curve" smooth="yes"/>
      <point x="260" y="574"/>
      <point x="312" y="614"/>
      <point x="362" y="614" type="curve" smooth="yes"/>
      <point x="443" y="614"/>
      <point x="454" y="538"/>
      <point x="458" y="473" type="curve"/>
      <point x="463" y="471"/>
      <point x="470" y="470"/>
      <point x="477" y="470" type="curve" smooth="yes"/>
      <point x="488" y="470"/>
      <point x="500" y="473"/>
      <point x="507" y="478" type="curve"/>
      <point x="517" y="531"/>
      <point x="521" y="572"/>
    </contour>
  </outline>
</glyph>
<glyph name="Z" format="2">
  <advance width="598"/>
  <unicode hex="005A"/>
  <anchor x="455" y="740" name="t.uni0302"/>
  <anchor x="271" y="-60" name="b.minus-60"/>
  <outline>
    <contour>
      <point x="22" y="11" type="curve" smooth="yes"/>
      <point x="22" y="4"/>
      <point x="27" y="0"/>
      <point x="37" y="0" type="curve" smooth="yes"/>
      <point x="324" y="0" type="line" smooth="yes"/>
      <point x="398" y="0"/>
      <point x="473" y="-2"/>
      <point x="546" y="-8" type="curve"/>
      <point x="551" y="-5" type="line"/>
      <point x="564" y="25"/>
      <point x="593" y="112"/>
      <point x="611" y="172" type="curve"/>
      <point x="602" y="176"/>
      <point x="586" y="177"/>
      <point x="574" y="177" type="curve"/>
      <point x="539" y="97"/>
      <point x="483" y="44"/>
      <point x="420" y="44" type="curve" smooth="yes"/>
      <point x="228" y="44" type="line" smooth="yes"/>
      <point x="212" y="44"/>
      <point x="206" y="47"/>
      <point x="206" y="52" type="curve" smooth="yes"/>
      <point x="206" y="58"/>
      <point x="215" y="68"/>
      <point x="218" y="72" type="curve" smooth="yes"/>
      <point x="659" y="591" type="line" smooth="yes"/>
      <point x="684" y="620"/>
      <point x="689" y="629"/>
      <point x="689" y="637" type="curve" smooth="yes"/>
      <point x="689" y="643"/>
      <point x="687" y="647"/>
      <point x="674" y="647" type="curve" smooth="yes"/>
      <point x="662" y="647"/>
      <point x="638" y="645"/>
      <point x="611" y="645" type="curve" smooth="yes"/>
      <point x="418" y="645" type="line" smooth="yes"/>
      <point x="344" y="645"/>
      <point x="270" y="648"/>
      <point x="196" y="653" type="curve"/>
      <point x="194" y="653"/>
      <point x="191" y="651"/>
      <point x="191" y="650" type="curve"/>
      <point x="178" y="605"/>
      <point x="153" y="529"/>
      <point x="133" y="481" type="curve"/>
      <point x="142" y="477"/>
      <point x="158" y="476"/>
      <point x="170" y="476" type="curve"/>
      <point x="202" y="539"/>
      <point x="238" y="602"/>
      <point x="317" y="602" type="curve" smooth="yes"/>
      <point x="492" y="602" type="line" smooth="yes"/>
      <point x="501" y="602"/>
      <point x="505" y="598"/>
      <point x="505" y="593" type="curve" smooth="yes"/>
      <point x="505" y="589"/>
      <point x="502" y="583"/>
      <point x="498" y="579" type="curve" smooth="yes"/>
      <point x="34" y="38" type="line" smooth="yes"/>
      <point x="27" y="30"/>
      <point x="22" y="22"/>
    </contour>
  </outline>
</glyph>
<glyph name="grave" format="2">
	<unicode hex="0060"/>
	<advance width="319"/>
	<outline>
		<contour>
			<point x="254" y="669" type="line"/>
			<point x="251" y="670"/>
			<point x="243" y="671"/>
			<point x="238" y="671" type="curve" smooth="yes"/>
			<point x="207" y="671"/>
			<point x="184" y="653"/>
			<point x="178" y="642" type="curve"/>
			<point x="178" y="624" type="line"/>
			<point x="313" y="516" type="line" smooth="yes"/>
			<point x="328" y="504"/>
			<point x="343" y="500"/>
			<point x="353" y="500" type="curve" smooth="yes"/>
			<point x="361" y="500"/>
			<point x="367" y="507"/>
			<point x="367" y="514" type="curve" smooth="yes"/>
			<point x="367" y="520"/>
			<point x="363" y="529"/>
			<point x="356" y="538" type="curve" smooth="yes"/>
		</contour>
	</outline>
	<guideline x="0" y="500" angle="0"/>
</glyph>
<glyph name="d" format="2">
  <advance width="561"/>
  <unicode hex="0064"/>
  <anchor x="426" y="740" name="top"/>
  <anchor x="258" y="-60" name="b.minus-60"/>
  <anchor x="631" y="652" name="apostrophe"/>
  <outline>
    <contour>
      <point x="58" y="125" type="curve" smooth="yes"/>
      <point x="58" y="51"/>
      <point x="90" y="-10"/>
      <point x="171" y="-10" type="curve" smooth="yes"/>
      <point x="236" y="-10"/>
      <point x="283" y="30"/>
      <point x="343" y="118" type="curve"/>
      <point x="345" y="117" type="line"/>
      <point x="344" y="112" type="line" smooth="yes"/>
      <point x="337" y="78"/>
      <point x="335" y="58"/>
      <point x="335" y="46" type="curve" smooth="yes"/>
      <point x="335" y="13"/>
      <point x="350" y="-10"/>
      <point x="396" y="-10" type="curve" smooth="yes"/>
      <point x="456" y="-10"/>
      <point x="517" y="30"/>
      <point x="567" y="85" type="curve"/>
      <point x="564" y="94"/>
      <point x="552" y="113"/>
      <point x="538" y="113" type="curve"/>
      <point x="512" y="83"/>
      <point x="478" y="66"/>
      <point x="468" y="66" type="curve" smooth="yes"/>
      <point x="460" y="66"/>
      <point x="457" y="74"/>
      <point x="457" y="82" type="curve" smooth="yes"/>
      <point x="457" y="92"/>
      <point x="461" y="113"/>
      <point x="464" y="127" type="curve" smooth="yes"/>
      <point x="570" y="583" type="line" smooth="yes"/>
      <point x="578" y="616"/>
      <point x="589" y="667"/>
      <point x="593" y="678" type="curve"/>
      <point x="593" y="689"/>
      <point x="590" y="698"/>
      <point x="571" y="698" type="curve"/>
      <point x="537" y="684"/>
      <point x="434" y="672"/>
      <point x="389" y="672" type="curve"/>
      <point x="383" y="660"/>
      <point x="381" y="647"/>
      <point x="384" y="638" type="curve"/>
      <point x="431" y="638"/>
      <point x="452" y="634"/>
      <point x="452" y="602" type="curve" smooth="yes"/>
      <point x="452" y="592"/>
      <point x="450" y="579"/>
      <point x="446" y="563" type="curve" smooth="yes"/>
      <point x="405" y="381" type="line"/>
      <point x="404" y="381" type="line"/>
      <point x="392" y="411"/>
      <point x="364" y="439"/>
      <point x="326" y="439" type="curve" smooth="yes"/>
      <point x="171" y="439"/>
      <point x="58" y="265"/>
    </contour>
    <contour>
      <point x="180" y="143" type="curve" smooth="yes"/>
      <point x="180" y="255"/>
      <point x="243" y="392"/>
      <point x="324" y="392" type="curve" smooth="yes"/>
      <point x="371" y="392"/>
      <point x="389" y="345"/>
      <point x="389" y="310" type="curve"/>
      <point x="373" y="240"/>
      <point x="297" y="56"/>
      <point x="225" y="56" type="curve" smooth="yes"/>
      <point x="192" y="56"/>
      <point x="180" y="94"/>
    </contour>
  </outline>
</glyph>
<glyph name="e" format="2">
  <advance width="421"/>
  <unicode hex="0065"/>
  <anchor x="347" y="500" name="top"/>
  <anchor x="284" y="10" name="b.ogonek"/>
  <anchor x="234" y="10" name="b.cedilla"/>
  <anchor x="188" y="-60" name="b.minus-60"/>
  <outline>
    <contour>
      <point x="189" y="199" type="curve"/>
      <point x="388" y="241"/>
      <point x="452" y="283"/>
      <point x="452" y="368" type="curve" smooth="yes"/>
      <point x="452" y="403"/>
      <point x="411" y="439"/>
      <point x="325" y="439" type="curve" smooth="yes"/>
      <point x="136" y="439"/>
      <point x="59" y="268"/>
      <point x="59" y="135" type="curve" smooth="yes"/>
      <point x="59" y="57"/>
      <point x="85" y="-10"/>
      <point x="205" y="-10" type="curve" smooth="yes"/>
      <point x="272" y="-10"/>
      <point x="350" y="23"/>
      <point x="409" y="99" type="curve"/>
      <point x="404" y="110"/>
      <point x="389" y="124"/>
      <point x="377" y="124" type="curve"/>
      <point x="320" y="66"/>
      <point x="289" y="50"/>
      <point x="241" y="50" type="curve" smooth="yes"/>
      <point x="202" y="50"/>
      <point x="188" y="98"/>
      <point x="188" y="165" type="curve" smooth="yes"/>
      <point x="188" y="170"/>
      <point x="188" y="191"/>
    </contour>
    <contour>
      <point x="339" y="361" type="curve" smooth="yes"/>
      <point x="339" y="279"/>
      <point x="249" y="245"/>
      <point x="196" y="236" type="curve"/>
      <point x="230" y="377"/>
      <point x="268" y="397"/>
      <point x="305" y="397" type="curve" smooth="yes"/>
      <point x="328" y="397"/>
      <point x="339" y="389"/>
    </contour>
  </outline>
</glyph>
<glyph name="i" format="2">
  <advance width="342"/>
  <unicode hex="0069"/>
  <anchor x="252" y="10" name="b.ogonek"/>
  <anchor x="173" y="-60" name="b.minus-60"/>
  <outline>
    <contour>
      <point x="206" y="594" type="curve" smooth="yes"/>
      <point x="206" y="557"/>
      <point x="232" y="530"/>
      <point x="270" y="530" type="curve" smooth="yes"/>
      <point x="311" y="530"/>
      <point x="334" y="557"/>
      <point x="334" y="594" type="curve" smooth="yes"/>
      <point x="334" y="632"/>
      <point x="311" y="658"/>
      <point x="270" y="658" type="curve" smooth="yes"/>
      <point x="232" y="658"/>
      <point x="206" y="632"/>
    </contour>
    <contour>
      <point x="156" y="249" type="line"/>
      <point x="127" y="114" type="line" smooth="yes"/>
      <point x="119" y="75"/>
      <point x="117" y="62"/>
      <point x="117" y="48" type="curve" smooth="yes"/>
      <point x="117" y="16"/>
      <point x="128" y="-11"/>
      <point x="169" y="-11" type="curve" smooth="yes"/>
      <point x="239" y="-11"/>
      <point x="308" y="22"/>
      <point x="354" y="81" type="curve"/>
      <point x="351" y="90"/>
      <point x="339" y="109"/>
      <point x="325" y="109" type="curve"/>
      <point x="299" y="79"/>
      <point x="265" y="62"/>
      <point x="255" y="62" type="curve" smooth="yes"/>
      <point x="248" y="62"/>
      <point x="244" y="69"/>
      <point x="244" y="78" type="curve" smooth="yes"/>
      <point x="244" y="87"/>
      <point x="248" y="110"/>
      <point x="251" y="123" type="curve" smooth="yes"/>
      <point x="278" y="249" type="line"/>
    </contour>
    <contour>
      <point x="156" y="249" type="line"/>
      <point x="278" y="249" type="line"/>
      <point x="293" y="319" type="line" smooth="yes"/>
      <point x="302" y="359"/>
      <point x="314" y="401"/>
      <point x="314" y="418" type="curve" smooth="yes"/>
      <point x="314" y="430"/>
      <point x="308" y="436"/>
      <point x="297" y="436" type="curve"/>
      <point x="266" y="431"/>
      <point x="169" y="423"/>
      <point x="121" y="423" type="curve"/>
      <point x="114" y="415"/>
      <point x="113" y="393"/>
      <point x="119" y="384" type="curve"/>
      <point x="159" y="381" type="line" smooth="yes"/>
      <point x="171" y="380"/>
      <point x="177" y="371"/>
      <point x="177" y="359" type="curve" smooth="yes"/>
      <point x="177" y="352"/>
      <point x="175" y="339"/>
      <point x="171" y="320" type="curve" smooth="yes"/>
    </contour>
  </outline>
</glyph>
<glyph name="j" format="2">
  <advance width="303"/>
  <unicode hex="006A"/>
  <outline>
    <contour>
      <point x="204" y="596" type="curve" smooth="yes"/>
      <point x="204" y="563"/>
      <point x="228" y="530"/>
      <point x="268" y="530" type="curve" smooth="yes"/>
      <point x="313" y="530"/>
      <point x="339" y="566"/>
      <point x="339" y="592" type="curve" smooth="yes"/>
      <point x="339" y="622"/>
      <point x="316" y="658"/>
      <point x="274" y="658" type="curve" smooth="yes"/>
      <point x="227" y="658"/>
      <point x="204" y="626"/>
    </contour>
    <contour>
      <point x="121" y="176" type="line" smooth="yes"/>
      <point x="92" y="33"/>
      <point x="62" y="-172"/>
      <point x="14" y="-172" type="curve" smooth="yes"/>
      <point x="-23" y="-172"/>
      <point x="-10" y="-99"/>
      <point x="-76" y="-99" type="curve" smooth="yes"/>
      <point x="-94" y="-99"/>
      <point x="-115" y="-114"/>
      <point x="-115" y="-144" type="curve" smooth="yes"/>
      <point x="-115" y="-191"/>
      <point x="-64" y="-207"/>
      <point x="-5" y="-207" type="curve" smooth="yes"/>
      <point x="126" y="-207"/>
      <point x="178" y="-125"/>
      <point x="205" y="0" type="curve" smooth="yes"/>
      <point x="258" y="249" type="line"/>
      <point x="136" y="249" type="line"/>
    </contour>
    <contour>
      <point x="136" y="249" type="line"/>
      <point x="258" y="249" type="line"/>
      <point x="273" y="319" type="line" smooth="yes"/>
      <point x="282" y="359"/>
      <point x="294" y="401"/>
      <point x="294" y="418" type="curve" smooth="yes"/>
      <point x="294" y="430"/>
      <point x="288" y="436"/>
      <point x="277" y="436" type="curve"/>
      <point x="246" y="431"/>
      <point x="149" y="423"/>
      <point x="101" y="423" type="curve"/>
      <point x="94" y="415"/>
      <point x="93" y="393"/>
      <point x="99" y="384" type="curve"/>
      <point x="139" y="381" type="line" smooth="yes"/>
      <point x="151" y="380"/>
      <point x="157" y="371"/>
      <point x="157" y="359" type="curve" smooth="yes"/>
      <point x="157" y="352"/>
      <point x="155" y="339"/>
      <point x="151" y="320" type="curve" smooth="yes"/>
    </contour>
  </outline>
</glyph>
<glyph name="k" format="2">
  <advance width="560"/>
  <unicode hex="006B"/>
  <anchor x="462" y="740" name="top"/>
  <anchor x="271" y="-60" name="b.minus-60"/>
  <outline>
    <contour>
      <point x="251" y="234" type="line"/>
      <point x="258" y="237"/>
      <point x="265" y="237"/>
      <point x="271" y="237" type="curve" smooth="yes"/>
      <point x="279" y="237"/>
      <point x="286" y="230"/>
      <point x="291" y="221" type="curve" smooth="yes"/>
      <point x="309" y="189"/>
      <point x="314" y="138"/>
      <point x="334" y="93" type="curve" smooth="yes"/>
      <point x="367" y="21"/>
      <point x="392" y="-10"/>
      <point x="433" y="-10" type="curve" smooth="yes"/>
      <point x="493" y="-10"/>
      <point x="543" y="24"/>
      <point x="570" y="77" type="curve"/>
      <point x="563" y="85"/>
      <point x="551" y="94"/>
      <point x="540" y="94" type="curve"/>
      <point x="520" y="65"/>
      <point x="500" y="52"/>
      <point x="489" y="52" type="curve" smooth="yes"/>
      <point x="469" y="52"/>
      <point x="463" y="68"/>
      <point x="456" y="90" type="curve" smooth="yes"/>
      <point x="438" y="146"/>
      <point x="429" y="174"/>
      <point x="415" y="202" type="curve"/>
      <point x="399" y="231"/>
      <point x="384" y="257"/>
      <point x="349" y="266" type="curve"/>
      <point x="348" y="270" type="line"/>
      <point x="400" y="316" type="line" smooth="yes"/>
      <point x="432" y="344"/>
      <point x="456" y="351"/>
      <point x="476" y="351" type="curve" smooth="yes"/>
      <point x="502" y="351"/>
      <point x="510" y="310"/>
      <point x="542" y="310" type="curve" smooth="yes"/>
      <point x="574" y="310"/>
      <point x="596" y="346"/>
      <point x="596" y="380" type="curve" smooth="yes"/>
      <point x="596" y="416"/>
      <point x="566" y="439"/>
      <point x="537" y="439" type="curve" smooth="yes"/>
      <point x="499" y="439"/>
      <point x="429" y="399"/>
      <point x="356" y="337" type="curve" smooth="yes"/>
      <point x="316" y="303" type="line"/>
      <point x="303" y="290"/>
      <point x="278" y="273"/>
      <point x="260" y="273" type="curve" smooth="yes"/>
      <point x="257" y="273"/>
      <point x="255" y="273"/>
      <point x="252" y="274" type="curve"/>
      <point x="243" y="234" type="line"/>
    </contour>
    <contour>
      <point x="215" y="47" type="curve" smooth="yes"/>
      <point x="334" y="583" type="line" smooth="yes"/>
      <point x="343" y="623"/>
      <point x="349" y="652"/>
      <point x="359" y="679" type="curve"/>
      <point x="359" y="692"/>
      <point x="349" y="698"/>
      <point x="336" y="698" type="curve"/>
      <point x="292" y="685"/>
      <point x="200" y="675"/>
      <point x="153" y="672" type="curve"/>
      <point x="148" y="665"/>
      <point x="145" y="648"/>
      <point x="148" y="638" type="curve"/>
      <point x="194" y="635"/>
      <point x="216" y="624"/>
      <point x="216" y="601" type="curve" smooth="yes"/>
      <point x="216" y="594"/>
      <point x="214" y="580"/>
      <point x="210" y="563" type="curve" smooth="yes"/>
      <point x="89" y="29" type="line" smooth="yes"/>
      <point x="84" y="6"/>
      <point x="106" y="0"/>
      <point x="121" y="0" type="curve" smooth="yes"/>
      <point x="158" y="0" type="line" smooth="yes"/>
      <point x="186" y="0"/>
      <point x="207" y="11"/>
    </contour>
  </outline>
  <guideline angle="77.331" x="202" y="47"/>
  <guideline angle="77.4825" x="215" y="47"/>
</glyph>
<glyph name="l" format="2">
	<unicode hex="006C"/>
	<advance width="324"/>
	<outline>
		<contour>
			<point x="196" y="511" type="line"/>
			<point x="113" y="118" type="line" smooth="yes"/>
			<point x="108" y="95"/>
			<point x="103" y="68"/>
			<point x="103" y="47" type="curve" smooth="yes"/>
			<point x="103" y="14"/>
			<point x="117" y="-10"/>
			<point x="154" y="-10" type="curve" smooth="yes"/>
			<point x="224" y="-10"/>
			<point x="290" y="30"/>
			<point x="340" y="85" type="curve"/>
			<point x="337" y="94"/>
			<point x="325" y="113"/>
			<point x="311" y="113" type="curve"/>
			<point x="285" y="83"/>
			<point x="251" y="66"/>
			<point x="241" y="66" type="curve" smooth="yes"/>
			<point x="233" y="66"/>
			<point x="230" y="74"/>
			<point x="230" y="84" type="curve" smooth="yes"/>
			<point x="230" y="97"/>
			<point x="233" y="113"/>
			<point x="236" y="127" type="curve" smooth="yes"/>
			<point x="318" y="511" type="line"/>
		</contour>
		<contour>
			<point x="196" y="511" type="line"/>
			<point x="318" y="511" type="line"/>
			<point x="333" y="581" type="line" smooth="yes"/>
			<point x="342" y="621"/>
			<point x="354" y="663"/>
			<point x="354" y="680" type="curve" smooth="yes"/>
			<point x="354" y="692"/>
			<point x="348" y="698"/>
			<point x="337" y="698" type="curve"/>
			<point x="306" y="693"/>
			<point x="209" y="685"/>
			<point x="161" y="685" type="curve"/>
			<point x="154" y="677"/>
			<point x="153" y="655"/>
			<point x="159" y="646" type="curve"/>
			<point x="199" y="643" type="line" smooth="yes"/>
			<point x="211" y="642"/>
			<point x="217" y="633"/>
			<point x="217" y="621" type="curve" smooth="yes"/>
			<point x="217" y="614"/>
			<point x="215" y="601"/>
			<point x="211" y="582" type="curve" smooth="yes"/>
		</contour>
	</outline>
	<anchor name="t.uni0302" x="283" y="740"/>
	<anchor name="b.minus-60" x="150" y="-60"/>
	<guideline x="318" y="511" angle="77.9052"/>
	<guideline x="211" y="582" angle="258.071"/>
	<guideline x="236" y="127" angle="77.946"/>
	<guideline x="196" y="511" angle="258.075"/>
	<guideline x="211" y="582" angle="258.071"/>
	<guideline x="318" y="511" angle="77.9052"/>
</glyph>
<glyph name="m" format="2">
  <advance width="866"/>
  <unicode hex="006D"/>
  <anchor x="516" y="645" name="t.uni0302"/>
  <anchor x="394" y="-105" name="b.uni0316_3"/>
  <anchor x="151" y="9" name="b.uni0327_6"/>
  <outline>
    <contour>
      <point x="155" y="310" type="line"/>
      <point x="102" y="72" type="line" smooth="yes"/>
      <point x="94" y="38"/>
      <point x="90" y="21"/>
      <point x="90" y="13" type="curve" smooth="yes"/>
      <point x="90" y="-4"/>
      <point x="110" y="-10"/>
      <point x="153" y="-10" type="curve" smooth="yes"/>
      <point x="200" y="-10"/>
      <point x="206" y="-3"/>
      <point x="224" y="72" type="curve" smooth="yes"/>
      <point x="262" y="228" type="line"/>
      <point x="325" y="310"/>
      <point x="371" y="369"/>
      <point x="407" y="369" type="curve" smooth="yes"/>
      <point x="418" y="369"/>
      <point x="427" y="364"/>
      <point x="427" y="334" type="curve" smooth="yes"/>
      <point x="427" y="324"/>
      <point x="426" y="309"/>
      <point x="418" y="275" type="curve" smooth="yes"/>
      <point x="371" y="72" type="line" smooth="yes"/>
      <point x="362" y="34"/>
      <point x="361" y="22"/>
      <point x="361" y="17" type="curve" smooth="yes"/>
      <point x="361" y="1"/>
      <point x="370" y="-10"/>
      <point x="425" y="-10" type="curve" smooth="yes"/>
      <point x="468" y="-10"/>
      <point x="478" y="-3"/>
      <point x="495" y="72" type="curve" smooth="yes"/>
      <point x="537" y="258" type="line"/>
      <point x="590" y="324"/>
      <point x="633" y="369"/>
      <point x="672" y="369" type="curve" smooth="yes"/>
      <point x="685" y="369"/>
      <point x="699" y="364"/>
      <point x="699" y="328" type="curve" smooth="yes"/>
      <point x="699" y="319"/>
      <point x="698" y="309"/>
      <point x="690" y="275" type="curve" smooth="yes"/>
      <point x="653" y="115" type="line" smooth="yes"/>
      <point x="648" y="93"/>
      <point x="644" y="65"/>
      <point x="644" y="46" type="curve" smooth="yes"/>
      <point x="644" y="3"/>
      <point x="664" y="-10"/>
      <point x="705" y="-10" type="curve" smooth="yes"/>
      <point x="772" y="-10"/>
      <point x="836" y="26"/>
      <point x="880" y="82" type="curve"/>
      <point x="877" y="91"/>
      <point x="865" y="110"/>
      <point x="851" y="110" type="curve"/>
      <point x="825" y="80"/>
      <point x="791" y="63"/>
      <point x="781" y="63" type="curve" smooth="yes"/>
      <point x="774" y="63"/>
      <point x="769" y="69"/>
      <point x="769" y="77" type="curve" smooth="yes"/>
      <point x="769" y="82"/>
      <point x="770" y="93"/>
      <point x="777" y="124" type="curve" smooth="yes"/>
      <point x="815" y="283" type="line" smooth="yes"/>
      <point x="827" y="334"/>
      <point x="828" y="341"/>
      <point x="828" y="350" type="curve" smooth="yes"/>
      <point x="828" y="406"/>
      <point x="796" y="439"/>
      <point x="735" y="439" type="curve" smooth="yes"/>
      <point x="692" y="439"/>
      <point x="628" y="422"/>
      <point x="555" y="341" type="curve"/>
      <point x="556" y="347"/>
      <point x="556" y="352"/>
      <point x="556" y="353" type="curve" smooth="yes"/>
      <point x="556" y="412"/>
      <point x="516" y="439"/>
      <point x="462" y="439" type="curve" smooth="yes"/>
      <point x="415" y="439"/>
      <point x="369" y="418"/>
      <point x="277" y="310" type="curve"/>
    </contour>
    <contour>
      <point x="155" y="310" type="line"/>
      <point x="276" y="310" type="line"/>
      <point x="278" y="319" type="line" smooth="yes"/>
      <point x="287" y="359"/>
      <point x="299" y="401"/>
      <point x="299" y="418" type="curve" smooth="yes"/>
      <point x="299" y="430"/>
      <point x="293" y="436"/>
      <point x="282" y="436" type="curve"/>
      <point x="251" y="431"/>
      <point x="154" y="423"/>
      <point x="106" y="423" type="curve"/>
      <point x="99" y="415"/>
      <point x="98" y="393"/>
      <point x="104" y="384" type="curve"/>
      <point x="144" y="381" type="line" smooth="yes"/>
      <point x="156" y="380"/>
      <point x="163" y="371"/>
      <point x="163" y="359" type="curve" smooth="yes"/>
      <point x="163" y="352"/>
      <point x="162" y="342"/>
      <point x="160" y="332" type="curve" smooth="yes"/>
    </contour>
  </outline>
  <guideline angle="257.471" x="140" y="243"/>
  <guideline angle="76.31" x="224" y="72"/>
  <guideline angle="0" x="0" y="310"/>
</glyph>
<glyph name="n" format="2">
  <advance width="614"/>
  <unicode hex="006E"/>
  <anchor x="394" y="511" name="t.uni0302"/>
  <anchor x="235" y="-111" name="b.uni0316_3"/>
  <anchor x="128" y="9" name="b.uni0327_6"/>
  <outline>
    <contour>
      <point x="155" y="310" type="line"/>
      <point x="102" y="72" type="line"/>
      <point x="224" y="72" type="line"/>
      <point x="262" y="228" type="line"/>
      <point x="325" y="310"/>
      <point x="376" y="369"/>
      <point x="412" y="369" type="curve" smooth="yes"/>
      <point x="437" y="369"/>
      <point x="447" y="360" name=".hr01"/>
      <point x="447" y="333" type="curve" smooth="yes"/>
      <point x="447" y="319"/>
      <point x="446" y="309"/>
      <point x="438" y="275" type="curve" smooth="yes"/>
      <point x="401" y="115" type="line" smooth="yes"/>
      <point x="396" y="93"/>
      <point x="392" y="65"/>
      <point x="392" y="44" type="curve" smooth="yes"/>
      <point x="392" y="11"/>
      <point x="407" y="-10"/>
      <point x="443" y="-10" type="curve" smooth="yes"/>
      <point x="513" y="-10"/>
      <point x="582" y="23"/>
      <point x="628" y="82" type="curve"/>
      <point x="625" y="91"/>
      <point x="613" y="110"/>
      <point x="599" y="110" type="curve"/>
      <point x="573" y="80"/>
      <point x="539" y="63"/>
      <point x="529" y="63" type="curve" smooth="yes"/>
      <point x="522" y="63"/>
      <point x="516" y="69"/>
      <point x="516" y="77" type="curve" smooth="yes"/>
      <point x="516" y="88"/>
      <point x="521" y="108"/>
      <point x="525" y="124" type="curve" smooth="yes"/>
      <point x="563" y="283" type="line" smooth="yes"/>
      <point x="571" y="318"/>
      <point x="576" y="341"/>
      <point x="576" y="359" type="curve" smooth="yes"/>
      <point x="576" y="412"/>
      <point x="536" y="439"/>
      <point x="487" y="439" type="curve" smooth="yes"/>
      <point x="423" y="439"/>
      <point x="370" y="418"/>
      <point x="278" y="310" type="curve"/>
    </contour>
    <contour>
      <point x="155" y="310" type="line"/>
      <point x="276" y="310" type="line"/>
      <point x="278" y="319" type="line" smooth="yes"/>
      <point x="287" y="359"/>
      <point x="299" y="401"/>
      <point x="299" y="418" type="curve" smooth="yes"/>
      <point x="299" y="430"/>
      <point x="293" y="436" name=".hr02"/>
      <point x="282" y="436" type="curve"/>
      <point x="251" y="431"/>
      <point x="154" y="423"/>
      <point x="106" y="423" type="curve"/>
      <point x="99" y="415"/>
      <point x="98" y="393"/>
      <point x="104" y="384" type="curve"/>
      <point x="144" y="381" type="line" smooth="yes"/>
      <point x="156" y="380"/>
      <point x="163" y="371"/>
      <point x="163" y="359" type="curve" smooth="yes"/>
      <point x="163" y="352"/>
      <point x="162" y="342"/>
      <point x="160" y="332" type="curve" smooth="yes"/>
    </contour>
    <contour>
      <point x="91" y="13" type="curve" smooth="yes"/>
      <point x="91" y="-4"/>
      <point x="110" y="-10"/>
      <point x="153" y="-10" type="curve" smooth="yes"/>
      <point x="200" y="-10"/>
      <point x="209" y="11"/>
      <point x="218" y="48" type="curve" smooth="yes"/>
      <point x="224" y="72" type="line"/>
      <point x="102" y="72" type="line"/>
      <point x="96" y="45" type="line" smooth="yes"/>
      <point x="93" y="30" name=".hr03"/>
      <point x="91" y="18"/>
    </contour>
  </outline>
  <guideline angle="0" x="0" y="72"/>
  <guideline angle="76.31" x="224" y="72"/>
</glyph>
<glyph name="o" format="2">
  <advance width="479"/>
  <unicode hex="006F"/>
  <anchor x="334" y="500" name="top"/>
  <anchor x="303" y="10" name="b.ogonek"/>
  <anchor x="224" y="-60" name="b.minus-60"/>
  <anchor x="434.874" y="393" name="t.horn"/>
  <outline>
    <contour>
      <point x="333" y="439" type="line"/>
      <point x="460" y="439"/>
      <point x="499" y="331"/>
      <point x="499" y="267" type="curve" smooth="yes"/>
      <point x="499" y="126"/>
      <point x="368" y="-10"/>
      <point x="228" y="-10" type="curve"/>
      <point x="278" y="42" type="line"/>
      <point x="329" y="42"/>
      <point x="368" y="127"/>
      <point x="368" y="239" type="curve" smooth="yes"/>
      <point x="368" y="359"/>
      <point x="310" y="387"/>
      <point x="283" y="387" type="curve"/>
    </contour>
    <contour>
      <point x="228" y="-10" type="line"/>
      <point x="101" y="-10"/>
      <point x="62" y="98"/>
      <point x="62" y="162" type="curve" smooth="yes"/>
      <point x="62" y="303"/>
      <point x="193" y="439"/>
      <point x="333" y="439" type="curve"/>
      <point x="283" y="387" type="line"/>
      <point x="232" y="387"/>
      <point x="193" y="302"/>
      <point x="193" y="190" type="curve" smooth="yes"/>
      <point x="193" y="70"/>
      <point x="251" y="42"/>
      <point x="278" y="42" type="curve"/>
    </contour>
  </outline>
  <guideline angle="0" x="0" y="500"/>
  <guideline angle="78" x="228" y="3"/>
  <guideline angle="90" x="67" y="0"/>
  <guideline angle="90" x="501" y="0"/>
  <guideline angle="90" x="284" y="0"/>
  <guideline angle="0" x="0" y="214"/>
  <guideline angle="0" x="0" y="439"/>
  <guideline angle="0" x="0" y="-10"/>
  <guideline angle="12.0649" x="198" y="223"/>
</glyph>
<glyph name="p" format="2">
  <advance width="529"/>
  <unicode hex="0070"/>
  <anchor x="377" y="500" name="top"/>
  <anchor x="299" y="-60" name="b.minus-60"/>
  <outline>
    <contour>
      <point x="277" y="321" type="line" smooth="yes"/>
      <point x="286" y="363"/>
      <point x="291" y="382"/>
      <point x="302" y="417" type="curve"/>
      <point x="302" y="430"/>
      <point x="292" y="436"/>
      <point x="279" y="436" type="curve"/>
      <point x="235" y="423"/>
      <point x="145" y="413"/>
      <point x="98" y="410" type="curve"/>
      <point x="93" y="403"/>
      <point x="90" y="386"/>
      <point x="93" y="376" type="curve"/>
      <point x="139" y="373"/>
      <point x="161" y="362"/>
      <point x="161" y="342" type="curve" smooth="yes"/>
      <point x="161" y="332"/>
      <point x="159" y="318"/>
      <point x="155" y="301" type="curve" smooth="yes"/>
      <point x="55" y="-151" type="line" smooth="yes"/>
      <point x="49" y="-179"/>
      <point x="34" y="-191"/>
      <point x="2" y="-196" type="curve" smooth="yes"/>
      <point x="-17" y="-199" type="line" smooth="yes"/>
      <point x="-22" y="-200"/>
      <point x="-27" y="-201"/>
      <point x="-27" y="-207" type="curve" smooth="yes"/>
      <point x="-27" y="-236" type="line"/>
      <point x="-25" y="-238" type="line"/>
      <point x="-25" y="-238"/>
      <point x="46.2019" y="-233"/>
      <point x="93.2126" y="-233" type="curve" smooth="yes"/>
      <point x="122" y="-233" type="line" smooth="yes"/>
      <point x="161" y="-233"/>
      <point x="229" y="-235"/>
      <point x="229" y="-235" type="curve"/>
      <point x="231" y="-233" type="line"/>
      <point x="231" y="-203" type="line" smooth="yes"/>
      <point x="231" y="-198"/>
      <point x="229" y="-196"/>
      <point x="225" y="-195" type="curve" smooth="yes"/>
      <point x="206" y="-192" type="line" smooth="yes"/>
      <point x="193" y="-190"/>
      <point x="172" y="-187"/>
      <point x="172" y="-163" type="curve" smooth="yes"/>
      <point x="172" y="-160"/>
      <point x="172" y="-156"/>
      <point x="173" y="-151" type="curve" smooth="yes"/>
    </contour>
    <contour>
      <point x="244" y="322" type="line"/>
      <point x="288" y="361"/>
      <point x="342" y="388"/>
      <point x="377" y="388" type="curve" smooth="yes"/>
      <point x="419" y="388"/>
      <point x="427" y="322"/>
      <point x="427" y="273" type="curve" smooth="yes"/>
      <point x="427" y="208"/>
      <point x="382" y="32"/>
      <point x="295" y="32" type="curve" smooth="yes"/>
      <point x="265" y="32"/>
      <point x="233" y="51"/>
      <point x="211" y="91" type="curve"/>
      <point x="199" y="36" type="line"/>
      <point x="228" y="5"/>
      <point x="246" y="-10"/>
      <point x="283" y="-10" type="curve" smooth="yes"/>
      <point x="430" y="-10"/>
      <point x="555" y="149"/>
      <point x="555" y="289" type="curve" smooth="yes"/>
      <point x="555" y="383"/>
      <point x="517" y="439"/>
      <point x="427" y="439" type="curve" smooth="yes"/>
      <point x="375" y="439"/>
      <point x="306" y="410"/>
      <point x="254" y="365" type="curve"/>
    </contour>
  </outline>
  <guideline angle="77.5741" x="244" y="322"/>
</glyph>
<glyph name="r" format="2">
	<unicode hex="0072"/>
	<advance width="426"/>
	<outline>
		<contour>
			<point x="97" y="17" type="curve" smooth="yes"/>
			<point x="97" y="-7"/>
			<point x="115" y="-10"/>
			<point x="163" y="-10" type="curve" smooth="yes"/>
			<point x="222" y="-10"/>
			<point x="221" y="29"/>
			<point x="232" y="72" type="curve" smooth="yes"/>
			<point x="270" y="228" type="line"/>
			<point x="318" y="315"/>
			<point x="346" y="351"/>
			<point x="374" y="351" type="curve" smooth="yes"/>
			<point x="386" y="351"/>
			<point x="392" y="345"/>
			<point x="399" y="336" type="curve"/>
			<point x="408" y="326"/>
			<point x="423" y="310"/>
			<point x="440" y="310" type="curve" smooth="yes"/>
			<point x="472" y="310"/>
			<point x="494" y="346"/>
			<point x="494" y="380" type="curve" smooth="yes"/>
			<point x="494" y="415"/>
			<point x="467" y="439"/>
			<point x="432" y="439" type="curve" smooth="yes"/>
			<point x="387" y="439"/>
			<point x="330" y="402"/>
			<point x="286" y="309" type="curve"/>
			<point x="283" y="311" type="line"/>
			<point x="286" y="325" type="line" smooth="yes"/>
			<point x="294" y="362"/>
			<point x="296" y="396"/>
			<point x="296" y="412" type="curve" smooth="yes"/>
			<point x="296" y="426"/>
			<point x="285" y="436"/>
			<point x="272" y="436" type="curve"/>
			<point x="236" y="429"/>
			<point x="153" y="423"/>
			<point x="106" y="423" type="curve"/>
			<point x="99" y="415"/>
			<point x="98" y="394"/>
			<point x="104" y="385" type="curve"/>
			<point x="144" y="382" type="line" smooth="yes"/>
			<point x="158" y="381"/>
			<point x="162" y="364"/>
			<point x="162" y="352" type="curve" smooth="yes"/>
			<point x="162" y="335"/>
			<point x="154" y="279"/>
			<point x="147" y="243" type="curve" smooth="yes"/>
			<point x="110" y="72" type="line" smooth="yes"/>
			<point x="106" y="52"/>
			<point x="97" y="27"/>
		</contour>
	</outline>
	<anchor name="t.uni0302" x="307" y="500"/>
	<anchor name="b.minus-60" x="162" y="-60"/>
</glyph>
<glyph name="s" format="2">
	<unicode hex="0073"/>
	<advance width="417"/>
	<outline>
		<contour>
			<point x="65" y="82" type="curve" smooth="yes"/>
			<point x="65" y="29"/>
			<point x="132" y="-10"/>
			<point x="221" y="-10" type="curve" smooth="yes"/>
			<point x="327" y="-10"/>
			<point x="405" y="46"/>
			<point x="405" y="122" type="curve" smooth="yes"/>
			<point x="405" y="173"/>
			<point x="371" y="218"/>
			<point x="292" y="262" type="curve" smooth="yes"/>
			<point x="260" y="280" type="line" smooth="yes"/>
			<point x="232" y="296"/>
			<point x="214" y="323"/>
			<point x="214" y="347" type="curve" smooth="yes"/>
			<point x="214" y="375"/>
			<point x="239" y="397"/>
			<point x="270" y="397" type="curve" smooth="yes"/>
			<point x="341" y="397"/>
			<point x="313" y="298"/>
			<point x="374" y="298" type="curve" smooth="yes"/>
			<point x="403" y="298"/>
			<point x="426" y="322"/>
			<point x="426" y="351" type="curve" smooth="yes"/>
			<point x="426" y="398"/>
			<point x="365" y="439"/>
			<point x="297" y="439" type="curve" smooth="yes"/>
			<point x="190" y="439"/>
			<point x="122" y="389"/>
			<point x="122" y="311" type="curve" smooth="yes"/>
			<point x="122" y="275"/>
			<point x="155" y="230"/>
			<point x="208" y="197" type="curve" smooth="yes"/>
			<point x="234" y="181" type="line" smooth="yes"/>
			<point x="279" y="153"/>
			<point x="300" y="124"/>
			<point x="300" y="81" type="curve" smooth="yes"/>
			<point x="300" y="55"/>
			<point x="272" y="32"/>
			<point x="239" y="32" type="curve" smooth="yes"/>
			<point x="160" y="32"/>
			<point x="173" y="138"/>
			<point x="113" y="138" type="curve" smooth="yes"/>
			<point x="87" y="138"/>
			<point x="65" y="113"/>
		</contour>
	</outline>
	<anchor name="t.uni0302" x="300" y="500"/>
	<anchor name="b.cedilla" x="230" y="10"/>
	<anchor name="b.minus-60" x="214" y="-60"/>
</glyph>
<glyph name="u" format="2">
  <advance width="616"/>
  <unicode hex="0075"/>
  <anchor x="393" y="500" name="t.uni0302"/>
  <anchor x="518" y="10" name="b.ogonek"/>
  <anchor x="277" y="-60" name="b.minus-60"/>
  <outline>
    <contour>
      <point x="428" y="225" type="line"/>
      <point x="362" y="131"/>
      <point x="317" y="76"/>
      <point x="277" y="76" type="curve" smooth="yes"/>
      <point x="252" y="76"/>
      <point x="242" y="97"/>
      <point x="242" y="123" type="curve" smooth="yes"/>
      <point x="242" y="134"/>
      <point x="244" y="146"/>
      <point x="247" y="158" type="curve" smooth="yes"/>
      <point x="293" y="356" type="line" smooth="yes"/>
      <point x="297" y="371"/>
      <point x="301" y="388"/>
      <point x="301" y="400" type="curve" smooth="yes"/>
      <point x="301" y="429"/>
      <point x="279" y="443"/>
      <point x="238" y="443" type="curve" smooth="yes"/>
      <point x="172" y="443"/>
      <point x="100" y="407"/>
      <point x="54" y="348" type="curve"/>
      <point x="57" y="339"/>
      <point x="72" y="323"/>
      <point x="86" y="323" type="curve"/>
      <point x="112" y="353"/>
      <point x="146" y="370"/>
      <point x="156" y="370" type="curve" smooth="yes"/>
      <point x="164" y="370"/>
      <point x="167" y="362"/>
      <point x="167" y="353" type="curve" smooth="yes"/>
      <point x="167" y="343"/>
      <point x="163" y="322"/>
      <point x="160" y="309" type="curve" smooth="yes"/>
      <point x="122" y="150" type="line" smooth="yes"/>
      <point x="116" y="125"/>
      <point x="114" y="101"/>
      <point x="114" y="76" type="curve" smooth="yes"/>
      <point x="114" y="19"/>
      <point x="160" y="-6"/>
      <point x="210" y="-6" type="curve" smooth="yes"/>
      <point x="258" y="-6"/>
      <point x="317" y="19"/>
      <point x="420" y="145" type="curve"/>
    </contour>
    <contour>
      <point x="404" y="122" type="line"/>
      <point x="398" y="103"/>
      <point x="393" y="76"/>
      <point x="393" y="53" type="curve" smooth="yes"/>
      <point x="393" y="18"/>
      <point x="405" y="-10"/>
      <point x="446" y="-10" type="curve" smooth="yes"/>
      <point x="516" y="-10"/>
      <point x="578" y="23"/>
      <point x="624" y="82" type="curve"/>
      <point x="621" y="91"/>
      <point x="609" y="110"/>
      <point x="595" y="110" type="curve"/>
      <point x="569" y="80"/>
      <point x="535" y="63"/>
      <point x="525" y="63" type="curve" smooth="yes"/>
      <point x="517" y="63"/>
      <point x="514" y="71"/>
      <point x="514" y="81" type="curve" smooth="yes"/>
      <point x="514" y="90"/>
      <point x="516" y="101"/>
      <point x="521" y="124" type="curve" smooth="yes"/>
      <point x="573" y="361" type="line" smooth="yes"/>
      <point x="576" y="377"/>
      <point x="582" y="404"/>
      <point x="582" y="411" type="curve" smooth="yes"/>
      <point x="582" y="436"/>
      <point x="561" y="443"/>
      <point x="526" y="443" type="curve" smooth="yes"/>
      <point x="482" y="443"/>
      <point x="467" y="428"/>
      <point x="459" y="394" type="curve" smooth="yes"/>
      <point x="393" y="123" type="line"/>
    </contour>
  </outline>
  <guideline angle="256.31" x="451" y="361"/>
  <guideline angle="76.9792" x="247" y="158"/>
</glyph>
<glyph name="x" format="2">
  <advance width="517"/>
  <unicode hex="0078"/>
  <outline>
    <contour>
      <point x="197" y="334" type="curve"/>
      <point x="197" y="334"/>
      <point x="202" y="323"/>
      <point x="209" y="307" type="curve" smooth="yes"/>
      <point x="222" y="277"/>
      <point x="242" y="230"/>
      <point x="254" y="196" type="curve"/>
      <point x="234" y="161"/>
      <point x="204" y="124"/>
      <point x="180" y="92" type="curve" smooth="yes"/>
      <point x="173" y="83"/>
      <point x="167" y="76"/>
      <point x="162" y="72" type="curve" smooth="yes"/>
      <point x="157" y="68"/>
      <point x="153" y="66"/>
      <point x="150" y="66" type="curve" smooth="yes"/>
      <point x="146" y="66"/>
      <point x="142" y="68"/>
      <point x="137" y="70" type="curve"/>
      <point x="130" y="74"/>
      <point x="121" y="80"/>
      <point x="111" y="84" type="curve"/>
      <point x="101" y="89"/>
      <point x="89" y="93" name=".hr01"/>
      <point x="75" y="93" type="curve" smooth="yes"/>
      <point x="38" y="93"/>
      <point x="27" y="72"/>
      <point x="27" y="44" type="curve" smooth="yes"/>
      <point x="27" y="40"/>
      <point x="27" y="36"/>
      <point x="28" y="33" type="curve"/>
      <point x="34" y="9"/>
      <point x="61" y="-6"/>
      <point x="86" y="-9" type="curve"/>
      <point x="90" y="-10"/>
      <point x="93" y="-10"/>
      <point x="97" y="-10" type="curve" smooth="yes"/>
      <point x="146" y="-10"/>
      <point x="162" y="-1"/>
      <point x="217" y="61" type="curve" smooth="yes"/>
      <point x="230" y="76"/>
      <point x="253" y="107"/>
      <point x="271" y="134" type="curve"/>
      <point x="290" y="76" type="line" smooth="yes"/>
      <point x="294" y="64"/>
      <point x="298" y="52"/>
      <point x="303" y="41" type="curve" smooth="yes"/>
      <point x="317" y="10"/>
      <point x="333" y="-10"/>
      <point x="364" y="-10" type="curve" smooth="yes"/>
      <point x="367" y="-10"/>
      <point x="369" y="-10"/>
      <point x="372" y="-10" type="curve"/>
      <point x="412" y="-9"/>
      <point x="455" y="4"/>
      <point x="512" y="67" type="curve"/>
      <point x="504" y="76"/>
      <point x="496" y="84"/>
      <point x="488" y="93" type="curve"/>
      <point x="464" y="69"/>
      <point x="449" y="66" name=".hr02"/>
      <point x="434" y="66" type="curve" smooth="yes"/>
      <point x="426" y="66"/>
      <point x="419" y="74"/>
      <point x="412" y="90" type="curve" smooth="yes"/>
      <point x="350" y="234" type="line"/>
      <point x="425" y="336" type="line" smooth="yes"/>
      <point x="436" y="351"/>
      <point x="447" y="354"/>
      <point x="451" y="354" type="curve" smooth="yes"/>
      <point x="455" y="354"/>
      <point x="468" y="350"/>
      <point x="476" y="345" type="curve"/>
      <point x="482" y="341"/>
      <point x="492" y="337"/>
      <point x="502" y="334" type="curve" smooth="yes"/>
      <point x="509" y="332"/>
      <point x="516" y="331" name=".hr03"/>
      <point x="522" y="331" type="curve" smooth="yes"/>
      <point x="529" y="331"/>
      <point x="535" y="333"/>
      <point x="540" y="336" type="curve" smooth="yes"/>
      <point x="557" y="346"/>
      <point x="568" y="368"/>
      <point x="568" y="390" type="curve" smooth="yes"/>
      <point x="568" y="394"/>
      <point x="568" y="397"/>
      <point x="567" y="400" type="curve"/>
      <point x="561" y="422"/>
      <point x="536" y="435"/>
      <point x="510" y="437" type="curve"/>
      <point x="506" y="438"/>
      <point x="503" y="438"/>
      <point x="499" y="438" type="curve" smooth="yes"/>
      <point x="442" y="438"/>
      <point x="408" y="401"/>
      <point x="374" y="353" type="curve" smooth="yes"/>
      <point x="369" y="346"/>
      <point x="365" y="340"/>
      <point x="360" y="333" type="curve"/>
      <point x="360" y="333"/>
      <point x="344" y="311"/>
      <point x="336" y="299" type="curve"/>
      <point x="310" y="372" type="line" smooth="yes"/>
      <point x="291" y="423"/>
      <point x="284" y="439" name=".hr04"/>
      <point x="259" y="439" type="curve" smooth="yes"/>
      <point x="253" y="439"/>
      <point x="245" y="438" name=".hr05"/>
      <point x="236" y="435" type="curve"/>
      <point x="193" y="424"/>
      <point x="125" y="390"/>
      <point x="95" y="373" type="curve"/>
      <point x="96" y="362"/>
      <point x="104" y="342"/>
      <point x="112" y="334" type="curve" name=".hr06"/>
      <point x="124" y="340"/>
      <point x="147" y="351"/>
      <point x="168" y="351" type="curve" smooth="yes"/>
      <point x="171" y="351"/>
      <point x="174" y="351"/>
      <point x="177" y="350" type="curve"/>
      <point x="186" y="348"/>
      <point x="193" y="342"/>
    </contour>
  </outline>
</glyph>
<glyph name="bar" format="2">
  <advance width="243"/>
  <unicode hex="007C"/>
  <outline>
    <contour>
      <point x="196" y="-240" type="curve"/>
      <point x="196" y="720" type="line"/>
      <point x="179" y="726"/>
      <point x="159" y="726"/>
      <point x="139" y="720" type="curve"/>
      <point x="139" y="-240" type="line"/>
      <point x="157" y="-246"/>
      <point x="176" y="-246"/>
    </contour>
  </outline>
  <guideline angle="258" x="107" y="698"/>
  <guideline angle="77.8269" x="196" y="720"/>
  <guideline angle="0" x="0" y="-240"/>
  <guideline angle="0" x="0" y="720"/>
  <guideline angle="90" x="139" y="0"/>
  <guideline angle="90" x="196" y="0"/>
</glyph>
<glyph name="dieresis" format="2">
  <advance width="410"/>
  <unicode hex="00A8"/>
  <outline>
    <contour>
      <point x="180" y="569" type="curve" smooth="yes"/>
      <point x="180" y="541"/>
      <point x="201" y="519"/>
      <point x="228" y="519" type="curve" smooth="yes"/>
      <point x="260" y="519"/>
      <point x="283" y="546"/>
      <point x="283" y="577" type="curve" smooth="yes"/>
      <point x="283" y="606"/>
      <point x="264" y="628"/>
      <point x="236" y="628" type="curve" smooth="yes"/>
      <point x="204" y="628"/>
      <point x="180" y="600"/>
    </contour>
    <contour>
      <point x="355" y="569" type="curve" smooth="yes"/>
      <point x="355" y="541"/>
      <point x="374" y="519"/>
      <point x="403" y="519" type="curve" smooth="yes"/>
      <point x="434" y="519"/>
      <point x="458" y="547"/>
      <point x="458" y="577" type="curve" smooth="yes"/>
      <point x="458" y="606"/>
      <point x="438" y="628"/>
      <point x="410" y="628" type="curve" smooth="yes"/>
      <point x="378" y="628"/>
      <point x="355" y="600"/>
    </contour>
  </outline>
</glyph>
<glyph name="ordfeminine" format="2">
	<unicode hex="00AA"/>
	<advance width="365"/>
	<outline>
		<contour>
			<point x="397" y="639.929" type="curve" smooth="yes"/>
			<point x="384.539" y="639.929"/>
			<point x="372.48" y="636.821"/>
			<point x="360" y="636.821" type="curve" smooth="yes"/>
			<point x="346.472" y="636.821"/>
			<point x="333.846" y="642"/>
			<point x="320" y="642" type="curve" smooth="yes"/>
			<point x="220.557" y="642"/>
			<point x="124" y="547.158"/>
			<point x="124" y="446.852" type="curve" smooth="yes"/>
			<point x="124" y="402.594"/>
			<point x="139.381" y="359"/>
			<point x="192" y="359" type="curve" smooth="yes"/>
			<point x="219" y="359"/>
			<point x="258" y="389"/>
			<point x="296" y="444.862" type="curve"/>
			<point x="298" y="443.867" type="line"/>
			<point x="293.265" y="424.083"/>
			<point x="291" y="404.227"/>
			<point x="291" y="384" type="curve" smooth="yes"/>
			<point x="291" y="367.882"/>
			<point x="309.342" y="358.594"/>
			<point x="323.291" y="358.465" type="curve" smooth="yes"/>
			<point x="367.585" y="358.055"/>
			<point x="408.165" y="382.94"/>
			<point x="435" y="417" type="curve"/>
			<point x="433" y="422.974"/>
			<point x="426" y="433.918"/>
			<point x="417" y="433.918" type="curve"/>
			<point x="401" y="415"/>
			<point x="379" y="405"/>
			<point x="373" y="405" type="curve" smooth="yes"/>
			<point x="368" y="405"/>
			<point x="365.738" y="409.005"/>
			<point x="366" y="416" type="curve" smooth="yes"/>
			<point x="366.15" y="419.99"/>
			<point x="369" y="433.918"/>
			<point x="371" y="442.872" type="curve" smooth="yes"/>
			<point x="397" y="566.24" type="line" smooth="yes"/>
			<point x="402" y="591.112"/>
			<point x="410" y="614.036"/>
			<point x="410" y="625.429" type="curve" smooth="yes"/>
			<point x="410" y="634.75"/>
			<point x="405" y="639.929"/>
		</contour>
		<contour>
			<point x="307" y="506.546" type="curve"/>
			<point x="276" y="449.837"/>
			<point x="251" y="418"/>
			<point x="231" y="418" type="curve" smooth="yes"/>
			<point x="211" y="418"/>
			<point x="203" y="432.923"/>
			<point x="203" y="451.827" type="curve" smooth="yes"/>
			<point x="203" y="505.114"/>
			<point x="241.308" y="613"/>
			<point x="299" y="613" type="curve" smooth="yes"/>
			<point x="307.53" y="613"/>
			<point x="323.811" y="608.463"/>
			<point x="327" y="602.056" type="curve"/>
			<point x="328.387" y="584.879"/>
			<point x="318.76" y="538"/>
		</contour>
	</outline>
</glyph>
<glyph name="uni00B2" format="2">
  <advance width="312"/>
  <unicode hex="00B2"/>
  <outline>
    <contour>
      <point x="177" y="704" type="curve" smooth="yes"/>
      <point x="177" y="691"/>
      <point x="185" y="683"/>
      <point x="203" y="683" type="curve" smooth="yes"/>
      <point x="223" y="683"/>
      <point x="252" y="700"/>
      <point x="252" y="723" type="curve" smooth="yes"/>
      <point x="252" y="756"/>
      <point x="260" y="779"/>
      <point x="301" y="779" type="curve" smooth="yes"/>
      <point x="324" y="779"/>
      <point x="328" y="758"/>
      <point x="328" y="740" type="curve" smooth="yes"/>
      <point x="328" y="697"/>
      <point x="307" y="660"/>
      <point x="273" y="633" type="curve" smooth="yes"/>
      <point x="243" y="609" type="line" smooth="yes"/>
      <point x="166" y="547"/>
      <point x="138" y="514"/>
      <point x="125" y="464" type="curve"/>
      <point x="348" y="464" type="line"/>
      <point x="358" y="496"/>
      <point x="379" y="540"/>
      <point x="399" y="577" type="curve"/>
      <point x="396" y="581"/>
      <point x="385" y="583"/>
      <point x="374" y="583" type="curve"/>
      <point x="358" y="553"/>
      <point x="328" y="521"/>
      <point x="299" y="521" type="curve" smooth="yes"/>
      <point x="222" y="521" type="line"/>
      <point x="227" y="538"/>
      <point x="245" y="555"/>
      <point x="291" y="592" type="curve" smooth="yes"/>
      <point x="305" y="603" type="line" smooth="yes"/>
      <point x="392" y="671"/>
      <point x="413" y="695"/>
      <point x="413" y="743" type="curve" smooth="yes"/>
      <point x="413" y="784"/>
      <point x="379" y="808"/>
      <point x="321" y="808" type="curve" smooth="yes"/>
      <point x="265" y="808"/>
      <point x="177" y="769"/>
    </contour>
  </outline>
  <guideline angle="0" x="0" y="820"/>
  <guideline angle="0" x="0" y="460"/>
  <guideline angle="0" x="0" y="816"/>
  <guideline angle="0" x="0" y="464"/>
</glyph>
<glyph name="uni00B3" format="2">
  <advance width="320"/>
  <unicode hex="00B3"/>
  <outline>
    <contour>
      <point x="123" y="504" type="curve" smooth="yes"/>
      <point x="123" y="469"/>
      <point x="176" y="460"/>
      <point x="220" y="460" type="curve" smooth="yes"/>
      <point x="298" y="460"/>
      <point x="410" y="511"/>
      <point x="410" y="603" type="curve" smooth="yes"/>
      <point x="410" y="633"/>
      <point x="390" y="657"/>
      <point x="355" y="669" type="curve"/>
      <point x="393" y="684"/>
      <point x="417" y="716"/>
      <point x="417" y="753" type="curve" smooth="yes"/>
      <point x="417" y="788"/>
      <point x="381" y="810"/>
      <point x="326" y="810" type="curve" smooth="yes"/>
      <point x="250" y="810"/>
      <point x="179" y="768"/>
      <point x="179" y="723" type="curve" smooth="yes"/>
      <point x="179" y="714"/>
      <point x="183" y="701"/>
      <point x="205" y="701" type="curve" smooth="yes"/>
      <point x="236" y="701"/>
      <point x="246" y="719"/>
      <point x="250" y="739" type="curve" smooth="yes"/>
      <point x="255" y="764"/>
      <point x="276" y="780"/>
      <point x="304" y="780" type="curve" smooth="yes"/>
      <point x="321" y="780"/>
      <point x="335" y="769"/>
      <point x="335" y="748" type="curve" smooth="yes"/>
      <point x="335" y="696"/>
      <point x="274" y="663"/>
      <point x="230" y="657" type="curve"/>
      <point x="224" y="627" type="line"/>
      <point x="237" y="630"/>
      <point x="248" y="631"/>
      <point x="257" y="631" type="curve" smooth="yes"/>
      <point x="291" y="631"/>
      <point x="317" y="622"/>
      <point x="317" y="590" type="curve" smooth="yes"/>
      <point x="317" y="543"/>
      <point x="271" y="489"/>
      <point x="233" y="489" type="curve" smooth="yes"/>
      <point x="187" y="489"/>
      <point x="205" y="546"/>
      <point x="165" y="546" type="curve" smooth="yes"/>
      <point x="142" y="546"/>
      <point x="123" y="525"/>
    </contour>
  </outline>
  <guideline angle="0" x="0" y="820"/>
  <guideline angle="0" x="0" y="460"/>
  <guideline angle="0" x="0" y="816"/>
  <guideline angle="0" x="0" y="464"/>
</glyph>
<glyph name="acute" format="2">
	<unicode hex="00B4"/>
	<advance width="341"/>
	<outline>
		<contour>
			<point x="279" y="669" type="curve"/>
			<point x="177" y="538" type="line" smooth="yes"/>
			<point x="170" y="529"/>
			<point x="167" y="520"/>
			<point x="166" y="514" type="curve" smooth="yes"/>
			<point x="165" y="508"/>
			<point x="172" y="500"/>
			<point x="180" y="500" type="curve" smooth="yes"/>
			<point x="190" y="500"/>
			<point x="205" y="504"/>
			<point x="220" y="516" type="curve" smooth="yes"/>
			<point x="355" y="624" type="line"/>
			<point x="355" y="645" type="line"/>
			<point x="341" y="659"/>
			<point x="317" y="671"/>
			<point x="295" y="671" type="curve" smooth="yes"/>
			<point x="290" y="671"/>
			<point x="282" y="670"/>
		</contour>
	</outline>
	<anchor name="_top" x="260" y="500"/>
	<anchor name="_m.uni0302" x="220" y="500"/>
</glyph>
<glyph name="mu" format="2">
  <advance width="589"/>
  <unicode hex="00B5"/>
  <anchor x="532" y="19" name="b.uni0321_5"/>
  <outline>
    <contour>
      <point x="121" y="137" type="line" smooth="yes"/>
      <point x="96" y="19"/>
      <point x="71" y="-95"/>
      <point x="34" y="-199" type="curve"/>
      <point x="46" y="-233" type="line"/>
      <point x="163" y="-187" type="line"/>
      <point x="172" y="-165"/>
      <point x="182" y="-126"/>
      <point x="187" y="-95" type="curve" smooth="yes"/>
      <point x="203" y="-3" type="line"/>
      <point x="215" y="-9"/>
      <point x="232" y="-10"/>
      <point x="245" y="-10" type="curve" smooth="yes"/>
      <point x="297" y="-10"/>
      <point x="345" y="26"/>
      <point x="381" y="67" type="curve"/>
      <point x="386" y="67" type="line"/>
      <point x="383" y="58"/>
      <point x="382" y="40"/>
      <point x="382" y="33" type="curve" smooth="yes"/>
      <point x="382" y="2"/>
      <point x="414" y="-10"/>
      <point x="441" y="-10" type="curve" smooth="yes"/>
      <point x="493" y="-10"/>
      <point x="538" y="11"/>
      <point x="580" y="46" type="curve"/>
      <point x="583" y="58"/>
      <point x="579" y="64"/>
      <point x="569" y="74" type="curve"/>
      <point x="555" y="64"/>
      <point x="545" y="60"/>
      <point x="527" y="60" type="curve" smooth="yes"/>
      <point x="512" y="60"/>
      <point x="505" y="68"/>
      <point x="505" y="82" type="curve" smooth="yes"/>
      <point x="505" y="93"/>
      <point x="507" y="107"/>
      <point x="511" y="127" type="curve" smooth="yes"/>
      <point x="565" y="379" type="line" smooth="yes"/>
      <point x="566" y="387"/>
      <point x="567" y="394"/>
      <point x="567" y="400" type="curve" smooth="yes"/>
      <point x="567" y="433"/>
      <point x="544" y="442"/>
      <point x="517" y="442" type="curve" smooth="yes"/>
      <point x="476" y="442"/>
      <point x="453" y="429"/>
      <point x="443" y="383" type="curve" smooth="yes"/>
      <point x="386" y="112" type="line"/>
      <point x="353" y="76"/>
      <point x="307" y="53"/>
      <point x="266" y="53" type="curve" smooth="yes"/>
      <point x="247" y="53"/>
      <point x="230" y="78"/>
      <point x="241" y="129" type="curve" smooth="yes"/>
      <point x="295" y="379" type="line" smooth="yes"/>
      <point x="296" y="386"/>
      <point x="297" y="393"/>
      <point x="297" y="399" type="curve" smooth="yes"/>
      <point x="297" y="430"/>
      <point x="276" y="442"/>
      <point x="247" y="442" type="curve" smooth="yes"/>
      <point x="194" y="442"/>
      <point x="183" y="426"/>
      <point x="174" y="383" type="curve" smooth="yes"/>
    </contour>
  </outline>
  <guideline angle="77.9694" x="248" y="160"/>
  <guideline angle="257.863" x="161" y="323"/>
  <guideline angle="258.064" x="438" y="358"/>
  <guideline angle="77.9223" x="511" y="127"/>
</glyph>
<glyph name="uni00B9" format="2">
  <advance width="274"/>
  <unicode hex="00B9"/>
  <outline>
    <contour>
      <point x="245" y="739" type="curve" smooth="yes"/>
      <point x="256" y="739"/>
      <point x="257" y="730"/>
      <point x="250" y="698" type="curve" smooth="yes"/>
      <point x="218" y="548" type="line" smooth="yes"/>
      <point x="208" y="499"/>
      <point x="182" y="495"/>
      <point x="139" y="492" type="curve"/>
      <point x="133" y="485"/>
      <point x="130" y="473"/>
      <point x="133" y="463" type="curve"/>
      <point x="161" y="464"/>
      <point x="208" y="464"/>
      <point x="241" y="464" type="curve" smooth="yes"/>
      <point x="277" y="464"/>
      <point x="306" y="464"/>
      <point x="334" y="463" type="curve"/>
      <point x="338" y="469"/>
      <point x="343" y="485"/>
      <point x="340" y="492" type="curve"/>
      <point x="317" y="492"/>
      <point x="298" y="496"/>
      <point x="298" y="524" type="curve" smooth="yes"/>
      <point x="298" y="532"/>
      <point x="298" y="540"/>
      <point x="300" y="548" type="curve"/>
      <point x="337" y="721" type="line" smooth="yes"/>
      <point x="344" y="752"/>
      <point x="352" y="783"/>
      <point x="363" y="813" type="curve"/>
      <point x="361" y="815"/>
      <point x="356" y="816"/>
      <point x="348" y="816" type="curve" smooth="yes"/>
      <point x="344" y="816"/>
      <point x="332" y="815"/>
      <point x="327" y="813" type="curve"/>
      <point x="279" y="787"/>
      <point x="234" y="771"/>
      <point x="186" y="757" type="curve"/>
      <point x="183" y="745"/>
      <point x="182" y="730"/>
      <point x="188" y="724" type="curve"/>
      <point x="214" y="733"/>
      <point x="233" y="739"/>
    </contour>
  </outline>
  <guideline angle="0" x="0" y="820"/>
  <guideline angle="0" x="0" y="460"/>
  <guideline angle="0" x="0" y="816"/>
  <guideline angle="0" x="0" y="464"/>
</glyph>
<glyph name="onequarter" format="2">
  <advance width="671"/>
  <unicode hex="00BC"/>
  <outline>
    <component base="uni2074" xOffset="259" yOffset="-463"/>
    <contour>
      <point x="212" y="581" type="curve" smooth="yes"/>
      <point x="223" y="581"/>
      <point x="223" y="572"/>
      <point x="217" y="540" type="curve" smooth="yes"/>
      <point x="185" y="390" type="line" smooth="yes"/>
      <point x="174" y="341"/>
      <point x="148" y="337"/>
      <point x="106" y="334" type="curve"/>
      <point x="100" y="326"/>
      <point x="97" y="313"/>
      <point x="100" y="304" type="curve"/>
      <point x="128" y="305"/>
      <point x="175" y="305"/>
      <point x="208" y="305" type="curve" smooth="yes"/>
      <point x="244" y="305"/>
      <point x="273" y="305"/>
      <point x="301" y="304" type="curve"/>
      <point x="305" y="310"/>
      <point x="309" y="326"/>
      <point x="307" y="334" type="curve"/>
      <point x="263" y="334"/>
      <point x="259" y="355"/>
      <point x="267" y="390" type="curve" smooth="yes"/>
      <point x="302" y="553" type="line" smooth="yes"/>
      <point x="309" y="586"/>
      <point x="318" y="618"/>
      <point x="329" y="651" type="curve"/>
      <point x="326" y="654"/>
      <point x="319" y="657"/>
      <point x="313" y="657" type="curve" smooth="yes"/>
      <point x="303" y="657"/>
      <point x="296" y="656"/>
      <point x="294" y="655" type="curve" smooth="yes"/>
      <point x="246" y="632"/>
      <point x="201" y="613"/>
      <point x="153" y="599" type="curve"/>
      <point x="150" y="587"/>
      <point x="149" y="572"/>
      <point x="155" y="566" type="curve"/>
      <point x="181" y="575"/>
      <point x="200" y="581"/>
    </contour>
    <contour>
      <point x="615" y="657" type="line"/>
      <point x="149" y="-10" type="line"/>
      <point x="190" y="-10" type="line"/>
      <point x="657" y="657" type="line"/>
    </contour>
  </outline>
  <guideline angle="0" x="0" y="657"/>
  <guideline angle="0" x="0" y="-4"/>
</glyph>
<glyph name="Eth" format="2">
  <advance width="698"/>
  <unicode hex="00D0"/>
  <outline>
    <component base="D"/>
    <contour>
      <point x="284" y="285" type="line"/>
      <point x="408" y="280" type="line"/>
      <point x="418" y="330" type="line"/>
      <point x="292" y="325" type="line"/>
    </contour>
    <contour>
      <point x="188" y="326" type="line" name=".hr01"/>
      <point x="87" y="330" type="line"/>
      <point x="77" y="280" type="line"/>
      <point x="179" y="284" type="line"/>
    </contour>
  </outline>
</glyph>
<glyph name="Hbar" format="2">
  <advance width="707"/>
  <unicode hex="0126"/>
  <outline>
    <contour>
      <point x="129" y="492" type="line"/>
      <point x="769" y="492" type="line"/>
      <point x="776" y="526" type="line"/>
      <point x="136" y="526" type="line"/>
    </contour>
    <contour>
      <point x="13" y="-2" type="curve"/>
      <point x="43" y="-1"/>
      <point x="93" y="0"/>
      <point x="131" y="0" type="curve" smooth="yes"/>
      <point x="161" y="0" type="line" smooth="yes"/>
      <point x="199" y="0"/>
      <point x="269" y="-1"/>
      <point x="307" y="-2" type="curve"/>
      <point x="318" y="4"/>
      <point x="321" y="26"/>
      <point x="313" y="32" type="curve"/>
      <point x="275.751" y="34.8653"/>
      <point x="246.639" y="46.3369"/>
      <point x="246.639" y="82.1803" type="curve" smooth="yes"/>
      <point x="246.639" y="92.8328"/>
      <point x="247.944" y="105.957"/>
      <point x="251" y="122" type="curve" smooth="yes"/>
      <point x="289" y="319" type="line"/>
      <point x="539" y="319" type="line"/>
      <point x="501" y="122" type="line" smooth="yes"/>
      <point x="487.36" y="51.2848"/>
      <point x="471.147" y="35.7304"/>
      <point x="404" y="32" type="curve"/>
      <point x="393" y="26"/>
      <point x="389" y="4"/>
      <point x="397" y="-2" type="curve"/>
      <point x="436" y="-1"/>
      <point x="507" y="0.0985"/>
      <point x="545" y="0" type="curve" smooth="yes"/>
      <point x="558.764" y="-0.0357" type="line"/>
      <point x="598.161" y="-0.1378"/>
      <point x="657.222" y="-1.1112"/>
      <point x="691" y="-2" type="curve"/>
      <point x="702" y="4"/>
      <point x="705" y="26"/>
      <point x="697" y="32" type="curve"/>
      <point x="666.432" y="34.3514"/>
      <point x="631.22" y="42.6191"/>
      <point x="631" y="73" type="curve" smooth="yes"/>
      <point x="630.913" y="85.0413"/>
      <point x="632.479" y="109.043"/>
      <point x="635" y="122" type="curve" smooth="yes"/>
      <point x="724.759" y="565.315" type="line"/>
      <point x="737.61" y="597.172"/>
      <point x="758.537" y="608.711"/>
      <point x="810" y="613" type="curve"/>
      <point x="821" y="619"/>
      <point x="825" y="641"/>
      <point x="817" y="647" type="curve"/>
      <point x="782" y="646"/>
      <point x="724" y="645"/>
      <point x="685" y="645" type="curve" smooth="yes"/>
      <point x="671" y="645" type="line" smooth="yes"/>
      <point x="633" y="645"/>
      <point x="561" y="646"/>
      <point x="523" y="647" type="curve"/>
      <point x="512" y="641"/>
      <point x="508" y="619"/>
      <point x="516" y="613" type="curve"/>
      <point x="554.495" y="610.039"/>
      <point x="583.556" y="599.238" name=".hr01"/>
      <point x="583.556" y="559.926" type="curve"/>
      <point x="549" y="367" type="line"/>
      <point x="299" y="367" type="line"/>
      <point x="339" y="569" type="line" smooth="yes"/>
      <point x="346.862" y="606.562"/>
      <point x="395.131" y="611.184"/>
      <point x="426" y="613" type="curve"/>
      <point x="437" y="619"/>
      <point x="441" y="641"/>
      <point x="433" y="647" type="curve"/>
      <point x="394" y="646"/>
      <point x="325" y="645"/>
      <point x="287" y="645" type="curve" smooth="yes"/>
      <point x="273" y="645" type="line" smooth="yes"/>
      <point x="233" y="645"/>
      <point x="173" y="646"/>
      <point x="139" y="647" type="curve"/>
      <point x="128" y="641"/>
      <point x="124" y="619"/>
      <point x="132" y="613" type="curve"/>
      <point x="173.94" y="608.104"/>
      <point x="210.591" y="596.262"/>
      <point x="206" y="573" type="curve" smooth="yes"/>
      <point x="117" y="122" type="line"/>
      <point x="103.1" y="51.564"/>
      <point x="86.3791" y="37.5316"/>
      <point x="20" y="32" type="curve"/>
      <point x="9" y="26" name=".hr02"/>
      <point x="5" y="4"/>
    </contour>
  </outline>
</glyph>
<glyph name="dotlessi" format="2">
	<unicode hex="0131"/>
	<advance width="342"/>
	<outline>
		<contour>
			<point x="156" y="249" type="line"/>
			<point x="127" y="114" type="line" smooth="yes"/>
			<point x="119" y="75"/>
			<point x="117" y="62"/>
			<point x="117" y="48" type="curve" smooth="yes"/>
			<point x="117" y="16"/>
			<point x="128" y="-11"/>
			<point x="169" y="-11" type="curve" smooth="yes"/>
			<point x="239" y="-11"/>
			<point x="308" y="22"/>
			<point x="354" y="81" type="curve"/>
			<point x="351" y="90"/>
			<point x="339" y="109"/>
			<point x="325" y="109" type="curve"/>
			<point x="299" y="79"/>
			<point x="265" y="62"/>
			<point x="255" y="62" type="curve" smooth="yes"/>
			<point x="248" y="62"/>
			<point x="244" y="69"/>
			<point x="244" y="78" type="curve" smooth="yes"/>
			<point x="244" y="87"/>
			<point x="248" y="110"/>
			<point x="251" y="123" type="curve" smooth="yes"/>
			<point x="278" y="249" type="line"/>
		</contour>
		<contour>
			<point x="156" y="249" type="line"/>
			<point x="278" y="249" type="line"/>
			<point x="293" y="319" type="line" smooth="yes"/>
			<point x="302" y="359"/>
			<point x="314" y="401"/>
			<point x="314" y="418" type="curve" smooth="yes"/>
			<point x="314" y="430"/>
			<point x="308" y="436"/>
			<point x="297" y="436" type="curve"/>
			<point x="266" y="431"/>
			<point x="169" y="423"/>
			<point x="121" y="423" type="curve"/>
			<point x="114" y="415"/>
			<point x="113" y="393"/>
			<point x="119" y="384" type="curve"/>
			<point x="159" y="381" type="line" smooth="yes"/>
			<point x="171" y="380"/>
			<point x="177" y="371"/>
			<point x="177" y="359" type="curve" smooth="yes"/>
			<point x="177" y="352"/>
			<point x="175" y="339"/>
			<point x="171" y="320" type="curve" smooth="yes"/>
		</contour>
	</outline>
	<anchor name="t.uni0302" x="267" y="500"/>
	<anchor name="b.uni0316_3" x="139" y="-108"/>
	<guideline x="0" y="250" angle="0"/>
</glyph>
<glyph name="ij" format="2">
  <advance width="623"/>
  <unicode hex="0133"/>
  <outline>
    <component base="dotaccent" xOffset="62" yOffset="-20"/>
    <component base="dotaccent" xOffset="322" yOffset="-20"/>
    <contour>
      <point x="192" y="321" type="curve" smooth="yes"/>
      <point x="152" y="150" type="line" smooth="yes"/>
      <point x="148" y="133"/>
      <point x="146" y="119"/>
      <point x="145" y="108" type="curve" smooth="yes"/>
      <point x="144" y="96"/>
      <point x="144" y="86"/>
      <point x="144" y="77" type="curve"/>
      <point x="144" y="77"/>
      <point x="144" y="76"/>
      <point x="144" y="76" type="curve"/>
      <point x="144" y="22"/>
      <point x="184" y="-1"/>
      <point x="221" y="-5" type="curve"/>
      <point x="225" y="-6"/>
      <point x="229" y="-6"/>
      <point x="233" y="-6" type="curve" smooth="yes"/>
      <point x="283" y="-6"/>
      <point x="336" y="14"/>
      <point x="422" y="113" type="curve"/>
      <point x="410" y="48"/>
      <point x="403" y="-1"/>
      <point x="389" y="-56" type="curve" smooth="yes"/>
      <point x="367" y="-142"/>
      <point x="351" y="-172"/>
      <point x="327" y="-172" type="curve" smooth="yes"/>
      <point x="323" y="-172"/>
      <point x="319" y="-171"/>
      <point x="316" y="-169" type="curve"/>
      <point x="292" y="-157"/>
      <point x="296" y="-99"/>
      <point x="237" y="-99" type="curve" smooth="yes"/>
      <point x="219" y="-99"/>
      <point x="198" y="-114"/>
      <point x="198" y="-144" type="curve" smooth="yes"/>
      <point x="198" y="-187"/>
      <point x="240" y="-204"/>
      <point x="292" y="-207" type="curve"/>
      <point x="297" y="-207"/>
      <point x="303" y="-207"/>
      <point x="308" y="-207" type="curve" smooth="yes"/>
      <point x="477" y="-207"/>
      <point x="518" y="-8"/>
      <point x="570" y="235" type="curve"/>
      <point x="586" y="320" type="line" smooth="yes"/>
      <point x="594" y="360"/>
      <point x="607" y="398"/>
      <point x="607" y="415" type="curve" smooth="yes"/>
      <point x="607" y="429"/>
      <point x="599" y="436" name=".hr01"/>
      <point x="586" y="436" type="curve" smooth="yes"/>
      <point x="554" y="436"/>
      <point x="461" y="429"/>
      <point x="414" y="423" type="curve"/>
      <point x="407" y="415"/>
      <point x="406" y="394"/>
      <point x="412" y="385" type="curve"/>
      <point x="452" y="382" type="line" smooth="yes"/>
      <point x="464" y="381"/>
      <point x="470" y="372"/>
      <point x="470" y="362" type="curve" smooth="yes"/>
      <point x="470" y="353"/>
      <point x="470" y="349"/>
      <point x="464" y="321" type="curve" smooth="yes"/>
      <point x="450" y="254" type="line" smooth="yes"/>
      <point x="446" y="236"/>
      <point x="443" y="218"/>
      <point x="439" y="200" type="curve"/>
      <point x="378" y="121"/>
      <point x="343" y="76"/>
      <point x="308" y="76" type="curve"/>
      <point x="308" y="76"/>
      <point x="308" y="76"/>
      <point x="308" y="76" type="curve"/>
      <point x="280" y="76"/>
      <point x="271" y="99"/>
      <point x="272" y="128" type="curve"/>
      <point x="273" y="138"/>
      <point x="275" y="148"/>
      <point x="277" y="158" type="curve"/>
      <point x="314" y="320" type="line" smooth="yes"/>
      <point x="323" y="359"/>
      <point x="335" y="398"/>
      <point x="335" y="415" type="curve" smooth="yes"/>
      <point x="335" y="429"/>
      <point x="327" y="436"/>
      <point x="314" y="436" type="curve" smooth="yes"/>
      <point x="282" y="436"/>
      <point x="189" y="429"/>
      <point x="142" y="423" type="curve"/>
      <point x="135" y="415"/>
      <point x="134" y="394"/>
      <point x="140" y="385" type="curve"/>
      <point x="180" y="382" type="line" smooth="yes"/>
      <point x="192" y="381"/>
      <point x="198" y="372"/>
      <point x="198" y="362" type="curve" smooth="yes"/>
      <point x="198" y="361"/>
      <point x="198" y="361"/>
      <point x="198" y="360" type="curve" smooth="yes"/>
      <point x="198" y="352"/>
      <point x="198" y="347"/>
    </contour>
  </outline>
</glyph>
<glyph name="kgreenlandic" format="2">
  <advance width="560"/>
  <unicode hex="0138"/>
  <anchor x="365" y="500" name="top"/>
  <outline>
    <contour>
      <point x="232" y="210" type="line"/>
      <point x="238" y="210" type="line"/>
      <point x="242" y="212"/>
      <point x="246" y="214"/>
      <point x="257" y="214" type="curve" smooth="yes"/>
      <point x="269" y="214"/>
      <point x="284" y="211"/>
      <point x="294" y="194" type="curve" smooth="yes"/>
      <point x="333" y="129"/>
      <point x="340" y="-10"/>
      <point x="439" y="-10" type="curve" smooth="yes"/>
      <point x="487" y="-10"/>
      <point x="538" y="20"/>
      <point x="566" y="77" type="curve"/>
      <point x="559" y="85"/>
      <point x="547" y="94"/>
      <point x="536" y="94" type="curve"/>
      <point x="516" y="65"/>
      <point x="496" y="52"/>
      <point x="485" y="52" type="curve" smooth="yes"/>
      <point x="469" y="52"/>
      <point x="460" y="68"/>
      <point x="454" y="90" type="curve" smooth="yes"/>
      <point x="433" y="167"/>
      <point x="416" y="228"/>
      <point x="349" y="246" type="curve"/>
      <point x="348" y="250" type="line"/>
      <point x="410" y="316" type="line" smooth="yes"/>
      <point x="440" y="348"/>
      <point x="451" y="354"/>
      <point x="471" y="354" type="curve" smooth="yes"/>
      <point x="495" y="354"/>
      <point x="493" y="319"/>
      <point x="545" y="319" type="curve" smooth="yes"/>
      <point x="577" y="319"/>
      <point x="602" y="346"/>
      <point x="602" y="380" type="curve" smooth="yes"/>
      <point x="602" y="415"/>
      <point x="571" y="439"/>
      <point x="537" y="439" type="curve" smooth="yes"/>
      <point x="487" y="439"/>
      <point x="430" y="407"/>
      <point x="366" y="337" type="curve" smooth="yes"/>
      <point x="316" y="283" type="line" smooth="yes"/>
      <point x="300" y="266"/>
      <point x="279" y="252"/>
      <point x="254" y="252" type="curve" smooth="yes"/>
      <point x="250" y="252"/>
      <point x="246" y="252"/>
      <point x="242" y="253" type="curve"/>
    </contour>
    <contour>
      <point x="84" y="17" type="curve"/>
      <point x="85" y="1"/>
      <point x="94" y="-9"/>
      <point x="115" y="-10" type="curve"/>
      <point x="150" y="-10" type="line" smooth="yes"/>
      <point x="199" y="-10"/>
      <point x="206" y="11"/>
      <point x="215" y="55" type="curve" smooth="yes"/>
      <point x="271" y="311" type="line" smooth="yes"/>
      <point x="280" y="353"/>
      <point x="291" y="398"/>
      <point x="291" y="415" type="curve" smooth="yes"/>
      <point x="291" y="429"/>
      <point x="283" y="436"/>
      <point x="270" y="436" type="curve" smooth="yes"/>
      <point x="238" y="436"/>
      <point x="148" y="429"/>
      <point x="101" y="423" type="curve"/>
      <point x="94" y="415"/>
      <point x="93" y="394"/>
      <point x="99" y="385" type="curve"/>
      <point x="139" y="382" type="line" smooth="yes"/>
      <point x="151" y="381"/>
      <point x="157" y="372"/>
      <point x="157" y="362" type="curve" smooth="yes"/>
      <point x="157" y="353"/>
      <point x="156" y="343"/>
      <point x="151" y="321" type="curve" smooth="yes"/>
      <point x="97" y="72" type="line" smooth="yes"/>
      <point x="93" y="52"/>
      <point x="84" y="27"/>
    </contour>
  </outline>
  <guideline angle="77.4825" x="200" y="47"/>
  <guideline angle="77.6342" x="213" y="47"/>
</glyph>
<glyph name="uni013C" format="2">
  <advance width="324"/>
  <unicode hex="013C"/>
  <outline>
    <contour>
      <point x="208" y="563" type="curve" smooth="yes"/>
      <point x="107" y="118" type="line" smooth="yes"/>
      <point x="102" y="95"/>
      <point x="97" y="68"/>
      <point x="97" y="47" type="curve" smooth="yes"/>
      <point x="97" y="41"/>
      <point x="97" y="36"/>
      <point x="98" y="31" type="curve" smooth="yes"/>
      <point x="103" y="6"/>
      <point x="118" y="-10"/>
      <point x="148" y="-10" type="curve" smooth="yes"/>
      <point x="218" y="-10"/>
      <point x="284" y="30"/>
      <point x="334" y="85" type="curve"/>
      <point x="331" y="94"/>
      <point x="319" y="113"/>
      <point x="305" y="113" type="curve"/>
      <point x="279" y="83"/>
      <point x="245" y="66"/>
      <point x="235" y="66" type="curve" smooth="yes"/>
      <point x="227" y="66"/>
      <point x="224" y="74"/>
      <point x="224" y="84" type="curve" smooth="yes"/>
      <point x="224" y="97"/>
      <point x="228" y="113"/>
      <point x="231" y="127" type="curve" smooth="yes"/>
      <point x="328" y="567" type="line"/>
      <point x="332" y="583" type="line"/>
      <point x="339" y="616"/>
      <point x="347" y="645"/>
      <point x="347" y="665" type="curve" smooth="yes"/>
      <point x="347" y="676"/>
      <point x="345" y="684"/>
      <point x="341" y="689" type="curve" smooth="yes"/>
      <point x="338" y="692"/>
      <point x="335" y="694"/>
      <point x="331" y="696" type="curve" smooth="yes"/>
      <point x="328" y="697"/>
      <point x="323" y="698"/>
      <point x="317" y="698" type="curve" smooth="yes"/>
      <point x="286" y="698"/>
      <point x="194" y="679"/>
      <point x="151" y="672" type="curve"/>
      <point x="147" y="664"/>
      <point x="145" y="656"/>
      <point x="145" y="648" type="curve" smooth="yes"/>
      <point x="145" y="644"/>
      <point x="145" y="641"/>
      <point x="146" y="638" type="curve"/>
      <point x="154" y="638"/>
      <point x="161" y="638"/>
      <point x="167" y="638" type="curve"/>
      <point x="180" y="637"/>
      <point x="190" y="636"/>
      <point x="197" y="632" type="curve"/>
      <point x="208" y="628"/>
      <point x="213" y="619"/>
      <point x="214" y="604" type="curve"/>
      <point x="214" y="594"/>
      <point x="212" y="580"/>
    </contour>
    <contour>
      <point x="164" y="-60" type="curve" smooth="yes"/>
      <point x="141" y="-60"/>
      <point x="110" y="-81"/>
      <point x="108" y="-98" type="curve" smooth="yes"/>
      <point x="104" y="-123"/>
      <point x="113" y="-138"/>
      <point x="135" y="-143" type="curve"/>
      <point x="136" y="-143"/>
      <point x="137" y="-144"/>
      <point x="138" y="-144" type="curve"/>
      <point x="147" y="-146"/>
      <point x="163" y="-149"/>
      <point x="160" y="-166" type="curve"/>
      <point x="160" y="-166"/>
      <point x="160" y="-166"/>
      <point x="160" y="-166" type="curve"/>
      <point x="158" y="-184"/>
      <point x="129" y="-208"/>
      <point x="88" y="-219" type="curve"/>
      <point x="82" y="-231"/>
      <point x="81" y="-241"/>
      <point x="90" y="-247" type="curve"/>
      <point x="157" y="-236"/>
      <point x="212" y="-198"/>
      <point x="224" y="-145" type="curve"/>
      <point x="224" y="-143"/>
      <point x="225" y="-140"/>
      <point x="225" y="-138" type="curve"/>
      <point x="234" y="-75"/>
      <point x="196" y="-60"/>
    </contour>
  </outline>
</glyph>
<glyph name="Eng" format="2">
  <advance width="769"/>
  <unicode hex="014A"/>
  <anchor x="580" y="804" name="t.uni0302"/>
  <anchor x="131" y="-3" name="b.uni0327_6"/>
  <outline>
    <contour>
      <point x="27" y="-2" type="curve"/>
      <point x="132" y="1"/>
      <point x="236" y="0"/>
      <point x="341" y="-2" type="curve"/>
      <point x="348" y="5"/>
      <point x="353" y="22"/>
      <point x="348" y="32" type="curve"/>
      <point x="316" y="33"/>
      <point x="273" y="39"/>
      <point x="273" y="74" type="curve" smooth="yes"/>
      <point x="273" y="90"/>
      <point x="277" y="107"/>
      <point x="280" y="122" type="curve" smooth="yes"/>
      <point x="350" y="448" type="line"/>
      <point x="388" y="499"/>
      <point x="506" y="592"/>
      <point x="565" y="592" type="curve" smooth="yes"/>
      <point x="638" y="592"/>
      <point x="658" y="521"/>
      <point x="658" y="459" type="curve" smooth="yes"/>
      <point x="658" y="420"/>
      <point x="651" y="378"/>
      <point x="643" y="339" type="curve" smooth="yes"/>
      <point x="588" y="81" type="line" smooth="yes"/>
      <point x="578" y="32"/>
      <point x="560" y="-128"/>
      <point x="495" y="-128" type="curve" smooth="yes"/>
      <point x="435" y="-128"/>
      <point x="464" y="-60" name=".hr01"/>
      <point x="405" y="-60" type="curve" smooth="yes"/>
      <point x="369" y="-60"/>
      <point x="334" y="-90"/>
      <point x="334" y="-126" type="curve" smooth="yes"/>
      <point x="334" y="-173"/>
      <point x="397" y="-187"/>
      <point x="433" y="-187" type="curve" smooth="yes"/>
      <point x="581" y="-187"/>
      <point x="705" y="-28"/>
      <point x="733" y="103" type="curve" smooth="yes"/>
      <point x="781" y="329" type="line" smooth="yes"/>
      <point x="791" y="378"/>
      <point x="799" y="427"/>
      <point x="799" y="477" type="curve" smooth="yes"/>
      <point x="799" y="592"/>
      <point x="746" y="658"/>
      <point x="625" y="658" type="curve" smooth="yes"/>
      <point x="508" y="658"/>
      <point x="395" y="558"/>
      <point x="363" y="514" type="curve"/>
      <point x="365" y="525"/>
      <point x="394" y="637" name=".hr02"/>
      <point x="394" y="640" type="curve" smooth="yes"/>
      <point x="394" y="646"/>
      <point x="387" y="647"/>
      <point x="382" y="647" type="curve" smooth="yes"/>
      <point x="309" y="647"/>
      <point x="237" y="645"/>
      <point x="164" y="647" type="curve"/>
      <point x="157" y="640"/>
      <point x="153" y="626"/>
      <point x="157" y="613" type="curve"/>
      <point x="190" y="611"/>
      <point x="232" y="605"/>
      <point x="232" y="571" type="curve" smooth="yes"/>
      <point x="232" y="555"/>
      <point x="228" y="538"/>
      <point x="225" y="523" type="curve" smooth="yes"/>
      <point x="140" y="122" type="line" smooth="yes"/>
      <point x="123" y="42"/>
      <point x="112" y="38"/>
      <point x="34" y="32" type="curve"/>
      <point x="27" y="25"/>
      <point x="22" y="8"/>
    </contour>
  </outline>
  <guideline angle="77.9205" x="280" y="122"/>
</glyph>
<glyph name="Uhungarumlaut" format="2">
  <advance width="702"/>
  <unicode hex="0170"/>
  <outline>
    <component base="U"/>
    <contour>
      <point x="643" y="828" type="curve" smooth="yes"/>
      <point x="635.283" y="828"/>
      <point x="622.803" y="823.02"/>
      <point x="618" y="816" type="curve" smooth="yes"/>
      <point x="540" y="702" type="line" smooth="yes"/>
      <point x="539.201" y="700.833"/>
      <point x="538" y="697.889"/>
      <point x="538" y="693.73" type="curve" smooth="yes"/>
      <point x="538" y="687.953"/>
      <point x="543.282" y="684"/>
      <point x="549.31" y="684" type="curve" smooth="yes"/>
      <point x="552.365" y="684"/>
      <point x="556.29" y="684.706"/>
      <point x="558" y="686" type="curve" smooth="yes"/>
      <point x="669" y="770" type="line" smooth="yes"/>
      <point x="675.392" y="774.837"/>
      <point x="679" y="786.86"/>
      <point x="679" y="795" type="curve" smooth="yes"/>
      <point x="679" y="815.173"/>
      <point x="662.244" y="828"/>
    </contour>
    <contour>
      <point x="518.874" y="833" type="curve" smooth="yes"/>
      <point x="501.591" y="833"/>
      <point x="491.429" y="827.978"/>
      <point x="487" y="821" type="curve" smooth="yes"/>
      <point x="414" y="706" type="line" smooth="yes"/>
      <point x="412.076" y="702.968"/>
      <point x="411.365" y="701"/>
      <point x="411.365" y="697.67" type="curve" smooth="yes"/>
      <point x="411.365" y="693.909"/>
      <point x="417.202" y="688"/>
      <point x="424" y="688" type="curve" smooth="yes"/>
      <point x="426" y="688"/>
      <point x="429.535" y="688.019"/>
      <point x="432" y="690" type="curve" smooth="yes"/>
      <point x="539" y="776" type="line" smooth="yes"/>
      <point x="543.991" y="780.011"/>
      <point x="548" y="786.938"/>
      <point x="548" y="795" type="curve" smooth="yes"/>
      <point x="548" y="813.423"/>
      <point x="536.232" y="833"/>
    </contour>
  </outline>
</glyph>
<glyph name="longs" format="2">
  <advance width="334"/>
  <unicode hex="017F"/>
  <anchor x="420.401" y="740" name="top"/>
  <outline>
    <contour>
      <point x="-134" y="-163" type="curve" smooth="yes"/>
      <point x="-134" y="-217.767"/>
      <point x="-52.6291" y="-233"/>
      <point x="-9" y="-233" type="curve" smooth="yes"/>
      <point x="168.583" y="-233"/>
      <point x="239.114" y="54.5403"/>
      <point x="267" y="187" type="curve" smooth="yes"/>
      <point x="333" y="485" type="line" smooth="yes"/>
      <point x="368" y="634"/>
      <point x="387" y="656"/>
      <point x="409" y="656" type="curve" smooth="yes"/>
      <point x="435.537" y="656"/>
      <point x="442.946" y="628.188"/>
      <point x="448" y="607" type="curve" smooth="yes"/>
      <point x="455.778" y="574.389"/>
      <point x="463.265" y="556"/>
      <point x="496" y="556" type="curve" smooth="yes"/>
      <point x="533" y="556"/>
      <point x="560" y="587"/>
      <point x="560" y="619" type="curve" smooth="yes"/>
      <point x="560" y="641"/>
      <point x="547" y="698"/>
      <point x="442" y="698" type="curve" smooth="yes"/>
      <point x="316.67" y="698"/>
      <point x="233.013" y="579.083"/>
      <point x="203" y="470" type="curve" smooth="yes"/>
      <point x="198.119" y="452.26"/>
      <point x="183.503" y="442.934"/>
      <point x="152.85" y="438" type="curve" smooth="yes"/>
      <point x="128" y="434" type="line"/>
      <point x="120.932" y="419.659"/>
      <point x="121" y="412.236"/>
      <point x="121" y="393" type="curve"/>
      <point x="154.362" y="389" type="line" smooth="yes"/>
      <point x="171.493" y="386.946"/>
      <point x="181.398" y="378.266"/>
      <point x="177.798" y="357.761" type="curve" smooth="yes"/>
      <point x="148" y="188" type="line" smooth="yes"/>
      <point x="135.66" y="117.698"/>
      <point x="109.701" y="-184"/>
      <point x="13" y="-184" type="curve" smooth="yes"/>
      <point x="-6.86799" y="-184"/>
      <point x="-14.9041" y="-169.192"/>
      <point x="-23" y="-153" type="curve"/>
      <point x="-34" y="-135"/>
      <point x="-51" y="-115"/>
      <point x="-76" y="-115" type="curve" smooth="yes"/>
      <point x="-107" y="-115"/>
      <point x="-134" y="-141"/>
    </contour>
  </outline>
  <guideline angle="260.044" x="181" y="376"/>
</glyph>
<glyph name="uni0183" format="2">
  <advance width="525"/>
  <unicode hex="0183"/>
  <outline>
    <contour>
      <point x="388" y="688" type="line" smooth="yes"/>
      <point x="313" y="688"/>
      <point x="216" y="680"/>
      <point x="170" y="672" type="curve"/>
      <point x="164" y="663"/>
      <point x="163" y="653"/>
      <point x="166" y="644" type="curve"/>
      <point x="199" y="642" type="line" smooth="yes"/>
      <point x="212" y="641"/>
      <point x="220" y="633"/>
      <point x="220" y="618" type="curve" smooth="yes"/>
      <point x="220" y="611"/>
      <point x="219" y="599"/>
      <point x="215" y="581" type="curve" smooth="yes"/>
      <point x="211" y="563" type="line"/>
      <point x="334" y="583" type="line"/>
      <point x="350" y="654" type="line"/>
      <point x="468" y="654" type="line" smooth="yes"/>
      <point x="511" y="654"/>
      <point x="529" y="624"/>
      <point x="533" y="545" type="curve"/>
      <point x="541" y="545"/>
      <point x="550" y="545"/>
      <point x="558" y="548" type="curve"/>
      <point x="575" y="688" type="line"/>
    </contour>
    <contour>
      <point x="105" y="82" type="curve" smooth="yes"/>
      <point x="105" y="34"/>
      <point x="135" y="-10"/>
      <point x="211" y="-10" type="curve" smooth="yes"/>
      <point x="389" y="-10"/>
      <point x="551" y="147"/>
      <point x="551" y="320" type="curve" smooth="yes"/>
      <point x="551" y="369"/>
      <point x="538" y="439"/>
      <point x="457" y="439" type="curve" smooth="yes"/>
      <point x="383" y="439"/>
      <point x="323" y="382"/>
      <point x="282" y="335" type="curve"/>
      <point x="256" y="335" type="line"/>
      <point x="256" y="266" type="line"/>
      <point x="312" y="332"/>
      <point x="344" y="352"/>
      <point x="389" y="352" type="curve" smooth="yes"/>
      <point x="419" y="352"/>
      <point x="422" y="319"/>
      <point x="422" y="299" type="curve" smooth="yes"/>
      <point x="422" y="217"/>
      <point x="369" y="32"/>
      <point x="265" y="32" type="curve" smooth="yes"/>
      <point x="238" y="32"/>
      <point x="227" y="44"/>
      <point x="227" y="74" type="curve" smooth="yes"/>
      <point x="227" y="87"/>
      <point x="229" y="105"/>
      <point x="234" y="127" type="curve" smooth="yes"/>
      <point x="334" y="583" type="line"/>
      <point x="211" y="563" type="line"/>
      <point x="109" y="118" type="line" smooth="yes"/>
      <point x="107" y="108"/>
      <point x="105" y="95"/>
    </contour>
    <contour>
      <point x="109" y="118" type="line"/>
      <point x="98" y="73" type="line" smooth="yes"/>
      <point x="88" y="34"/>
      <point x="83" y="18"/>
      <point x="76" y="-6" type="curve"/>
      <point x="82" y="-10"/>
      <point x="93" y="-11"/>
      <point x="100" y="-11" type="curve"/>
      <point x="113" y="-7"/>
      <point x="136" y="3"/>
      <point x="150" y="11" type="curve" smooth="yes"/>
      <point x="217" y="50" type="line"/>
      <point x="234" y="127" type="line"/>
    </contour>
  </outline>
</glyph>
<glyph name="uni018B" format="2">
	<unicode hex="018B"/>
	<advance width="590"/>
	<outline>
		<contour>
			<point x="406" y="603" type="line" smooth="yes"/>
			<point x="455" y="603"/>
			<point x="482" y="595"/>
			<point x="482" y="569" type="curve"/>
			<point x="390" y="94" type="line" smooth="yes"/>
			<point x="385" y="69"/>
			<point x="366" y="42"/>
			<point x="299" y="42" type="curve" smooth="yes"/>
			<point x="261" y="42"/>
			<point x="207" y="69"/>
			<point x="207" y="151" type="curve" smooth="yes"/>
			<point x="207" y="270"/>
			<point x="276" y="339"/>
			<point x="352" y="339" type="curve" smooth="yes"/>
			<point x="452" y="339" type="line"/>
			<point x="461" y="381" type="line"/>
			<point x="386" y="381" type="line" smooth="yes"/>
			<point x="226" y="381"/>
			<point x="70" y="326"/>
			<point x="70" y="139" type="curve" smooth="yes"/>
			<point x="70" y="42"/>
			<point x="154" y="-2"/>
			<point x="247" y="-2" type="curve" smooth="yes"/>
			<point x="311" y="-2"/>
			<point x="348" y="0"/>
			<point x="411" y="0" type="curve" smooth="yes"/>
			<point x="453" y="0"/>
			<point x="534" y="-1"/>
			<point x="576" y="-2" type="curve"/>
			<point x="582" y="9"/>
			<point x="582" y="22"/>
			<point x="578" y="29" type="curve"/>
			<point x="550" y="32" type="line" smooth="yes"/>
			<point x="528" y="34"/>
			<point x="518" y="40"/>
			<point x="518" y="60" type="curve" smooth="yes"/>
			<point x="518" y="62"/>
			<point x="519" y="72"/>
			<point x="520" y="77" type="curve" smooth="yes"/>
			<point x="613" y="557" type="line" smooth="yes"/>
			<point x="620" y="593"/>
			<point x="632" y="605"/>
			<point x="662" y="608" type="curve" smooth="yes"/>
			<point x="696" y="611" type="line"/>
			<point x="700" y="618"/>
			<point x="704" y="638"/>
			<point x="701" y="647" type="curve"/>
			<point x="664" y="646"/>
			<point x="627" y="645"/>
			<point x="590" y="645" type="curve" smooth="yes"/>
			<point x="326" y="645" type="line" smooth="yes"/>
			<point x="283" y="645"/>
			<point x="248" y="650"/>
			<point x="220" y="658" type="curve"/>
			<point x="177" y="504" type="line"/>
			<point x="201" y="501" type="line"/>
			<point x="244" y="590"/>
			<point x="282" y="603"/>
			<point x="328" y="603" type="curve" smooth="yes"/>
		</contour>
	</outline>
	<guideline x="122" y="434" angle="258.965"/>
	<guideline x="170" y="-10" angle="79.0937"/>
	<guideline x="482" y="569" angle="259.05"/>
	<guideline x="520" y="77" angle="79.0243"/>
</glyph>
<glyph name="florin" format="2">
  <advance width="450"/>
  <unicode hex="0192"/>
  <outline>
    <contour>
      <point x="487" y="698" type="curve" smooth="yes"/>
      <point x="429" y="698"/>
      <point x="352" y="631"/>
      <point x="298" y="483" type="curve" smooth="yes"/>
      <point x="287" y="454"/>
      <point x="267" y="430"/>
      <point x="231" y="430" type="curve" smooth="yes"/>
      <point x="195" y="430" type="line"/>
      <point x="181" y="391" type="line"/>
      <point x="263" y="391" type="line"/>
      <point x="226" y="278" type="line" smooth="yes"/>
      <point x="164" y="96"/>
      <point x="123" y="-135"/>
      <point x="39" y="-135" type="curve" smooth="yes"/>
      <point x="27" y="-135"/>
      <point x="25" y="-129"/>
      <point x="25" y="-123" type="curve" smooth="yes"/>
      <point x="25" y="-119"/>
      <point x="26" y="-114"/>
      <point x="26" y="-109" type="curve" smooth="yes"/>
      <point x="26" y="-107"/>
      <point x="26" y="-105"/>
      <point x="25" y="-104" type="curve"/>
      <point x="22" y="-91"/>
      <point x="14" y="-83"/>
      <point x="-3" y="-83" type="curve" smooth="yes"/>
      <point x="-22" y="-83"/>
      <point x="-38" y="-101"/>
      <point x="-42" y="-116" type="curve"/>
      <point x="-42" y="-119"/>
      <point x="-43" y="-121"/>
      <point x="-43" y="-124" type="curve" smooth="yes"/>
      <point x="-43" y="-143"/>
      <point x="-29" y="-172"/>
      <point x="20" y="-172" type="curve" smooth="yes"/>
      <point x="139" y="-172"/>
      <point x="191" y="-25"/>
      <point x="329" y="374" type="curve"/>
      <point x="334" y="391" type="line"/>
      <point x="440" y="391" type="line"/>
      <point x="455" y="430" type="line"/>
      <point x="349" y="430" type="line"/>
      <point x="389" y="541" type="line" smooth="yes"/>
      <point x="429" y="647"/>
      <point x="462" y="669"/>
      <point x="480" y="669" type="curve" smooth="yes"/>
      <point x="503" y="669"/>
      <point x="499" y="633"/>
      <point x="503" y="618" type="curve" smooth="yes"/>
      <point x="507" y="602"/>
      <point x="517" y="593"/>
      <point x="537" y="593" type="curve" smooth="yes"/>
      <point x="557" y="593"/>
      <point x="573" y="610"/>
      <point x="578" y="630" type="curve"/>
      <point x="579" y="633"/>
      <point x="579" y="637"/>
      <point x="579" y="641" type="curve" smooth="yes"/>
      <point x="579" y="668"/>
      <point x="557" y="698"/>
    </contour>
  </outline>
</glyph>
<glyph name="uni0196" format="2">
  <advance width="266"/>
  <unicode hex="0196"/>
  <outline>
    <contour>
      <point x="286" y="583" type="line" smooth="yes"/>
      <point x="301" y="648"/>
      <point x="311" y="688"/>
      <point x="311" y="688" type="curve"/>
      <point x="311" y="695"/>
      <point x="308" y="698"/>
      <point x="299" y="698" type="curve"/>
      <point x="272" y="688"/>
      <point x="200" y="675"/>
      <point x="159" y="672" type="curve"/>
      <point x="156" y="648" type="line"/>
      <point x="156" y="645"/>
      <point x="157" y="643"/>
      <point x="161" y="643" type="curve"/>
      <point x="192" y="641" type="line"/>
      <point x="205" y="641"/>
      <point x="213" y="635"/>
      <point x="213" y="613" type="curve" smooth="yes"/>
      <point x="213" y="602"/>
      <point x="211" y="585"/>
      <point x="206" y="563" type="curve" smooth="yes"/>
      <point x="107" y="119" type="line" smooth="yes"/>
      <point x="100" y="87"/>
      <point x="93" y="53"/>
      <point x="93" y="34" type="curve" smooth="yes"/>
      <point x="93" y="15"/>
      <point x="98" y="-10"/>
      <point x="135" y="-10" type="curve" smooth="yes"/>
      <point x="180" y="-10"/>
      <point x="235" y="16"/>
      <point x="280" y="91" type="curve"/>
      <point x="276" y="101"/>
      <point x="271" y="108"/>
      <point x="258" y="108" type="curve"/>
      <point x="228" y="72"/>
      <point x="196" y="50"/>
      <point x="184" y="50" type="curve" smooth="yes"/>
      <point x="176" y="50"/>
      <point x="172" y="56"/>
      <point x="172" y="64" type="curve" smooth="yes"/>
      <point x="172" y="72"/>
      <point x="175" y="87"/>
      <point x="184" y="127" type="curve" smooth="yes"/>
    </contour>
  </outline>
</glyph>
<glyph name="uni0197" format="2">
	<unicode hex="0197"/>
	<advance width="323"/>
	<outline>
		<contour>
			<point x="97" y="371" type="line" smooth="yes"/>
			<point x="88" y="371"/>
			<point x="75" y="356"/>
			<point x="73" y="346" type="curve"/>
			<point x="71" y="340"/>
			<point x="73" y="332"/>
			<point x="81" y="332" type="curve" smooth="yes"/>
			<point x="360" y="332" type="line" smooth="yes"/>
			<point x="372" y="332"/>
			<point x="383.94" y="347.011"/>
			<point x="386" y="358" type="curve" smooth="yes"/>
			<point x="386.94" y="363.012"/>
			<point x="386" y="371"/>
			<point x="377" y="371" type="curve" smooth="yes"/>
		</contour>
		<contour>
			<point x="161" y="0" type="line"/>
			<point x="199" y="0"/>
			<point x="269" y="-1"/>
			<point x="307" y="-2" type="curve"/>
			<point x="318" y="4"/>
			<point x="321" y="26"/>
			<point x="313" y="32" type="curve"/>
			<point x="247" y="37"/>
			<point x="238" y="52"/>
			<point x="251" y="122" type="curve" smooth="yes"/>
			<point x="329" y="523" type="line" smooth="yes"/>
			<point x="342" y="589"/>
			<point x="355" y="607"/>
			<point x="426" y="613" type="curve"/>
			<point x="437" y="619"/>
			<point x="441" y="641"/>
			<point x="433" y="647" type="curve"/>
			<point x="399" y="646"/>
			<point x="342" y="645"/>
			<point x="303" y="645" type="curve" smooth="yes"/>
			<point x="277" y="645" type="line"/>
		</contour>
		<contour>
			<point x="228" y="0" type="line"/>
			<point x="331" y="536" type="line"/>
			<point x="277" y="645" type="line"/>
			<point x="217" y="645"/>
			<point x="170" y="646"/>
			<point x="135" y="647" type="curve"/>
			<point x="130" y="642"/>
			<point x="127" y="624"/>
			<point x="129" y="613" type="curve"/>
			<point x="182" y="609"/>
			<point x="199" y="598"/>
			<point x="199" y="566" type="curve" smooth="yes"/>
			<point x="199" y="555"/>
			<point x="197" y="540"/>
			<point x="194" y="522" type="curve" smooth="yes"/>
			<point x="117" y="122" type="line" smooth="yes"/>
			<point x="104" y="55"/>
			<point x="86" y="40"/>
			<point x="16" y="32" type="curve"/>
			<point x="10" y="26"/>
			<point x="4" y="5"/>
			<point x="9" y="-2" type="curve"/>
			<point x="46" y="-1"/>
			<point x="115" y="0"/>
			<point x="145" y="0" type="curve" smooth="yes"/>
		</contour>
	</outline>
</glyph>
<glyph name="uni019B" format="2">
  <advance width="531"/>
  <unicode hex="019B"/>
  <outline>
    <contour>
      <point x="490" y="616" type="line"/>
      <point x="384" y="561" type="line"/>
      <point x="384" y="569" type="line"/>
      <point x="375" y="681"/>
      <point x="319" y="698"/>
      <point x="297" y="698" type="curve" smooth="yes"/>
      <point x="265" y="698"/>
      <point x="218" y="675"/>
      <point x="184" y="637" type="curve"/>
      <point x="192" y="612" type="line"/>
      <point x="216" y="627"/>
      <point x="241" y="637"/>
      <point x="269" y="637" type="curve" smooth="yes"/>
      <point x="292" y="637"/>
      <point x="319" y="618"/>
      <point x="333" y="535" type="curve"/>
      <point x="221" y="477" type="line"/>
      <point x="231" y="447" type="line"/>
      <point x="338" y="502" type="line"/>
      <point x="339" y="495"/>
      <point x="340" y="487"/>
      <point x="341" y="478" type="curve"/>
      <point x="344" y="430" type="line"/>
      <point x="11" y="-5" type="line"/>
      <point x="29" y="-13" type="line"/>
      <point x="113" y="9" type="line"/>
      <point x="352" y="362" type="line"/>
      <point x="365" y="126" type="line"/>
      <point x="372" y="33"/>
      <point x="390" y="-12"/>
      <point x="440" y="-12" type="curve" smooth="yes"/>
      <point x="477" y="-12"/>
      <point x="521" y="37"/>
      <point x="554" y="98" type="curve"/>
      <point x="535" y="111" type="line"/>
      <point x="504" y="65"/>
      <point x="480" y="54"/>
      <point x="459" y="54" type="curve" smooth="yes"/>
      <point x="426" y="54"/>
      <point x="417" y="106"/>
      <point x="405" y="268" type="curve" smooth="yes"/>
      <point x="387" y="527" type="line"/>
      <point x="500" y="586" type="line"/>
    </contour>
  </outline>
</glyph>
<glyph name="uni019F" format="2">
	<unicode hex="019F"/>
	<advance width="699"/>
	<outline>
		<component base="O"/>
		<contour>
			<point x="168" y="309" type="line"/>
			<point x="640" y="309" type="line"/>
			<point x="646" y="353" type="line"/>
			<point x="176" y="353" type="line"/>
		</contour>
	</outline>
	<guideline x="0" y="32" angle="0"/>
	<guideline x="434" y="544" angle="263.162"/>
</glyph>
<glyph name="uni01A5" format="2">
	<unicode hex="01A5"/>
	<advance width="479"/>
	<outline>
		<contour>
			<point x="271" y="526" type="line" smooth="yes"/>
			<point x="292" y="618"/>
			<point x="333" y="668"/>
			<point x="378" y="668" type="curve" smooth="yes"/>
			<point x="385" y="668"/>
			<point x="390" y="662"/>
			<point x="390" y="652" type="curve" smooth="yes"/>
			<point x="390" y="631"/>
			<point x="398" y="608"/>
			<point x="421" y="608" type="curve" smooth="yes"/>
			<point x="438" y="608"/>
			<point x="457" y="622"/>
			<point x="462" y="646" type="curve"/>
			<point x="463" y="648"/>
			<point x="463" y="650"/>
			<point x="463" y="652" type="curve" smooth="yes"/>
			<point x="463" y="679"/>
			<point x="419" y="697"/>
			<point x="381" y="697" type="curve" smooth="yes"/>
			<point x="275" y="697"/>
			<point x="213" y="598"/>
			<point x="189" y="496" type="curve" smooth="yes"/>
			<point x="38" y="-158" type="line" smooth="yes"/>
			<point x="32" y="-186"/>
			<point x="19" y="-202"/>
			<point x="-15" y="-202" type="curve" smooth="yes"/>
			<point x="-34" y="-202" type="line" smooth="yes"/>
			<point x="-39" y="-202"/>
			<point x="-42" y="-205"/>
			<point x="-44" y="-210" type="curve"/>
			<point x="-48" y="-229" type="line"/>
			<point x="-46" y="-231" type="line"/>
			<point x="-46" y="-231"/>
			<point x="22" y="-229"/>
			<point x="58" y="-229" type="curve" smooth="yes"/>
			<point x="97" y="-229"/>
			<point x="165" y="-231"/>
			<point x="165" y="-231" type="curve"/>
			<point x="167" y="-229" type="line"/>
			<point x="171" y="-210" type="line" smooth="yes"/>
			<point x="172" y="-205"/>
			<point x="169" y="-202"/>
			<point x="165" y="-202" type="curve" smooth="yes"/>
			<point x="146" y="-202" type="line" smooth="yes"/>
			<point x="120" y="-202"/>
			<point x="110" y="-193"/>
			<point x="110" y="-175" type="curve" smooth="yes"/>
			<point x="110" y="-170"/>
			<point x="111" y="-165"/>
			<point x="113" y="-158" type="curve" smooth="yes"/>
			<point x="152" y="10" type="line"/>
			<point x="174" y="-4"/>
			<point x="200" y="-12"/>
			<point x="236" y="-12" type="curve" smooth="yes"/>
			<point x="386" y="-12"/>
			<point x="503" y="155"/>
			<point x="503" y="294" type="curve" smooth="yes"/>
			<point x="503" y="375"/>
			<point x="461" y="442"/>
			<point x="383" y="442" type="curve" smooth="yes"/>
			<point x="351" y="442"/>
			<point x="295" y="432"/>
			<point x="233" y="362" type="curve"/>
			<point x="230" y="362" type="line"/>
			<point x="250" y="433" type="line"/>
		</contour>
		<contour>
			<point x="222" y="314" type="line"/>
			<point x="256" y="367"/>
			<point x="312" y="396"/>
			<point x="346" y="396" type="curve" smooth="yes"/>
			<point x="392" y="396"/>
			<point x="422" y="357"/>
			<point x="422" y="286" type="curve" smooth="yes"/>
			<point x="422" y="179"/>
			<point x="366" y="22"/>
			<point x="239" y="22" type="curve" smooth="yes"/>
			<point x="222" y="22"/>
			<point x="189" y="24"/>
			<point x="165" y="65" type="curve"/>
		</contour>
	</outline>
</glyph>
<glyph name="uni01A9" format="2">
  <advance width="592"/>
  <unicode hex="01A9"/>
  <outline>
    <contour>
      <point x="629" y="646" type="line"/>
      <point x="125" y="646" type="line"/>
      <point x="124" y="645" type="line"/>
      <point x="119" y="620" type="line"/>
      <point x="121" y="618" type="line"/>
      <point x="135" y="618"/>
      <point x="159" y="612"/>
      <point x="180" y="576" type="curve"/>
      <point x="317" y="310" type="line"/>
      <point x="52" y="41" type="line"/>
      <point x="41" y="29"/>
      <point x="29" y="28"/>
      <point x="16" y="28" type="curve"/>
      <point x="13" y="25" type="line"/>
      <point x="9" y="1" type="line"/>
      <point x="11" y="-1" type="line"/>
      <point x="530" y="0" type="line"/>
      <point x="574" y="160" type="line"/>
      <point x="548" y="162" type="line"/>
      <point x="517" y="87"/>
      <point x="495" y="43"/>
      <point x="426" y="43" type="curve" smooth="yes"/>
      <point x="109" y="43" type="line"/>
      <point x="391" y="330" type="line"/>
      <point x="393" y="331" type="line"/>
      <point x="253" y="603" type="line"/>
      <point x="518" y="603" type="line" smooth="yes"/>
      <point x="574" y="603"/>
      <point x="584" y="559"/>
      <point x="593" y="503" type="curve"/>
      <point x="619" y="506" type="line"/>
    </contour>
  </outline>
</glyph>
<glyph name="uni01AD" format="2">
  <advance width="304"/>
  <unicode hex="01AD"/>
  <outline>
    <contour>
      <point x="254" y="391" type="line"/>
      <point x="349" y="391" type="line" smooth="yes"/>
      <point x="358" y="391"/>
      <point x="373" y="395"/>
      <point x="375" y="404" type="curve" smooth="yes"/>
      <point x="379" y="424" type="line"/>
      <point x="379" y="426"/>
      <point x="379" y="427"/>
      <point x="379" y="428" type="curve"/>
      <point x="378" y="429"/>
      <point x="376" y="430"/>
      <point x="373" y="430" type="curve" smooth="yes"/>
      <point x="263" y="430" type="line"/>
      <point x="289" y="542" type="line"/>
      <point x="311" y="624"/>
      <point x="350" y="668"/>
      <point x="392" y="668" type="curve" smooth="yes"/>
      <point x="399" y="668"/>
      <point x="403" y="662"/>
      <point x="403" y="652" type="curve"/>
      <point x="404" y="631"/>
      <point x="412" y="608"/>
      <point x="435" y="608" type="curve" smooth="yes"/>
      <point x="452" y="608"/>
      <point x="470" y="622"/>
      <point x="476" y="646" type="curve"/>
      <point x="477" y="648"/>
      <point x="477" y="650"/>
      <point x="477" y="652" type="curve" smooth="yes"/>
      <point x="477" y="679"/>
      <point x="433" y="697"/>
      <point x="395" y="697" type="curve" smooth="yes"/>
      <point x="289" y="697"/>
      <point x="227" y="598"/>
      <point x="203" y="496" type="curve" smooth="yes"/>
      <point x="199" y="479"/>
      <point x="189" y="430"/>
      <point x="123" y="430" type="curve" smooth="yes"/>
      <point x="120" y="430"/>
      <point x="119" y="429"/>
      <point x="118" y="426" type="curve"/>
      <point x="111" y="395" type="line"/>
      <point x="110" y="392"/>
      <point x="112" y="391"/>
      <point x="115" y="391" type="curve" smooth="yes"/>
      <point x="180" y="391" type="line"/>
      <point x="109" y="87" type="line"/>
      <point x="106" y="71"/>
      <point x="104" y="56"/>
      <point x="104" y="44" type="curve" smooth="yes"/>
      <point x="104" y="4"/>
      <point x="124" y="-12"/>
      <point x="159" y="-12" type="curve" smooth="yes"/>
      <point x="205" y="-12"/>
      <point x="250" y="10"/>
      <point x="299" y="54" type="curve"/>
      <point x="285" y="71" type="line"/>
      <point x="254" y="51"/>
      <point x="233" y="43"/>
      <point x="208" y="43" type="curve" smooth="yes"/>
      <point x="192" y="43"/>
      <point x="185" y="53"/>
      <point x="185" y="74" type="curve" smooth="yes"/>
      <point x="185" y="88"/>
      <point x="188" y="109"/>
      <point x="195" y="135" type="curve"/>
    </contour>
  </outline>
</glyph>
<glyph name="uni01B1" format="2">
  <advance width="666"/>
  <unicode hex="01B1"/>
  <outline>
    <contour>
      <point x="229" y="587" type="curve" smooth="yes"/>
      <point x="258" y="587"/>
      <point x="270" y="581"/>
      <point x="270" y="569" type="curve" smooth="yes"/>
      <point x="270" y="525"/>
      <point x="104" y="406"/>
      <point x="79" y="269" type="curve"/>
      <point x="76" y="249"/>
      <point x="74" y="230"/>
      <point x="74" y="211" type="curve" smooth="yes"/>
      <point x="74" y="88"/>
      <point x="151" y="-12"/>
      <point x="325" y="-12" type="curve" smooth="yes"/>
      <point x="522" y="-12"/>
      <point x="645" y="136"/>
      <point x="668" y="269" type="curve" smooth="yes"/>
      <point x="670" y="281"/>
      <point x="671" y="294"/>
      <point x="671" y="306" type="curve" smooth="yes"/>
      <point x="671" y="420"/>
      <point x="585" y="515"/>
      <point x="585" y="560" type="curve" smooth="yes"/>
      <point x="585" y="577"/>
      <point x="598" y="587"/>
      <point x="636" y="587" type="curve" smooth="yes"/>
      <point x="683" y="587"/>
      <point x="702" y="581"/>
      <point x="702" y="542" type="curve" smooth="yes"/>
      <point x="702" y="537"/>
      <point x="702" y="532"/>
      <point x="701" y="527" type="curve"/>
      <point x="727" y="527" type="line"/>
      <point x="741" y="646" type="line"/>
      <point x="670" y="646" type="line" smooth="yes"/>
      <point x="562" y="646"/>
      <point x="532" y="622"/>
      <point x="532" y="580" type="curve" smooth="yes"/>
      <point x="532" y="523"/>
      <point x="585" y="435"/>
      <point x="585" y="324" type="curve" smooth="yes"/>
      <point x="585" y="306"/>
      <point x="583" y="287"/>
      <point x="580" y="268" type="curve" smooth="yes"/>
      <point x="557" y="139"/>
      <point x="469" y="22"/>
      <point x="331" y="22" type="curve" smooth="yes"/>
      <point x="221" y="22"/>
      <point x="162" y="98"/>
      <point x="162" y="208" type="curve" smooth="yes"/>
      <point x="162" y="227"/>
      <point x="163" y="248"/>
      <point x="167" y="269" type="curve" smooth="yes"/>
      <point x="186" y="371"/>
      <point x="320" y="520"/>
      <point x="320" y="596" type="curve" smooth="yes"/>
      <point x="320" y="626"/>
      <point x="299" y="646"/>
      <point x="241" y="646" type="curve" smooth="yes"/>
      <point x="145" y="646" type="line"/>
      <point x="117" y="527" type="line"/>
      <point x="143" y="527" type="line"/>
      <point x="159" y="583"/>
      <point x="181" y="587"/>
    </contour>
  </outline>
</glyph>
<glyph name="uni01B6" format="2">
  <advance width="411"/>
  <unicode hex="01B6"/>
  <outline>
    <contour>
      <point x="438" y="444" type="line"/>
      <point x="415" y="418"/>
      <point x="400" y="412"/>
      <point x="384" y="412" type="curve" smooth="yes"/>
      <point x="366" y="412"/>
      <point x="352" y="416"/>
      <point x="305" y="426" type="curve"/>
      <point x="257" y="434"/>
      <point x="227" y="439"/>
      <point x="199" y="439" type="curve" smooth="yes"/>
      <point x="164" y="439"/>
      <point x="119" y="374"/>
      <point x="102" y="315" type="curve"/>
      <point x="109" y="308"/>
      <point x="118" y="307"/>
      <point x="129" y="307" type="curve"/>
      <point x="150" y="353"/>
      <point x="167" y="363"/>
      <point x="213" y="363" type="curve" smooth="yes"/>
      <point x="258" y="363"/>
      <point x="296" y="354"/>
      <point x="325" y="354" type="curve" smooth="yes"/>
      <point x="339" y="354"/>
      <point x="347" y="354"/>
      <point x="357" y="356" type="curve"/>
      <point x="256" y="245" type="line"/>
      <point x="161" y="245" type="line" smooth="yes"/>
      <point x="149" y="245"/>
      <point x="135" y="228"/>
      <point x="133" y="216" type="curve" smooth="yes"/>
      <point x="132" y="209"/>
      <point x="134" y="201"/>
      <point x="142" y="201" type="curve" smooth="yes"/>
      <point x="216" y="201" type="line"/>
      <point x="116" y="91" type="line" smooth="yes"/>
      <point x="96" y="68"/>
      <point x="58" y="21"/>
      <point x="54" y="7" type="curve"/>
      <point x="57" y="0"/>
      <point x="62" y="-5"/>
      <point x="68" y="-6" type="curve"/>
      <point x="76" y="-9"/>
      <point x="83" y="-11"/>
      <point x="91" y="-12" type="curve"/>
      <point x="113" y="25"/>
      <point x="138" y="41"/>
      <point x="148" y="41" type="curve" smooth="yes"/>
      <point x="165" y="41"/>
      <point x="192" y="35"/>
      <point x="224" y="15" type="curve" smooth="yes"/>
      <point x="249" y="0"/>
      <point x="282" y="-10"/>
      <point x="310" y="-10" type="curve" smooth="yes"/>
      <point x="353" y="-10"/>
      <point x="386" y="15"/>
      <point x="433" y="123" type="curve"/>
      <point x="427" y="130"/>
      <point x="420" y="133"/>
      <point x="408" y="133" type="curve"/>
      <point x="370" y="72"/>
      <point x="341" y="67"/>
      <point x="313" y="67" type="curve" smooth="yes"/>
      <point x="262" y="67"/>
      <point x="268" y="102"/>
      <point x="176" y="102" type="curve"/>
      <point x="202" y="132"/>
      <point x="235" y="166"/>
      <point x="267" y="201" type="curve"/>
      <point x="347" y="201" type="line" smooth="yes"/>
      <point x="360" y="201"/>
      <point x="374" y="219"/>
      <point x="376" y="231" type="curve" smooth="yes"/>
      <point x="377" y="238"/>
      <point x="375" y="245"/>
      <point x="366" y="245" type="curve" smooth="yes"/>
      <point x="308" y="245" type="line"/>
      <point x="348" y="288"/>
      <point x="386" y="330"/>
      <point x="412" y="362" type="curve" smooth="yes"/>
      <point x="437" y="392"/>
      <point x="457" y="413"/>
      <point x="467" y="429" type="curve"/>
    </contour>
  </outline>
</glyph>
<glyph name="uni01BD" format="2">
	<unicode hex="01BD"/>
	<advance width="429"/>
	<outline>
		<contour>
			<point x="329" y="138" type="curve"/>
			<point x="311" y="56"/>
			<point x="255" y="22"/>
			<point x="196" y="22" type="curve" smooth="yes"/>
			<point x="164" y="22"/>
			<point x="142" y="41"/>
			<point x="136" y="61" type="curve" smooth="yes"/>
			<point x="131" y="77"/>
			<point x="123" y="91"/>
			<point x="103" y="91" type="curve" smooth="yes"/>
			<point x="85" y="91"/>
			<point x="66" y="78"/>
			<point x="62" y="59" type="curve" smooth="yes"/>
			<point x="61" y="57"/>
			<point x="61" y="55"/>
			<point x="61" y="53" type="curve" smooth="yes"/>
			<point x="61" y="16"/>
			<point x="137" y="-12"/>
			<point x="191" y="-12" type="curve" smooth="yes"/>
			<point x="321" y="-12"/>
			<point x="385" y="78"/>
			<point x="403" y="154" type="curve" smooth="yes"/>
			<point x="406" y="166"/>
			<point x="407" y="178"/>
			<point x="407" y="190" type="curve" smooth="yes"/>
			<point x="407" y="253"/>
			<point x="367" y="312"/>
			<point x="284" y="312" type="curve" smooth="yes"/>
			<point x="262" y="312"/>
			<point x="210" y="308"/>
			<point x="196" y="307" type="curve"/>
			<point x="228" y="370" type="line"/>
			<point x="424" y="370" type="line"/>
			<point x="424" y="372" type="line"/>
			<point x="445" y="430" type="line"/>
			<point x="140" y="430" type="line"/>
			<point x="187" y="375" type="line"/>
			<point x="125" y="254" type="line"/>
			<point x="157" y="263"/>
			<point x="220" y="268"/>
			<point x="248" y="268" type="curve" smooth="yes"/>
			<point x="302" y="268"/>
			<point x="333" y="218"/>
			<point x="333" y="167" type="curve" smooth="yes"/>
			<point x="333" y="157"/>
			<point x="332" y="147"/>
		</contour>
	</outline>
</glyph>
<glyph name="uni01BE" format="2">
  <advance width="429"/>
  <unicode hex="01BE"/>
  <outline>
    <contour>
      <point x="347" y="180" type="curve" smooth="yes"/>
      <point x="327" y="92"/>
      <point x="262" y="22"/>
      <point x="185" y="22" type="curve" smooth="yes"/>
      <point x="154" y="22"/>
      <point x="143" y="41"/>
      <point x="137" y="60" type="curve"/>
      <point x="131" y="76"/>
      <point x="123" y="91"/>
      <point x="103" y="91" type="curve" smooth="yes"/>
      <point x="85" y="91"/>
      <point x="66" y="78"/>
      <point x="62" y="59" type="curve"/>
      <point x="61" y="57"/>
      <point x="61" y="54"/>
      <point x="61" y="52" type="curve" smooth="yes"/>
      <point x="61" y="16"/>
      <point x="127" y="-12"/>
      <point x="180" y="-12" type="curve" smooth="yes"/>
      <point x="282" y="-12"/>
      <point x="392" y="76"/>
      <point x="420" y="196" type="curve"/>
      <point x="424" y="210"/>
      <point x="425" y="225"/>
      <point x="425" y="238" type="curve" smooth="yes"/>
      <point x="425" y="313"/>
      <point x="377" y="378"/>
      <point x="267" y="378" type="curve"/>
      <point x="213" y="376" type="line"/>
      <point x="237" y="442" type="line"/>
      <point x="319" y="442" type="line"/>
      <point x="328" y="481" type="line"/>
      <point x="252" y="481" type="line"/>
      <point x="283" y="567" type="line"/>
      <point x="244" y="573" type="line"/>
      <point x="210" y="481" type="line"/>
      <point x="121" y="481" type="line"/>
      <point x="111" y="442" type="line"/>
      <point x="196" y="442" type="line"/>
      <point x="152" y="321" type="line"/>
      <point x="183" y="331"/>
      <point x="205" y="334"/>
      <point x="232" y="334" type="curve" smooth="yes"/>
      <point x="288" y="334"/>
      <point x="351" y="293"/>
      <point x="351" y="216" type="curve" smooth="yes"/>
      <point x="351" y="205"/>
      <point x="350" y="192"/>
    </contour>
  </outline>
</glyph>
<glyph name="uni01C0" format="2">
  <advance width="205"/>
  <unicode hex="01C0"/>
  <outline>
    <contour>
      <point x="121" y="1" type="line"/>
      <point x="271" y="652" type="line"/>
      <point x="231" y="652" type="line"/>
      <point x="82" y="1" type="line"/>
    </contour>
  </outline>
</glyph>
<glyph name="uni01C1" format="2">
  <advance width="205"/>
  <unicode hex="01C1"/>
  <outline>
    <contour>
      <point x="121" y="1" type="line"/>
      <point x="271" y="652" type="line"/>
      <point x="231" y="652" type="line"/>
      <point x="82" y="1" type="line"/>
    </contour>
    <contour>
      <point x="223" y="1" type="line"/>
      <point x="373" y="652" type="line"/>
      <point x="333" y="652" type="line"/>
      <point x="184" y="1" type="line"/>
    </contour>
  </outline>
</glyph>
<glyph name="uni01C2" format="2">
	<unicode hex="01C2"/>
	<advance width="332"/>
	<outline>
		<contour>
			<point x="185" y="1" type="line"/>
			<point x="243" y="256" type="line"/>
			<point x="349" y="256" type="line"/>
			<point x="358" y="295" type="line"/>
			<point x="252" y="295" type="line"/>
			<point x="267" y="358" type="line"/>
			<point x="373" y="358" type="line"/>
			<point x="382" y="397" type="line"/>
			<point x="276" y="397" type="line"/>
			<point x="334" y="652" type="line"/>
			<point x="295" y="652" type="line"/>
			<point x="236" y="397" type="line"/>
			<point x="134" y="397" type="line"/>
			<point x="125" y="358" type="line"/>
			<point x="227" y="358" type="line"/>
			<point x="213" y="295" type="line"/>
			<point x="111" y="295" type="line"/>
			<point x="102" y="256" type="line"/>
			<point x="204" y="256" type="line"/>
			<point x="145" y="1" type="line"/>
		</contour>
	</outline>
</glyph>
<glyph name="uni01DD" format="2">
  <advance width="421"/>
  <unicode hex="01DD"/>
  <outline>
    <contour>
      <point x="313" y="230" type="curve"/>
      <point x="187" y="203"/>
      <point x="115" y="174"/>
      <point x="81" y="141" type="curve" smooth="yes"/>
      <point x="51" y="112"/>
      <point x="50" y="78"/>
      <point x="50" y="60" type="curve" smooth="yes"/>
      <point x="50" y="25"/>
      <point x="91" y="-10"/>
      <point x="172" y="-10" type="curve" smooth="yes"/>
      <point x="366" y="-10"/>
      <point x="443" y="160"/>
      <point x="443" y="287" type="curve" smooth="yes"/>
      <point x="443" y="372"/>
      <point x="417" y="439"/>
      <point x="297" y="439" type="curve" smooth="yes"/>
      <point x="230" y="439"/>
      <point x="152" y="406"/>
      <point x="93" y="330" type="curve"/>
      <point x="98" y="319"/>
      <point x="113" y="305"/>
      <point x="125" y="305" type="curve"/>
      <point x="182" y="363"/>
      <point x="213" y="379"/>
      <point x="261" y="379" type="curve" smooth="yes"/>
      <point x="300" y="379"/>
      <point x="314" y="331"/>
      <point x="314" y="264" type="curve" smooth="yes"/>
      <point x="314" y="259"/>
      <point x="314" y="238"/>
    </contour>
    <contour>
      <point x="163" y="59" type="curve" smooth="yes"/>
      <point x="163" y="149"/>
      <point x="253" y="183"/>
      <point x="306" y="192" type="curve"/>
      <point x="272" y="51"/>
      <point x="234" y="31"/>
      <point x="195" y="31" type="curve" smooth="yes"/>
      <point x="174" y="31"/>
      <point x="163" y="39"/>
    </contour>
  </outline>
</glyph>
<glyph name="uni01DE" format="2">
  <advance width="710"/>
  <unicode hex="01DE"/>
  <outline>
    <component base="A"/>
    <contour>
      <point x="617" y="806" type="line" smooth="yes"/>
      <point x="630" y="806"/>
      <point x="644" y="824"/>
      <point x="647" y="836" type="curve"/>
      <point x="648" y="842"/>
      <point x="645" y="850"/>
      <point x="635" y="850" type="curve" smooth="yes"/>
      <point x="390" y="850" type="line" smooth="yes"/>
      <point x="379" y="850"/>
      <point x="365" y="833"/>
      <point x="363" y="821" type="curve"/>
      <point x="361" y="814"/>
      <point x="364" y="806"/>
      <point x="373" y="806" type="curve" smooth="yes"/>
    </contour>
    <contour>
      <point x="313" y="706" type="curve" smooth="yes"/>
      <point x="313" y="680"/>
      <point x="335" y="658"/>
      <point x="361" y="658" type="curve" smooth="yes"/>
      <point x="387" y="658"/>
      <point x="409" y="680"/>
      <point x="409" y="706" type="curve" smooth="yes"/>
      <point x="409" y="732"/>
      <point x="387" y="754"/>
      <point x="361" y="754" type="curve" smooth="yes"/>
      <point x="335" y="754"/>
      <point x="313" y="732"/>
    </contour>
    <contour>
      <point x="550" y="706" type="curve" smooth="yes"/>
      <point x="550" y="680"/>
      <point x="572" y="658"/>
      <point x="598" y="658" type="curve" smooth="yes"/>
      <point x="624" y="658"/>
      <point x="646" y="680"/>
      <point x="646" y="706" type="curve" smooth="yes"/>
      <point x="646" y="732"/>
      <point x="624" y="754"/>
      <point x="598" y="754" type="curve" smooth="yes"/>
      <point x="572" y="754"/>
      <point x="550" y="732"/>
    </contour>
  </outline>
</glyph>
<glyph name="Aringacute" format="2">
  <advance width="710"/>
  <unicode hex="01FA"/>
  <outline>
    <contour>
      <point x="557" y="703" type="line"/>
      <point x="775" y="784" type="line"/>
      <point x="710" y="829" type="line"/>
      <point x="554" y="736" type="line"/>
    </contour>
    <contour>
      <point x="6" y="-2" type="curve"/>
      <point x="42" y="-1"/>
      <point x="60" y="0"/>
      <point x="97" y="0" type="curve" smooth="yes"/>
      <point x="136" y="0"/>
      <point x="189" y="-1"/>
      <point x="224" y="-2" type="curve"/>
      <point x="231" y="4"/>
      <point x="236" y="28"/>
      <point x="231" y="34" type="curve"/>
      <point x="208" y="37" type="line" smooth="yes"/>
      <point x="186" y="40"/>
      <point x="171" y="48"/>
      <point x="171" y="61" type="curve" smooth="yes"/>
      <point x="171" y="65"/>
      <point x="172" y="69"/>
      <point x="174" y="73" type="curve"/>
      <point x="252" y="218" type="line" smooth="yes"/>
      <point x="259" y="231"/>
      <point x="266" y="235"/>
      <point x="289" y="235" type="curve" smooth="yes"/>
      <point x="471" y="235" type="line"/>
      <point x="492" y="73" type="line"/>
      <point x="493" y="68"/>
      <point x="493" y="63"/>
      <point x="493" y="62" type="curve" smooth="yes"/>
      <point x="493" y="48"/>
      <point x="478" y="39"/>
      <point x="452" y="37" type="curve" smooth="yes"/>
      <point x="414" y="34" type="line"/>
      <point x="408" y="28"/>
      <point x="403" y="5"/>
      <point x="408" y="-2" type="curve"/>
      <point x="444" y="-1"/>
      <point x="535" y="0"/>
      <point x="575" y="0" type="curve" smooth="yes"/>
      <point x="615" y="0"/>
      <point x="657" y="-1"/>
      <point x="700" y="-2" type="curve"/>
      <point x="706" y="3"/>
      <point x="711" y="26"/>
      <point x="707" y="34" type="curve"/>
      <point x="689" y="37" type="line" smooth="yes"/>
      <point x="661" y="42"/>
      <point x="634" y="61"/>
      <point x="631" y="82" type="curve" smooth="yes"/>
      <point x="544" y="658" type="line"/>
      <point x="539" y="658" type="line"/>
      <point x="524" y="647"/>
      <point x="440" y="614"/>
      <point x="430" y="614" type="curve"/>
      <point x="122" y="99" type="line"/>
      <point x="95" y="51"/>
      <point x="66" y="34"/>
      <point x="13" y="34" type="curve"/>
      <point x="7" y="28"/>
      <point x="1" y="6"/>
    </contour>
    <contour>
      <point x="317" y="283" type="line" smooth="yes"/>
      <point x="301" y="283"/>
      <point x="293" y="285"/>
      <point x="293" y="290" type="curve" smooth="yes"/>
      <point x="293" y="292"/>
      <point x="294" y="294"/>
      <point x="295" y="296" type="curve"/>
      <point x="424" y="520" type="line"/>
      <point x="430" y="520" type="line"/>
      <point x="463" y="283" type="line"/>
    </contour>
    <contour>
      <point x="393" y="673" type="curve" smooth="yes"/>
      <point x="393" y="634"/>
      <point x="424" y="603"/>
      <point x="466" y="603" type="curve" smooth="yes"/>
      <point x="518" y="603"/>
      <point x="570" y="652"/>
      <point x="570" y="703" type="curve" smooth="yes"/>
      <point x="570" y="742"/>
      <point x="539" y="771"/>
      <point x="498" y="771" type="curve" smooth="yes"/>
      <point x="445" y="771"/>
      <point x="393" y="723"/>
    </contour>
    <contour>
      <point x="494" y="742" type="curve" smooth="yes"/>
      <point x="518" y="742"/>
      <point x="533" y="727"/>
      <point x="533" y="702" type="curve" smooth="yes"/>
      <point x="533" y="666"/>
      <point x="502" y="632"/>
      <point x="470" y="632" type="curve" smooth="yes"/>
      <point x="446" y="632"/>
      <point x="430" y="650"/>
      <point x="430" y="676" type="curve" smooth="yes"/>
      <point x="430" y="712"/>
      <point x="459" y="742"/>
    </contour>
  </outline>
</glyph>
<glyph name="uni0200" format="2">
	<unicode hex="0200"/>
	<advance width="710"/>
	<outline>
		<component base="A"/>
		<contour>
			<point x="334" y="775" type="curve" smooth="yes"/>
			<point x="334" y="770"/>
			<point x="336" y="766"/>
			<point x="339" y="763" type="curve"/>
			<point x="418" y="679" type="line"/>
			<point x="419" y="677"/>
			<point x="422" y="677"/>
			<point x="424" y="677" type="curve" smooth="yes"/>
			<point x="433" y="677"/>
			<point x="442" y="686"/>
			<point x="442" y="693" type="curve" smooth="yes"/>
			<point x="442" y="695" type="line"/>
			<point x="405" y="809" type="line" smooth="yes"/>
			<point x="402" y="818"/>
			<point x="395" y="821"/>
			<point x="382" y="821" type="curve" smooth="yes"/>
			<point x="364" y="821"/>
			<point x="334" y="801"/>
		</contour>
		<contour>
			<point x="552" y="681" type="curve" smooth="yes"/>
			<point x="558" y="681"/>
			<point x="570" y="687"/>
			<point x="570" y="696" type="curve" smooth="yes"/>
			<point x="570" y="699" type="line"/>
			<point x="543" y="793" type="line" smooth="yes"/>
			<point x="536" y="816"/>
			<point x="532" y="826"/>
			<point x="515" y="826" type="curve" smooth="yes"/>
			<point x="488" y="826"/>
			<point x="467" y="799"/>
			<point x="467" y="780" type="curve" smooth="yes"/>
			<point x="467" y="776"/>
			<point x="468" y="772"/>
			<point x="470" y="769" type="curve"/>
			<point x="545" y="683" type="line"/>
			<point x="547" y="682"/>
			<point x="550" y="681"/>
		</contour>
	</outline>
</glyph>
<glyph name="uni0201" format="2">
  <advance width="486"/>
  <unicode hex="0201"/>
  <outline>
    <contour>
      <point x="410" y="433" type="curve"/>
      <point x="383" y="436"/>
      <point x="370" y="439"/>
      <point x="330" y="439" type="curve" smooth="yes"/>
      <point x="223" y="439"/>
      <point x="78" y="282"/>
      <point x="78" y="125" type="curve" smooth="yes"/>
      <point x="78" y="69"/>
      <point x="91" y="-10"/>
      <point x="175" y="-10" type="curve" smooth="yes"/>
      <point x="228" y="-10"/>
      <point x="284" y="45"/>
      <point x="344" y="134" type="curve"/>
      <point x="346" y="132" type="line"/>
      <point x="333" y="90" type="line" smooth="yes"/>
      <point x="326" y="67"/>
      <point x="323" y="47"/>
      <point x="323" y="35" type="curve" smooth="yes"/>
      <point x="323" y="16"/>
      <point x="330" y="-10"/>
      <point x="364" y="-10" type="curve" smooth="yes"/>
      <point x="426" y="-10"/>
      <point x="466" y="30"/>
      <point x="492" y="87" type="curve"/>
      <point x="487" y="96"/>
      <point x="482" y="103"/>
      <point x="469" y="103" type="curve"/>
      <point x="442" y="66"/>
      <point x="423" y="50"/>
      <point x="413" y="50" type="curve" smooth="yes"/>
      <point x="410" y="50"/>
      <point x="401" y="52"/>
      <point x="401" y="64" type="curve" smooth="yes"/>
      <point x="401" y="73"/>
      <point x="407" y="101"/>
      <point x="411" y="120" type="curve" smooth="yes"/>
      <point x="480" y="431" type="line"/>
      <point x="473" y="431"/>
      <point x="467" y="431"/>
      <point x="460" y="431" type="curve"/>
      <point x="442" y="430"/>
      <point x="425" y="429"/>
    </contour>
    <contour>
      <point x="360" y="219" type="curve"/>
      <point x="311" y="129"/>
      <point x="234" y="45"/>
      <point x="202" y="45" type="curve" smooth="yes"/>
      <point x="168" y="45"/>
      <point x="158" y="85"/>
      <point x="158" y="141" type="curve" smooth="yes"/>
      <point x="158" y="247"/>
      <point x="241" y="408"/>
      <point x="333" y="408" type="curve" smooth="yes"/>
      <point x="354" y="408"/>
      <point x="376" y="401"/>
      <point x="395" y="389" type="curve"/>
      <point x="395" y="389"/>
      <point x="385" y="283"/>
    </contour>
    <contour>
      <point x="376" y="651" type="curve" smooth="yes"/>
      <point x="345" y="651"/>
      <point x="330" y="629"/>
      <point x="327" y="615" type="curve" smooth="yes"/>
      <point x="326" y="610"/>
      <point x="325" y="604"/>
      <point x="329" y="599" type="curve"/>
      <point x="407" y="478" type="line" smooth="yes"/>
      <point x="408" y="476"/>
      <point x="410" y="475"/>
      <point x="413" y="475" type="curve" smooth="yes"/>
      <point x="424" y="475"/>
      <point x="429" y="485"/>
      <point x="430" y="488" type="curve"/>
      <point x="430" y="489"/>
      <point x="431" y="491"/>
      <point x="430" y="494" type="curve" smooth="yes"/>
      <point x="396" y="637" type="line" smooth="yes"/>
      <point x="394" y="646"/>
      <point x="387" y="651"/>
    </contour>
    <contour>
      <point x="239" y="645" type="curve" smooth="yes"/>
      <point x="215" y="645"/>
      <point x="197" y="627"/>
      <point x="194" y="609" type="curve"/>
      <point x="192" y="603"/>
      <point x="193" y="596"/>
      <point x="197" y="590" type="curve"/>
      <point x="288" y="480" type="line" smooth="yes"/>
      <point x="290" y="478"/>
      <point x="292" y="477"/>
      <point x="295" y="477" type="curve" smooth="yes"/>
      <point x="297" y="477"/>
      <point x="309" y="481"/>
      <point x="311" y="491" type="curve"/>
      <point x="311" y="492"/>
      <point x="311" y="494"/>
      <point x="310" y="495" type="curve"/>
      <point x="261" y="634" type="line"/>
      <point x="257" y="643"/>
      <point x="251" y="645"/>
    </contour>
  </outline>
</glyph>
<glyph name="uni0204" format="2">
  <advance width="526"/>
  <unicode hex="0204"/>
  <outline>
    <contour>
      <point x="553" y="646" type="curve" smooth="yes"/>
      <point x="553" y="648"/>
      <point x="552" y="649"/>
      <point x="549" y="649" type="curve"/>
      <point x="532" y="646"/>
      <point x="526" y="645"/>
      <point x="503" y="645" type="curve" smooth="yes"/>
      <point x="260" y="645" type="line" smooth="yes"/>
      <point x="223" y="645"/>
      <point x="184" y="646"/>
      <point x="139" y="647" type="curve"/>
      <point x="137" y="645" type="line"/>
      <point x="133" y="625" type="line" smooth="yes"/>
      <point x="132" y="622"/>
      <point x="132" y="618"/>
      <point x="139" y="618" type="curve"/>
      <point x="167" y="616" type="line" smooth="yes"/>
      <point x="197" y="614"/>
      <point x="210" y="606"/>
      <point x="210" y="585" type="curve" smooth="yes"/>
      <point x="210" y="581"/>
      <point x="209" y="576"/>
      <point x="208" y="571" type="curve" smooth="yes"/>
      <point x="111" y="72" type="line" smooth="yes"/>
      <point x="105" y="44"/>
      <point x="91" y="32"/>
      <point x="53" y="29" type="curve" smooth="yes"/>
      <point x="24" y="27" type="line"/>
      <point x="18" y="27"/>
      <point x="16" y="23"/>
      <point x="15" y="20" type="curve" smooth="yes"/>
      <point x="11" y="0" type="line"/>
      <point x="13" y="-2" type="line"/>
      <point x="58" y="-1"/>
      <point x="98" y="0"/>
      <point x="135" y="0" type="curve" smooth="yes"/>
      <point x="341" y="0" type="line" smooth="yes"/>
      <point x="387" y="0"/>
      <point x="463" y="-2"/>
      <point x="463" y="-2" type="curve"/>
      <point x="484" y="50"/>
      <point x="509" y="113"/>
      <point x="531" y="165" type="curve"/>
      <point x="502" y="170" type="line"/>
      <point x="469" y="98"/>
      <point x="420" y="39"/>
      <point x="347" y="39" type="curve" smooth="yes"/>
      <point x="217" y="39" type="line" smooth="yes"/>
      <point x="199" y="39"/>
      <point x="187" y="43"/>
      <point x="187" y="62" type="curve" smooth="yes"/>
      <point x="187" y="65"/>
      <point x="187" y="68"/>
      <point x="188" y="72" type="curve" smooth="yes"/>
      <point x="237" y="323" type="line"/>
      <point x="359" y="323" type="line" smooth="yes"/>
      <point x="389" y="323"/>
      <point x="401" y="316"/>
      <point x="401" y="293" type="curve" smooth="yes"/>
      <point x="401" y="291"/>
      <point x="400" y="288"/>
      <point x="400" y="285" type="curve"/>
      <point x="398" y="260" type="line"/>
      <point x="397" y="257"/>
      <point x="398" y="252"/>
      <point x="403" y="252" type="curve" smooth="yes"/>
      <point x="424" y="252" type="line"/>
      <point x="429" y="255" type="line"/>
      <point x="433" y="295"/>
      <point x="438" y="322"/>
      <point x="442" y="342" type="curve" smooth="yes"/>
      <point x="445" y="362"/>
      <point x="452" y="392"/>
      <point x="463" y="432" type="curve"/>
      <point x="460" y="436" type="line"/>
      <point x="439" y="436" type="line" smooth="yes"/>
      <point x="435" y="436"/>
      <point x="431" y="432"/>
      <point x="430" y="428" type="curve" smooth="yes"/>
      <point x="423" y="403" type="line"/>
      <point x="414" y="375"/>
      <point x="400" y="361"/>
      <point x="367" y="361" type="curve" smooth="yes"/>
      <point x="245" y="361" type="line"/>
      <point x="285" y="571" type="line" smooth="yes"/>
      <point x="290" y="595"/>
      <point x="304" y="605"/>
      <point x="327" y="605" type="curve" smooth="yes"/>
      <point x="427" y="605" type="line" smooth="yes"/>
      <point x="499" y="605"/>
      <point x="509" y="565"/>
      <point x="517" y="496" type="curve"/>
      <point x="545" y="501" type="line"/>
      <point x="549" y="542"/>
      <point x="553" y="638"/>
    </contour>
    <contour>
      <point x="307" y="779" type="curve" smooth="yes"/>
      <point x="307" y="774"/>
      <point x="309" y="770"/>
      <point x="312" y="767" type="curve" smooth="yes"/>
      <point x="391" y="683" type="line"/>
      <point x="392" y="681"/>
      <point x="395" y="681"/>
      <point x="397" y="681" type="curve" smooth="yes"/>
      <point x="406" y="681"/>
      <point x="415" y="690"/>
      <point x="415" y="697" type="curve" smooth="yes"/>
      <point x="415" y="699" type="line"/>
      <point x="378" y="813" type="line" smooth="yes"/>
      <point x="375" y="822"/>
      <point x="368" y="825"/>
      <point x="355" y="825" type="curve" smooth="yes"/>
      <point x="337" y="825"/>
      <point x="307" y="805"/>
    </contour>
    <contour>
      <point x="525" y="685" type="curve" smooth="yes"/>
      <point x="531" y="685"/>
      <point x="543" y="691"/>
      <point x="543" y="700" type="curve" smooth="yes"/>
      <point x="543" y="703" type="line"/>
      <point x="516" y="797" type="line" smooth="yes"/>
      <point x="509" y="820"/>
      <point x="505" y="830"/>
      <point x="488" y="830" type="curve" smooth="yes"/>
      <point x="461" y="830"/>
      <point x="440" y="803"/>
      <point x="440" y="784" type="curve" smooth="yes"/>
      <point x="440" y="780"/>
      <point x="441" y="776"/>
      <point x="443" y="773" type="curve" smooth="yes"/>
      <point x="518" y="687" type="line"/>
      <point x="520" y="686"/>
      <point x="523" y="685"/>
    </contour>
  </outline>
</glyph>
<glyph name="uni0225" format="2">
	<unicode hex="0225"/>
	<advance width="448"/>
	<outline>
		<contour>
			<point x="329" y="39" type="curve" smooth="yes"/>
			<point x="133" y="39" type="line"/>
			<point x="443" y="387" type="line" smooth="yes"/>
			<point x="456" y="401"/>
			<point x="466" y="412"/>
			<point x="467" y="419" type="curve"/>
			<point x="468" y="420"/>
			<point x="468" y="421"/>
			<point x="468" y="422" type="curve" smooth="yes"/>
			<point x="468" y="428"/>
			<point x="462" y="430"/>
			<point x="454" y="430" type="curve" smooth="yes"/>
			<point x="214" y="430" type="line" smooth="yes"/>
			<point x="187" y="430"/>
			<point x="182" y="435"/>
			<point x="182" y="436" type="curve" smooth="yes"/>
			<point x="182" y="438" type="line"/>
			<point x="157" y="438" type="line"/>
			<point x="156" y="436" type="line"/>
			<point x="103" y="301" type="line"/>
			<point x="102" y="298" type="line"/>
			<point x="129" y="298" type="line"/>
			<point x="130" y="300" type="line"/>
			<point x="142" y="330"/>
			<point x="165" y="369"/>
			<point x="179" y="378" type="curve" smooth="yes"/>
			<point x="191" y="386"/>
			<point x="207" y="391"/>
			<point x="227" y="391" type="curve" smooth="yes"/>
			<point x="369" y="391" type="line"/>
			<point x="49" y="32" type="line"/>
			<point x="42" y="23"/>
			<point x="37" y="19"/>
			<point x="36" y="13" type="curve"/>
			<point x="36" y="12" type="line"/>
			<point x="35" y="3"/>
			<point x="47" y="0"/>
			<point x="68" y="0" type="curve" smooth="yes"/>
			<point x="271" y="0" type="line" smooth="yes"/>
			<point x="305" y="0"/>
			<point x="331" y="-11"/>
			<point x="351" y="-33" type="curve" smooth="yes"/>
			<point x="361" y="-44"/>
			<point x="366" y="-58"/>
			<point x="366" y="-75" type="curve" smooth="yes"/>
			<point x="366" y="-83"/>
			<point x="365" y="-91"/>
			<point x="363" y="-101" type="curve" smooth="yes"/>
			<point x="359" y="-117"/>
			<point x="350" y="-133"/>
			<point x="335" y="-151" type="curve"/>
			<point x="364" y="-151" type="line"/>
			<point x="381" y="-139"/>
			<point x="397" y="-122"/>
			<point x="408" y="-104" type="curve" smooth="yes"/>
			<point x="420" y="-84"/>
			<point x="428" y="-66"/>
			<point x="432" y="-49" type="curve" smooth="yes"/>
			<point x="434" y="-43"/>
			<point x="434" y="-38"/>
			<point x="434" y="-33" type="curve" smooth="yes"/>
			<point x="434" y="-16"/>
			<point x="427" y="-3"/>
			<point x="414" y="11" type="curve" smooth="yes"/>
			<point x="396" y="29"/>
			<point x="368" y="39"/>
		</contour>
	</outline>
</glyph>
<glyph name="uni022A" format="2">
  <advance width="668"/>
  <unicode hex="022A"/>
  <outline>
    <contour>
      <point x="699" y="329" type="curve" smooth="yes"/>
      <point x="704" y="355"/>
      <point x="706" y="380"/>
      <point x="706" y="403" type="curve" smooth="yes"/>
      <point x="706" y="559"/>
      <point x="601" y="658"/>
      <point x="455" y="658" type="curve" smooth="yes"/>
      <point x="284" y="658"/>
      <point x="133" y="506"/>
      <point x="95" y="310" type="curve" smooth="yes"/>
      <point x="90" y="283"/>
      <point x="87" y="258"/>
      <point x="87" y="234" type="curve" smooth="yes"/>
      <point x="87" y="82"/>
      <point x="188" y="-10"/>
      <point x="331" y="-10" type="curve" smooth="yes"/>
      <point x="515" y="-10"/>
      <point x="660" y="129"/>
    </contour>
    <contour>
      <point x="436" y="624" type="curve" smooth="yes"/>
      <point x="544" y="624"/>
      <point x="617" y="552"/>
      <point x="617" y="410" type="curve" smooth="yes"/>
      <point x="617" y="380"/>
      <point x="614" y="347"/>
      <point x="607" y="310" type="curve" smooth="yes"/>
      <point x="572" y="131"/>
      <point x="467" y="24"/>
      <point x="357" y="24" type="curve" smooth="yes"/>
      <point x="260" y="24"/>
      <point x="178" y="103"/>
      <point x="178" y="244" type="curve" smooth="yes"/>
      <point x="178" y="270"/>
      <point x="181" y="297"/>
      <point x="187" y="327" type="curve" smooth="yes"/>
      <point x="227" y="537"/>
      <point x="349" y="624"/>
    </contour>
    <contour>
      <point x="582" y="765" type="line" smooth="yes"/>
      <point x="593" y="765"/>
      <point x="605" y="783"/>
      <point x="607" y="795" type="curve" smooth="yes"/>
      <point x="608" y="801"/>
      <point x="607" y="809"/>
      <point x="598" y="809" type="curve" smooth="yes"/>
      <point x="390" y="809" type="line" smooth="yes"/>
      <point x="380" y="809"/>
      <point x="368" y="792"/>
      <point x="366" y="780" type="curve" smooth="yes"/>
      <point x="365" y="773"/>
      <point x="367" y="765"/>
      <point x="375" y="765" type="curve" smooth="yes"/>
    </contour>
    <contour>
      <point x="209" y="706" type="curve" smooth="yes"/>
      <point x="209" y="680"/>
      <point x="231" y="658"/>
      <point x="257" y="658" type="curve" smooth="yes"/>
      <point x="283" y="658"/>
      <point x="305" y="680"/>
      <point x="305" y="706" type="curve" smooth="yes"/>
      <point x="305" y="732"/>
      <point x="283" y="754"/>
      <point x="257" y="754" type="curve" smooth="yes"/>
      <point x="231" y="754"/>
      <point x="209" y="732"/>
    </contour>
    <contour>
      <point x="618" y="706" type="curve" smooth="yes"/>
      <point x="618" y="680"/>
      <point x="640" y="658"/>
      <point x="666" y="658" type="curve" smooth="yes"/>
      <point x="692" y="658"/>
      <point x="714" y="680"/>
      <point x="714" y="706" type="curve" smooth="yes"/>
      <point x="714" y="732"/>
      <point x="692" y="754"/>
      <point x="666" y="754" type="curve" smooth="yes"/>
      <point x="640" y="754"/>
      <point x="618" y="732"/>
    </contour>
  </outline>
</glyph>
<glyph name="uni0237" format="2">
	<unicode hex="0237"/>
	<advance width="310"/>
	<outline>
		<contour>
			<point x="121" y="176" type="line" smooth="yes"/>
			<point x="92" y="33"/>
			<point x="62" y="-172"/>
			<point x="14" y="-172" type="curve" smooth="yes"/>
			<point x="-23" y="-172"/>
			<point x="-10" y="-99"/>
			<point x="-76" y="-99" type="curve" smooth="yes"/>
			<point x="-94" y="-99"/>
			<point x="-115" y="-114"/>
			<point x="-115" y="-144" type="curve" smooth="yes"/>
			<point x="-115" y="-191"/>
			<point x="-64" y="-207"/>
			<point x="-5" y="-207" type="curve" smooth="yes"/>
			<point x="126" y="-207"/>
			<point x="178" y="-125"/>
			<point x="205" y="0" type="curve" smooth="yes"/>
			<point x="258" y="249" type="line"/>
			<point x="136" y="249" type="line"/>
		</contour>
		<contour>
			<point x="136" y="249" type="line"/>
			<point x="258" y="249" type="line"/>
			<point x="273" y="319" type="line" smooth="yes"/>
			<point x="282" y="359"/>
			<point x="294" y="401"/>
			<point x="294" y="418" type="curve" smooth="yes"/>
			<point x="294" y="430"/>
			<point x="288" y="436"/>
			<point x="277" y="436" type="curve"/>
			<point x="246" y="431"/>
			<point x="149" y="423"/>
			<point x="101" y="423" type="curve"/>
			<point x="94" y="415"/>
			<point x="93" y="393"/>
			<point x="99" y="384" type="curve"/>
			<point x="139" y="381" type="line" smooth="yes"/>
			<point x="151" y="380"/>
			<point x="157" y="371"/>
			<point x="157" y="359" type="curve" smooth="yes"/>
			<point x="157" y="352"/>
			<point x="155" y="339"/>
			<point x="151" y="320" type="curve" smooth="yes"/>
		</contour>
	</outline>
	<anchor name="t.uni0302" x="248" y="500"/>
	<guideline x="151" y="320" angle="258.071"/>
	<guideline x="258" y="249" angle="77.9052"/>
</glyph>
<glyph name="uni023B" format="2">
	<unicode hex="023B"/>
	<advance width="644"/>
	<outline>
		<contour>
			<point x="210" y="114" type="curve"/>
			<point x="592" y="579" type="line"/>
			<point x="628" y="547"/>
			<point x="641" y="499"/>
			<point x="645" y="444" type="curve"/>
			<point x="676" y="448" type="line"/>
			<point x="683" y="613" type="line"/>
			<point x="663" y="613"/>
			<point x="647" y="618"/>
			<point x="630" y="624" type="curve"/>
			<point x="736" y="754" type="line"/>
			<point x="686" y="754" type="line"/>
			<point x="591" y="639" type="line"/>
			<point x="563" y="649"/>
			<point x="527" y="658"/>
			<point x="472" y="658" type="curve" smooth="yes"/>
			<point x="307" y="658"/>
			<point x="127" y="512"/>
			<point x="92" y="315" type="curve" smooth="yes"/>
			<point x="88" y="293"/>
			<point x="86" y="271"/>
			<point x="86" y="250" type="curve" smooth="yes"/>
			<point x="86" y="190"/>
			<point x="102" y="132"/>
			<point x="135" y="86" type="curve"/>
			<point x="18" y="-57" type="line"/>
			<point x="69" y="-57" type="line"/>
			<point x="161" y="56" type="line"/>
			<point x="205" y="14"/>
			<point x="268" y="-12"/>
			<point x="354" y="-12" type="curve" smooth="yes"/>
			<point x="450" y="-12"/>
			<point x="547" y="36"/>
			<point x="631" y="125" type="curve"/>
			<point x="610" y="140" type="line"/>
			<point x="526" y="62"/>
			<point x="453" y="29"/>
			<point x="360" y="29" type="curve" smooth="yes"/>
			<point x="288" y="29"/>
			<point x="239" y="63"/>
		</contour>
		<contour>
			<point x="192" y="154" type="line"/>
			<point x="181" y="187"/>
			<point x="176" y="223"/>
			<point x="176" y="260" type="curve" smooth="yes"/>
			<point x="176" y="284"/>
			<point x="178" y="309"/>
			<point x="183" y="334" type="curve"/>
			<point x="218" y="537"/>
			<point x="375" y="621"/>
			<point x="454" y="621" type="curve" smooth="yes"/>
			<point x="499" y="621"/>
			<point x="533" y="614"/>
			<point x="560" y="601" type="curve"/>
		</contour>
	</outline>
</glyph>
<glyph name="uni023E" format="2">
	<unicode hex="023E"/>
	<advance width="544"/>
	<outline>
		<contour>
			<point x="302" y="283" type="line"/>
			<point x="262" y="76" type="line" smooth="yes"/>
			<point x="256" y="48"/>
			<point x="241" y="34"/>
			<point x="200" y="30" type="curve" smooth="yes"/>
			<point x="169" y="27" type="line"/>
			<point x="165" y="23"/>
			<point x="163" y="7"/>
			<point x="167" y="-2" type="curve"/>
			<point x="212" y="-1"/>
			<point x="248" y="0"/>
			<point x="287" y="0" type="curve" smooth="yes"/>
			<point x="325" y="0"/>
			<point x="370" y="-1"/>
			<point x="414" y="-2" type="curve"/>
			<point x="417" y="2"/>
			<point x="420" y="22"/>
			<point x="417" y="27" type="curve"/>
			<point x="383" y="30" type="line" smooth="yes"/>
			<point x="344" y="33"/>
			<point x="333" y="46"/>
			<point x="339" y="76" type="curve" smooth="yes"/>
			<point x="417" y="477" type="line"/>
			<point x="493" y="606" type="line"/>
			<point x="542" y="606" type="line" smooth="yes"/>
			<point x="594" y="606"/>
			<point x="609" y="580"/>
			<point x="626" y="513" type="curve"/>
			<point x="636" y="513"/>
			<point x="644" y="513"/>
			<point x="656" y="518" type="curve"/>
			<point x="645" y="575"/>
			<point x="643" y="618"/>
			<point x="645" y="658" type="curve"/>
			<point x="612" y="653"/>
			<point x="599" y="645"/>
			<point x="563" y="645" type="curve" smooth="yes"/>
			<point x="517" y="645" type="line"/>
			<point x="581" y="754" type="line"/>
			<point x="530" y="754" type="line"/>
			<point x="466" y="645" type="line"/>
			<point x="229" y="645" type="line" smooth="yes"/>
			<point x="203" y="645"/>
			<point x="182" y="654"/>
			<point x="158" y="658" type="curve"/>
			<point x="145" y="609"/>
			<point x="133" y="581"/>
			<point x="111" y="528" type="curve"/>
			<point x="119" y="523"/>
			<point x="132" y="521"/>
			<point x="141" y="521" type="curve"/>
			<point x="170" y="586"/>
			<point x="195" y="606"/>
			<point x="248" y="606" type="curve" smooth="yes"/>
			<point x="317" y="606" type="line" smooth="yes"/>
			<point x="356" y="606"/>
			<point x="362" y="596"/>
			<point x="357" y="567" type="curve" smooth="yes"/>
			<point x="327" y="411" type="line"/>
			<point x="50" y="-57" type="line"/>
			<point x="101" y="-57" type="line"/>
		</contour>
	</outline>
</glyph>
<glyph name="uni0241" format="2">
	<unicode hex="0241"/>
	<advance width="457"/>
	<outline>
		<contour>
			<point x="193" y="75" type="line" smooth="yes"/>
			<point x="191" y="66"/>
			<point x="190" y="61"/>
			<point x="188" y="54" type="curve" smooth="yes"/>
			<point x="185" y="45"/>
			<point x="179" y="40"/>
			<point x="171" y="35" type="curve" smooth="yes"/>
			<point x="167" y="32"/>
			<point x="158" y="30"/>
			<point x="143" y="29" type="curve"/>
			<point x="123" y="29" type="line" smooth="yes"/>
			<point x="119" y="29"/>
			<point x="113" y="28"/>
			<point x="112" y="21" type="curve"/>
			<point x="107" y="0" type="line"/>
			<point x="107" y="0"/>
			<point x="175" y="2"/>
			<point x="218" y="2" type="curve" smooth="yes"/>
			<point x="260" y="2"/>
			<point x="325" y="0"/>
			<point x="325" y="0" type="curve"/>
			<point x="330" y="22" type="line"/>
			<point x="330" y="25"/>
			<point x="330" y="29"/>
			<point x="323" y="29" type="curve" smooth="yes"/>
			<point x="303" y="29" type="line"/>
			<point x="288" y="30"/>
			<point x="279" y="32"/>
			<point x="277" y="35" type="curve" smooth="yes"/>
			<point x="271" y="41"/>
			<point x="269" y="47"/>
			<point x="270" y="54" type="curve"/>
			<point x="270" y="60"/>
			<point x="271" y="67"/>
			<point x="273" y="76" type="curve" smooth="yes"/>
			<point x="308" y="227" type="line" smooth="yes"/>
			<point x="319" y="272"/>
			<point x="345" y="304"/>
			<point x="378" y="332" type="curve" smooth="yes"/>
			<point x="409" y="357"/>
			<point x="442" y="378"/>
			<point x="472" y="403" type="curve" smooth="yes"/>
			<point x="506" y="432"/>
			<point x="537" y="472"/>
			<point x="547" y="517" type="curve" smooth="yes"/>
			<point x="549" y="528"/>
			<point x="551" y="540"/>
			<point x="551" y="550" type="curve" smooth="yes"/>
			<point x="551" y="579"/>
			<point x="541" y="604"/>
			<point x="522" y="624" type="curve"/>
			<point x="490" y="663"/>
			<point x="440" y="683"/>
			<point x="367" y="683" type="curve" smooth="yes"/>
			<point x="295" y="683"/>
			<point x="233" y="660"/>
			<point x="191" y="624" type="curve"/>
			<point x="161" y="600"/>
			<point x="142" y="571"/>
			<point x="133" y="532" type="curve"/>
			<point x="131" y="527"/>
			<point x="131" y="521"/>
			<point x="131" y="517" type="curve" smooth="yes"/>
			<point x="131" y="498"/>
			<point x="142" y="487"/>
			<point x="162" y="487" type="curve" smooth="yes"/>
			<point x="177" y="487"/>
			<point x="194" y="490"/>
			<point x="209" y="500" type="curve" smooth="yes"/>
			<point x="219" y="506"/>
			<point x="231" y="526"/>
			<point x="233" y="535" type="curve" smooth="yes"/>
			<point x="234" y="539"/>
			<point x="234" y="543"/>
			<point x="234" y="548" type="curve" smooth="yes"/>
			<point x="234" y="564" type="line" smooth="yes"/>
			<point x="234" y="581"/>
			<point x="237" y="600"/>
			<point x="258" y="615" type="curve" smooth="yes"/>
			<point x="289" y="638"/>
			<point x="321" y="646"/>
			<point x="362" y="646" type="curve" smooth="yes"/>
			<point x="389" y="646"/>
			<point x="436" y="635"/>
			<point x="449" y="619" type="curve"/>
			<point x="461" y="602"/>
			<point x="474" y="580"/>
			<point x="474" y="552" type="curve" smooth="yes"/>
			<point x="474" y="544"/>
			<point x="473" y="536"/>
			<point x="471" y="527" type="curve" smooth="yes"/>
			<point x="463" y="492"/>
			<point x="449" y="468"/>
			<point x="425" y="437" type="curve" smooth="yes"/>
			<point x="404" y="409"/>
			<point x="365" y="366"/>
			<point x="260" y="366" type="curve"/>
		</contour>
	</outline>
</glyph>
<glyph name="uni0243" format="2">
	<unicode hex="0243"/>
	<advance width="592"/>
	<outline>
		<contour>
			<point x="21" y="20" type="curve"/>
			<point x="17" y="-1" type="line"/>
			<point x="146" y="0" type="line" smooth="yes"/>
			<point x="175" y="0"/>
			<point x="222" y="-1"/>
			<point x="294" y="-1" type="curve" smooth="yes"/>
			<point x="493" y="-1"/>
			<point x="567" y="88"/>
			<point x="582" y="174" type="curve" smooth="yes"/>
			<point x="584" y="188"/>
			<point x="586" y="202"/>
			<point x="586" y="215" type="curve" smooth="yes"/>
			<point x="586" y="287"/>
			<point x="548" y="339"/>
			<point x="462" y="359" type="curve"/>
			<point x="518" y="384"/>
			<point x="569" y="438"/>
			<point x="579" y="493" type="curve"/>
			<point x="580" y="502"/>
			<point x="582" y="513"/>
			<point x="582" y="523" type="curve" smooth="yes"/>
			<point x="582" y="583"/>
			<point x="545" y="646"/>
			<point x="386" y="646" type="curve" smooth="yes"/>
			<point x="351" y="646"/>
			<point x="292" y="645"/>
			<point x="259" y="645" type="curve" smooth="yes"/>
			<point x="228" y="645"/>
			<point x="131" y="646"/>
			<point x="131" y="646" type="curve"/>
			<point x="127" y="625" type="line" smooth="yes"/>
			<point x="126" y="621"/>
			<point x="128" y="618"/>
			<point x="133" y="618" type="curve" smooth="yes"/>
			<point x="163" y="618" type="line" smooth="yes"/>
			<point x="197" y="618"/>
			<point x="209" y="611"/>
			<point x="209" y="591" type="curve" smooth="yes"/>
			<point x="209" y="586"/>
			<point x="208" y="581"/>
			<point x="207" y="574" type="curve" smooth="yes"/>
			<point x="143" y="211" type="line"/>
			<point x="66" y="211" type="line" smooth="yes"/>
			<point x="54" y="211"/>
			<point x="41" y="193"/>
			<point x="39" y="182" type="curve"/>
			<point x="39" y="178" type="line" smooth="yes"/>
			<point x="39" y="172"/>
			<point x="42" y="167"/>
			<point x="48" y="167" type="curve" smooth="yes"/>
			<point x="136" y="167" type="line"/>
			<point x="119" y="74" type="line" smooth="yes"/>
			<point x="113" y="39"/>
			<point x="99" y="28"/>
			<point x="59" y="28" type="curve" smooth="yes"/>
			<point x="29" y="28" type="line" smooth="yes"/>
			<point x="23" y="28"/>
			<point x="21" y="23"/>
		</contour>
		<contour>
			<point x="224" y="211" type="line"/>
			<point x="246" y="338" type="line"/>
			<point x="340" y="338" type="line" smooth="yes"/>
			<point x="444" y="338"/>
			<point x="498" y="289"/>
			<point x="498" y="215" type="curve" smooth="yes"/>
			<point x="498" y="206"/>
			<point x="497" y="195"/>
			<point x="495" y="185" type="curve" smooth="yes"/>
			<point x="484" y="124"/>
			<point x="433" y="33"/>
			<point x="281" y="33" type="curve" smooth="yes"/>
			<point x="213" y="33"/>
			<point x="198" y="37"/>
			<point x="198" y="58" type="curve" smooth="yes"/>
			<point x="198" y="62"/>
			<point x="198" y="67"/>
			<point x="199" y="72" type="curve" smooth="yes"/>
			<point x="216" y="167" type="line"/>
			<point x="349" y="167" type="line" smooth="yes"/>
			<point x="361" y="167"/>
			<point x="375" y="185"/>
			<point x="377" y="196" type="curve"/>
			<point x="377" y="199" type="line" smooth="yes"/>
			<point x="377" y="205"/>
			<point x="375" y="211"/>
			<point x="366" y="211" type="curve" smooth="yes"/>
		</contour>
		<contour>
			<point x="288" y="575" type="line" smooth="yes"/>
			<point x="294" y="608"/>
			<point x="300" y="611"/>
			<point x="387" y="611" type="curve" smooth="yes"/>
			<point x="437" y="611"/>
			<point x="504" y="597"/>
			<point x="504" y="520" type="curve" smooth="yes"/>
			<point x="504" y="511"/>
			<point x="503" y="501"/>
			<point x="501" y="491" type="curve" smooth="yes"/>
			<point x="486" y="406"/>
			<point x="415" y="373"/>
			<point x="332" y="373" type="curve" smooth="yes"/>
			<point x="252" y="373" type="line"/>
		</contour>
	</outline>
</glyph>
<glyph name="uni0249" format="2">
  <advance width="312"/>
  <unicode hex="0249"/>
  <outline>
    <contour>
      <point x="204" y="596" type="curve" smooth="yes"/>
      <point x="204" y="563"/>
      <point x="228" y="530"/>
      <point x="268" y="530" type="curve" smooth="yes"/>
      <point x="313" y="530"/>
      <point x="339" y="566"/>
      <point x="339" y="592" type="curve" smooth="yes"/>
      <point x="339" y="622"/>
      <point x="316" y="658"/>
      <point x="274" y="658" type="curve" smooth="yes"/>
      <point x="227" y="658"/>
      <point x="204" y="626"/>
    </contour>
    <contour>
      <point x="87" y="203" type="curve" smooth="yes"/>
      <point x="162" y="203" type="line"/>
      <point x="170" y="242" type="line"/>
      <point x="103" y="242" type="line" smooth="yes"/>
      <point x="94" y="242"/>
      <point x="81" y="227"/>
      <point x="79" y="217" type="curve"/>
      <point x="78" y="211"/>
      <point x="79" y="203"/>
    </contour>
    <contour>
      <point x="255" y="203" type="line"/>
      <point x="317" y="203" type="line"/>
      <point x="317" y="203" type="line"/>
      <point x="329" y="203"/>
      <point x="341" y="218"/>
      <point x="343" y="229" type="curve"/>
      <point x="344" y="232"/>
      <point x="344" y="235"/>
      <point x="342" y="237" type="curve"/>
      <point x="341" y="240"/>
      <point x="339" y="242"/>
      <point x="334" y="242" type="curve" smooth="yes"/>
      <point x="263" y="242" type="line"/>
    </contour>
    <contour>
      <point x="141" y="176" type="line" smooth="yes"/>
      <point x="112" y="33"/>
      <point x="82" y="-172"/>
      <point x="34" y="-172" type="curve" smooth="yes"/>
      <point x="-3" y="-172"/>
      <point x="10" y="-99"/>
      <point x="-56" y="-99" type="curve" smooth="yes"/>
      <point x="-74" y="-99"/>
      <point x="-95" y="-114"/>
      <point x="-95" y="-144" type="curve" smooth="yes"/>
      <point x="-95" y="-191"/>
      <point x="-44" y="-207"/>
      <point x="15" y="-207" type="curve" smooth="yes"/>
      <point x="146" y="-207"/>
      <point x="198" y="-125"/>
      <point x="225" y="0" type="curve" smooth="yes"/>
      <point x="278" y="249" type="line"/>
      <point x="156" y="249" type="line"/>
    </contour>
    <contour>
      <point x="156" y="249" type="line"/>
      <point x="278" y="249" type="line"/>
      <point x="293" y="319" type="line" smooth="yes"/>
      <point x="302" y="359"/>
      <point x="314" y="401"/>
      <point x="314" y="418" type="curve" smooth="yes"/>
      <point x="314" y="430"/>
      <point x="308" y="436"/>
      <point x="297" y="436" type="curve"/>
      <point x="266" y="431"/>
      <point x="169" y="423"/>
      <point x="121" y="423" type="curve"/>
      <point x="114" y="415"/>
      <point x="113" y="393"/>
      <point x="119" y="384" type="curve"/>
      <point x="159" y="381" type="line" smooth="yes"/>
      <point x="171" y="380"/>
      <point x="177" y="371"/>
      <point x="177" y="359" type="curve" smooth="yes"/>
      <point x="177" y="352"/>
      <point x="175" y="339"/>
      <point x="171" y="320" type="curve" smooth="yes"/>
    </contour>
  </outline>
</glyph>
<glyph name="uni0251" format="2">
	<unicode hex="0251"/>
	<advance width="486"/>
	<outline>
		<contour>
			<point x="352" y="42" type="curve"/>
			<point x="351" y="18"/>
			<point x="365" y="-12"/>
			<point x="403" y="-12" type="curve" smooth="yes"/>
			<point x="458" y="-12"/>
			<point x="497" y="11"/>
			<point x="516" y="96" type="curve"/>
			<point x="493" y="96" type="line"/>
			<point x="487" y="72"/>
			<point x="473" y="36"/>
			<point x="448" y="36" type="curve" smooth="yes"/>
			<point x="425" y="36"/>
			<point x="430" y="62"/>
			<point x="444" y="123" type="curve" smooth="yes"/>
			<point x="518" y="442" type="line"/>
			<point x="496" y="442" type="line"/>
			<point x="436" y="412" type="line"/>
			<point x="414" y="430"/>
			<point x="382" y="442"/>
			<point x="343" y="442" type="curve" smooth="yes"/>
			<point x="252" y="442"/>
			<point x="120" y="370"/>
			<point x="83" y="209" type="curve" smooth="yes"/>
			<point x="53" y="82"/>
			<point x="126" y="-12"/>
			<point x="215" y="-12" type="curve" smooth="yes"/>
			<point x="277" y="-12"/>
			<point x="336" y="28"/>
		</contour>
		<contour>
			<point x="258" y="30" type="curve" smooth="yes"/>
			<point x="191" y="30"/>
			<point x="133" y="91"/>
			<point x="165" y="231" type="curve" smooth="yes"/>
			<point x="196" y="366"/>
			<point x="280" y="407"/>
			<point x="330" y="407" type="curve" smooth="yes"/>
			<point x="393" y="407"/>
			<point x="414" y="366"/>
			<point x="420" y="345" type="curve"/>
			<point x="358" y="75" type="line"/>
			<point x="335" y="55"/>
			<point x="294" y="30"/>
		</contour>
	</outline>
</glyph>
<glyph name="uni0252" format="2">
  <advance width="508"/>
  <unicode hex="0252"/>
  <outline>
    <contour>
      <point x="248" y="388" type="curve"/>
      <point x="249" y="412"/>
      <point x="235" y="442"/>
      <point x="197" y="442" type="curve" smooth="yes"/>
      <point x="142" y="442"/>
      <point x="103" y="419"/>
      <point x="84" y="334" type="curve"/>
      <point x="107" y="334" type="line"/>
      <point x="113" y="358"/>
      <point x="127" y="394"/>
      <point x="152" y="394" type="curve" smooth="yes"/>
      <point x="175" y="394"/>
      <point x="170" y="368"/>
      <point x="156" y="307" type="curve" smooth="yes"/>
      <point x="82" y="-12" type="line"/>
      <point x="104" y="-12" type="line"/>
      <point x="164" y="18" type="line"/>
      <point x="186" y="0"/>
      <point x="218" y="-12"/>
      <point x="257" y="-12" type="curve" smooth="yes"/>
      <point x="348" y="-12"/>
      <point x="480" y="60"/>
      <point x="517" y="221" type="curve" smooth="yes"/>
      <point x="547" y="348"/>
      <point x="474" y="442"/>
      <point x="385" y="442" type="curve" smooth="yes"/>
      <point x="323" y="442"/>
      <point x="264" y="402"/>
    </contour>
    <contour>
      <point x="342" y="400" type="curve" smooth="yes"/>
      <point x="409" y="400"/>
      <point x="467" y="339"/>
      <point x="435" y="199" type="curve" smooth="yes"/>
      <point x="404" y="64"/>
      <point x="320" y="23"/>
      <point x="270" y="23" type="curve" smooth="yes"/>
      <point x="207" y="23"/>
      <point x="186" y="64"/>
      <point x="180" y="85" type="curve"/>
      <point x="242" y="355" type="line"/>
      <point x="265" y="375"/>
      <point x="306" y="400"/>
    </contour>
  </outline>
</glyph>
<glyph name="uni0255" format="2">
  <advance width="430"/>
  <unicode hex="0255"/>
  <outline>
    <contour>
      <point x="205" y="-10" type="curve" smooth="yes"/>
      <point x="303" y="-10"/>
      <point x="426" y="62"/>
      <point x="426" y="154" type="curve" smooth="yes"/>
      <point x="426" y="179"/>
      <point x="402" y="189"/>
      <point x="377" y="189" type="curve" smooth="yes"/>
      <point x="325" y="189"/>
      <point x="267" y="134"/>
      <point x="209" y="62" type="curve"/>
      <point x="165" y="84"/>
      <point x="165" y="151"/>
      <point x="165" y="200" type="curve" smooth="yes"/>
      <point x="165" y="290"/>
      <point x="223" y="411"/>
      <point x="310" y="411" type="curve" smooth="yes"/>
      <point x="353" y="411"/>
      <point x="351" y="390"/>
      <point x="348" y="367" type="curve"/>
      <point x="347" y="361"/>
      <point x="346" y="355"/>
      <point x="346" y="349" type="curve" smooth="yes"/>
      <point x="346" y="322"/>
      <point x="347" y="298"/>
      <point x="383" y="298" type="curve" smooth="yes"/>
      <point x="406" y="298"/>
      <point x="432" y="316"/>
      <point x="437" y="341" type="curve"/>
      <point x="439" y="346"/>
      <point x="439" y="352"/>
      <point x="439" y="357" type="curve" smooth="yes"/>
      <point x="439" y="413"/>
      <point x="385" y="439"/>
      <point x="335" y="439" type="curve" smooth="yes"/>
      <point x="190" y="439"/>
      <point x="80" y="308"/>
      <point x="80" y="155" type="curve" smooth="yes"/>
      <point x="80" y="105"/>
      <point x="95" y="30"/>
      <point x="153" y="4" type="curve"/>
      <point x="125" y="-28"/>
      <point x="95" y="-63"/>
      <point x="68" y="-96" type="curve"/>
      <point x="89" y="-100" type="line"/>
      <point x="118" y="-68"/>
      <point x="144" y="-35"/>
      <point x="171" y="-4" type="curve"/>
      <point x="181" y="-8"/>
      <point x="192" y="-10"/>
    </contour>
    <contour>
      <point x="397" y="145" type="curve" smooth="yes"/>
      <point x="397" y="92"/>
      <point x="299" y="51"/>
      <point x="263" y="51" type="curve" smooth="yes"/>
      <point x="251" y="51"/>
      <point x="238" y="52"/>
      <point x="228" y="55" type="curve"/>
      <point x="279" y="115"/>
      <point x="327" y="164"/>
      <point x="369" y="164" type="curve" smooth="yes"/>
      <point x="384" y="164"/>
      <point x="397" y="160"/>
    </contour>
  </outline>
</glyph>
<glyph name="uni0258" format="2">
  <advance width="437"/>
  <unicode hex="0258"/>
  <outline>
    <contour>
      <point x="344" y="199" type="curve"/>
      <point x="342" y="191"/>
      <point x="336" y="170"/>
      <point x="334" y="165" type="curve"/>
      <point x="303" y="72"/>
      <point x="255" y="38"/>
      <point x="210" y="38" type="curve" smooth="yes"/>
      <point x="162" y="38"/>
      <point x="142" y="66"/>
      <point x="114" y="124" type="curve"/>
      <point x="102" y="124"/>
      <point x="95" y="119"/>
      <point x="85" y="108" type="curve"/>
      <point x="106" y="31"/>
      <point x="144" y="-10"/>
      <point x="225" y="-10" type="curve" smooth="yes"/>
      <point x="327" y="-10"/>
      <point x="380" y="58"/>
      <point x="407" y="142" type="curve" smooth="yes"/>
      <point x="422" y="188"/>
      <point x="435" y="236"/>
      <point x="435" y="282" type="curve" smooth="yes"/>
      <point x="435" y="367"/>
      <point x="393" y="439"/>
      <point x="282" y="439" type="curve" smooth="yes"/>
      <point x="163" y="439"/>
      <point x="141" y="356"/>
      <point x="141" y="326" type="curve" smooth="yes"/>
      <point x="141" y="250"/>
      <point x="182" y="220"/>
    </contour>
    <contour>
      <point x="291" y="408" type="curve" smooth="yes"/>
      <point x="328" y="408"/>
      <point x="363" y="390"/>
      <point x="363" y="314" type="curve" smooth="yes"/>
      <point x="363" y="290"/>
      <point x="360" y="261"/>
      <point x="352" y="226" type="curve"/>
      <point x="290" y="231"/>
      <point x="212" y="262"/>
      <point x="212" y="327" type="curve" smooth="yes"/>
      <point x="212" y="352"/>
      <point x="221" y="408"/>
    </contour>
  </outline>
</glyph>
<glyph name="uni0270" format="2">
  <advance width="755"/>
  <unicode hex="0270"/>
  <outline>
    <contour>
      <point x="690" y="-195" type="curve"/>
      <point x="697" y="-166" type="line"/>
      <point x="687" y="-168"/>
      <point x="667" y="-172"/>
      <point x="656" y="-172" type="curve" smooth="yes"/>
      <point x="647" y="-172"/>
      <point x="640" y="-169"/>
      <point x="640" y="-159" type="curve" smooth="yes"/>
      <point x="640" y="-150"/>
      <point x="657" y="-71"/>
      <point x="700" y="115" type="curve" smooth="yes"/>
      <point x="757" y="361" type="line" smooth="yes"/>
      <point x="765" y="395"/>
      <point x="769" y="407"/>
      <point x="806" y="408" type="curve"/>
      <point x="823" y="408" type="line"/>
      <point x="827" y="409"/>
      <point x="830" y="411"/>
      <point x="831" y="416" type="curve" smooth="yes"/>
      <point x="836" y="435" type="line"/>
      <point x="833" y="435" type="line" smooth="yes"/>
      <point x="824" y="435"/>
      <point x="741" y="433"/>
      <point x="738" y="433" type="curve" smooth="yes"/>
      <point x="728" y="433"/>
      <point x="643" y="435"/>
      <point x="639" y="435" type="curve" smooth="yes"/>
      <point x="637" y="435" type="line"/>
      <point x="632" y="415" type="line" smooth="yes"/>
      <point x="631" y="411"/>
      <point x="634" y="408"/>
      <point x="639" y="408" type="curve" smooth="yes"/>
      <point x="655" y="408" type="line"/>
      <point x="679" y="407"/>
      <point x="687" y="402"/>
      <point x="687" y="388" type="curve" smooth="yes"/>
      <point x="687" y="381"/>
      <point x="685" y="373"/>
      <point x="682" y="361" type="curve" smooth="yes"/>
      <point x="620" y="93" type="line"/>
      <point x="584" y="63"/>
      <point x="546" y="29"/>
      <point x="490" y="29" type="curve" smooth="yes"/>
      <point x="458" y="29"/>
      <point x="447" y="58"/>
      <point x="447" y="93" type="curve" smooth="yes"/>
      <point x="447" y="109"/>
      <point x="449" y="127"/>
      <point x="453" y="145" type="curve" smooth="yes"/>
      <point x="503" y="361" type="line" smooth="yes"/>
      <point x="511" y="396"/>
      <point x="516" y="407"/>
      <point x="552" y="408" type="curve"/>
      <point x="570" y="408" type="line"/>
      <point x="574" y="409"/>
      <point x="576" y="411"/>
      <point x="578" y="416" type="curve"/>
      <point x="583" y="435" type="line"/>
      <point x="580" y="435" type="line" smooth="yes"/>
      <point x="570" y="435"/>
      <point x="487" y="433"/>
      <point x="484" y="433" type="curve" smooth="yes"/>
      <point x="474" y="433"/>
      <point x="389" y="435"/>
      <point x="385" y="435" type="curve" smooth="yes"/>
      <point x="383" y="435" type="line"/>
      <point x="378" y="415" type="line" smooth="yes"/>
      <point x="377" y="411"/>
      <point x="380" y="408"/>
      <point x="385" y="408" type="curve" smooth="yes"/>
      <point x="401" y="408" type="line"/>
      <point x="421" y="407"/>
      <point x="432" y="405"/>
      <point x="432" y="386" type="curve" smooth="yes"/>
      <point x="432" y="380"/>
      <point x="431" y="372"/>
      <point x="429" y="361" type="curve"/>
      <point x="367" y="96" type="line"/>
      <point x="300" y="29"/>
      <point x="246" y="26"/>
      <point x="226" y="26" type="curve" smooth="yes"/>
      <point x="197" y="26"/>
      <point x="188" y="46"/>
      <point x="188" y="78" type="curve" smooth="yes"/>
      <point x="188" y="99"/>
      <point x="192" y="125"/>
      <point x="199" y="153" type="curve" smooth="yes"/>
      <point x="247" y="361" type="line" smooth="yes"/>
      <point x="255" y="395"/>
      <point x="259" y="407"/>
      <point x="296" y="408" type="curve"/>
      <point x="313" y="408" type="line"/>
      <point x="317" y="409"/>
      <point x="320" y="411"/>
      <point x="321" y="416" type="curve" smooth="yes"/>
      <point x="326" y="435" type="line"/>
      <point x="324" y="435" type="line" smooth="yes"/>
      <point x="314" y="435"/>
      <point x="231" y="433"/>
      <point x="228" y="433" type="curve" smooth="yes"/>
      <point x="218" y="433"/>
      <point x="133" y="435"/>
      <point x="129" y="435" type="curve" smooth="yes"/>
      <point x="127" y="435" type="line"/>
      <point x="122" y="415" type="line"/>
      <point x="122" y="411"/>
      <point x="124" y="408"/>
      <point x="129" y="408" type="curve" smooth="yes"/>
      <point x="145" y="408" type="line"/>
      <point x="169" y="407"/>
      <point x="177" y="402"/>
      <point x="177" y="388" type="curve" smooth="yes"/>
      <point x="177" y="381"/>
      <point x="175" y="373"/>
      <point x="172" y="361" type="curve" smooth="yes"/>
      <point x="123" y="148" type="line" smooth="yes"/>
      <point x="116" y="117"/>
      <point x="111" y="89"/>
      <point x="111" y="65" type="curve" smooth="yes"/>
      <point x="111" y="13"/>
      <point x="133" y="-19"/>
      <point x="193" y="-19" type="curve" smooth="yes"/>
      <point x="216" y="-19"/>
      <point x="286" y="-12"/>
      <point x="365" y="61" type="curve"/>
      <point x="368" y="32"/>
      <point x="385" y="-17"/>
      <point x="442" y="-17" type="curve" smooth="yes"/>
      <point x="503" y="-17"/>
      <point x="575" y="25"/>
      <point x="611" y="55" type="curve"/>
      <point x="545" y="-232" type="line"/>
      <point x="567" y="-232" type="line"/>
      <point x="600" y="-213"/>
      <point x="649" y="-201"/>
    </contour>
  </outline>
</glyph>
